SplineFontDB: 3.2
FontName: Celescript
FullName: Celescript
FamilyName: Celescript
Weight: Regular
Copyright: Copyright (c) 2024, Celestin Meunier
UComments: "2024-9-24: Created with FontForge (http://fontforge.org)"
Version: 002.000
StrokeWidth: 10
ItalicAngle: 0
UnderlinePosition: -102
UnderlineWidth: 51
Ascent: 819
Descent: 205
InvalidEm: 0
LayerCount: 2
Layer: 0 0 "Back" 1
Layer: 1 0 "Fore" 0
XUID: [1021 50 -1502578829 8247115]
StyleMap: 0x0000
FSType: 0
OS2Version: 0
OS2_WeightWidthSlopeOnly: 0
OS2_UseTypoMetrics: 1
CreationTime: 1727188745
ModificationTime: 1728646249
PfmFamily: 17
TTFWeight: 400
TTFWidth: 5
LineGap: 92
VLineGap: 92
OS2TypoAscent: 0
OS2TypoAOffset: 1
OS2TypoDescent: 0
OS2TypoDOffset: 1
OS2TypoLinegap: 92
OS2WinAscent: 0
OS2WinAOffset: 1
OS2WinDescent: 0
OS2WinDOffset: 1
HheadAscent: 0
HheadAOffset: 1
HheadDescent: 0
HheadDOffset: 1
OS2Vendor: 'PfEd'
MarkAttachClasses: 1
DEI: 91125
LangName: 1033
Encoding: Mac
UnicodeInterp: none
NameList: AGL For New Fonts
DisplaySize: -48
AntiAlias: 1
FitToEm: 0
WidthSeparation: 154
WinInfo: 0 31 12
BeginPrivate: 0
EndPrivate
TeXData: 1 0 0 1048576 524288 349525 0 1048576 349525 783286 444596 497025 792723 393216 433062 380633 303038 157286 324010 404750 52429 2506097 1059062 262144
BeginChars: 257 173

StartChar: A
Encoding: 65 65 0
Width: 560
Flags: HW
HStem: 357 75<89.6039 152> 716 20G<312.5 335>
VStem: 45 75<26.3735 117.283> 433 76<78.7192 142.711>
LayerCount: 2
Fore
SplineSet
363 402 m 1
 356 423 356 423 304 598 c 1
 288 538 271 479 252 420 c 1
 279 416 328 407 363 402 c 1
505 135 m 0
 505 116 509 121 509 110 c 0
 509 89 493 74 473 74 c 0
 454 74 439 88 433 110 c 0
 426 138 435 175 421 225 c 0
 417 237 403 281 389 324 c 1
 360 327 334 331 299 337 c 0
 252 344 241 346 228 348 c 1
 207 287 194 253 150 142 c 0
 121 68 120 66 120 61 c 0
 120 40 103 23 82 23 c 0
 61 23 45 40 45 62 c 0
 45 99 90 182 152 357 c 1
 144 357 133 357 133 357 c 0
 104 357 86 373 86 395 c 0
 86 417 105 432 134 432 c 0
 141 432 161 431 177 430 c 1
 223 570 242 673 263 708 c 0
 276 728 296 736 311 736 c 0
 341 736 353 702 378 614 c 0
 414 488 444 396 460 396 c 0
 466 396 483 380 483 359 c 0
 483 347 477 335 467 328 c 1
 503 217 506 205 506 180 c 0
 506 165 505 144 505 135 c 0
EndSplineSet
Validated: 1
EndChar

StartChar: B
Encoding: 66 66 1
Width: 604
Flags: HW
HStem: -5 74<146.962 261.922> 310 75<214 319.597> 642 74<165.495 407.458>
VStem: 71 75<84.1406 619.987> 438 75<479.104 612.681>
LayerCount: 2
Fore
SplineSet
329 716 m 0
 376 716 513 702 513 555 c 0
 513 480 478 417 414 373 c 1
 474 367 504 346 520 273 c 0
 533 215 556 184 556 149 c 0
 556 106 520 93 497 84 c 0
 411 50 344 38 263 11 c 0
 242 4 213 -5 179 -5 c 0
 154 -5 108 0 93 29 c 0
 88 39 71 81 71 92 c 2
 71 537 l 2
 71 553 67 574 67 601 c 0
 67 652 82 668 118 683 c 0
 135 690 148 693 198 701 c 0
 245 708 293 716 329 716 c 0
438 565 m 0
 438 576 437 642 322 642 c 0
 297 642 271 639 246 633 c 0
 205 624 165 622 146 614 c 0
 142 612 144 612 143 610 c 0
 142 607 142 599 142 591 c 0
 142 583 142 582 144 563 c 2
 144 562 l 2
 145 552 146 543 146 537 c 2
 146 92 l 2
 146 90 145 87 152 76 c 0
 155 71 157 69 174 69 c 0
 215 69 217 81 317 106 c 0
 339 112 477 147 477 162 c 0
 477 164 474 175 471 180 c 0
 470 182 468 184 465 191 c 0
 447 229 447 284 428 294 c 0
 422 297 407 299 384 299 c 0
 329 299 282 310 220 310 c 2
 214 310 l 1
 214 385 l 1
 294 385 438 434 438 565 c 0
EndSplineSet
Validated: 1
EndChar

StartChar: C
Encoding: 67 67 2
Width: 659
Flags: HW
HStem: 69 75<319.34 497.38> 539 74<535.222 595.497> 591 75<287.841 491.41>
VStem: 54 75<235.595 417.627>
LayerCount: 2
Fore
SplineSet
567 248 m 0xb0
 588 248 608 233 608 218 c 0
 608 210 602 163 589 141 c 0
 584 131 576 123 486 78 c 0
 486 78 468 69 429 69 c 0
 353 69 268 104 257 108 c 0
 255 109 249 112 209 125 c 0
 130 150 54 177 54 315 c 0
 54 508 203 666 390 666 c 0xb0
 416 666 443 663 500 650 c 0
 515 646 527 643 557 621 c 0
 567 614 567 613 570 613 c 0
 586 610 599 595 599 577 c 0
 599 556 582 539 561 539 c 0xd0
 532 539 504 571 487 575 c 0
 483 576 428 591 381 591 c 0
 244 591 129 466 129 304 c 0
 129 242 146 221 258 187 c 0
 274 182 280 180 292 176 c 1
 293 175 l 1
 355 154 386 144 413 144 c 0
 465 144 526 180 528 187 c 0
 529 189 528 193 531 208 c 0
 534 221 539 248 567 248 c 0xb0
EndSplineSet
Validated: 1
EndChar

StartChar: D
Encoding: 68 68 3
Width: 661
Flags: HW
HStem: 111 74<140.613 371.272> 516 75<140.521 325.266>
VStem: 66 74<181 508.673> 528 74<228.793 404.313>
LayerCount: 2
Fore
SplineSet
199 516 m 0
 170 516 163 505 149 505 c 0
 145 505 143 506 140 506 c 1
 140 181 l 1
 145 184 151 185 183 185 c 0
 215 185 224 186 342 203 c 0
 506 227 473 223 505 226 c 0
 522 227 528 228 528 256 c 0
 528 281 523 309 523 332 c 0
 523 343 522 403 485 430 c 2
 464 448 l 2
 447 465 261 516 199 516 c 0
598 329 m 0
 598 305 602 309 602 277 c 0
 602 178 564 156 496 149 c 0
 429 143 276 111 182 111 c 0
 149 111 134 115 126 127 c 1
 120 122 112 119 103 119 c 0
 82 119 66 135 66 156 c 2
 66 559 l 2
 66 580 82 597 104 597 c 0
 124 597 130 583 136 583 c 0
 138 583 138 584 140 585 c 0
 150 590 174 591 185 591 c 0
 263 591 471 544 526 493 c 0
 534 485 546 477 553 471 c 0
 582 445 598 378 598 329 c 0
EndSplineSet
Validated: 1
EndChar

StartChar: E
Encoding: 69 69 4
Width: 722
Flags: HW
HStem: 98 75<225.653 481.56> 107 75<321.401 531.396> 313 75<54.3593 150 225 421.403> 323 75<225 533.47> 472 74<57.4531 150 225 359.051> 514 75<353.012 668.803>
VStem: 150 75<179.078 315 391 473 553 628.645>
LayerCount: 2
Fore
SplineSet
278 98 m 0x82
 278 98 150 98 150 183 c 2
 150 315 l 1
 89 313 l 2
 88 313 88 313 88 313 c 0
 67 313 51 330 51 351 c 0
 51 371 66 387 87 388 c 2
 150 389 l 1
 150 473 l 1
 139 472 123 472 123 472 c 0
 75 472 54 485 54 509 c 0
 54 532 73 546 110 546 c 0xaa
 110 546 110 546 150 548 c 1
 150 594 l 2
 150 615 167 632 188 632 c 0
 209 632 225 615 225 594 c 2
 225 553 l 1
 318 561 505 589 593 589 c 0
 648 589 673 578 673 552 c 0
 673 526 648 514 594 514 c 0
 555 514 489 508 367 493 c 1
 366 493 l 1
 320 488 272 482 225 478 c 1
 225 391 l 1
 499 398 l 2
 500 398 500 398 500 398 c 0
 521 398 537 382 537 361 c 0
 537 341 522 324 501 323 c 2
 225 316 l 1
 225 186 l 1
 238 180 260 173 320 173 c 0x96
 370 173 436 178 471 181 c 0
 483 182 485 182 485 182 c 0
 517 182 535 166 535 144 c 0
 535 122 517 107 489 107 c 0x42
 468 107 381 98 278 98 c 0x82
EndSplineSet
Validated: 1
EndChar

StartChar: F
Encoding: 70 70 5
Width: 597
Flags: HW
HStem: 357 75<180 434.819> 588 75<148 505.455> 606 75<264.606 545.57> 650 20G<100.5 117>
VStem: 105 75<55.1806 357 432 551.172>
LayerCount: 2
Fore
SplineSet
509 606 m 0xa8
 484 606 455 588 415 588 c 2
 336 588 l 2xc8
 335 588 267 586 218 586 c 0
 159 586 149 589 148 589 c 1
 172 551 180 524 180 487 c 2
 180 432 l 1
 401 432 l 2
 422 432 438 415 438 394 c 0
 438 373 422 357 401 357 c 2
 180 357 l 1
 180 89 l 2
 180 68 163 52 142 52 c 0
 121 52 105 68 105 89 c 2
 105 358 l 1
 89 362 77 377 77 394 c 0
 77 411 89 426 105 430 c 1
 105 487 l 2
 105 511 102 522 72 567 c 0
 72 567 50 600 50 627 c 0
 50 667 98 670 112 670 c 0x98
 131 670 147 665 148 665 c 0
 149 665 153 664 154 664 c 0
 156 664 164 661 216 661 c 0
 258 661 335 663 336 663 c 2
 415 663 l 2xc8
 444 663 474 681 504 681 c 0
 532 681 549 666 549 644 c 0
 549 622 532 606 509 606 c 0xa8
EndSplineSet
Validated: 1
EndChar

StartChar: G
Encoding: 71 71 6
Width: 642
Flags: HW
HStem: 57 75<265.945 418.418> 263 75<201.981 468.817> 286 75<299.641 501.265> 601 75<291.51 441.933>
VStem: 54 75<270.218 455.736> 502 75<225.152 317.499> 512 74<460.448 535.502>
LayerCount: 2
Fore
SplineSet
482 361 m 0xbc
 523 361 577 349 577 285 c 0xbc
 577 244 554 200 533 170 c 0
 528 162 525 158 521 151 c 0
 486 95 416 57 345 57 c 0
 204 57 102 204 97 211 c 0
 69 252 54 312 54 367 c 0
 54 424 70 475 99 513 c 0
 105 522 221 676 367 676 c 0
 491 676 586 564 586 501 c 0
 586 494 585 457 551 457 c 0
 530 457 514 472 512 491 c 0xba
 508 528 447 601 369 601 c 0
 285 601 195 517 162 473 c 0
 140 443 129 411 129 367 c 0
 129 289 163 232 225 182 c 0
 280 138 316 132 340 132 c 0
 390 132 438 158 471 210 c 0
 477 220 502 261 502 276 c 0
 502 282 498 286 479 286 c 0xbc
 432 286 371 263 284 263 c 0
 222 263 198 275 198 300 c 0
 198 325 222 338 283 338 c 0xdc
 364 338 425 361 482 361 c 0xbc
EndSplineSet
Validated: 1
EndChar

StartChar: H
Encoding: 72 72 7
Width: 640
Flags: HW
HStem: 312 75<152.183 493> 665 20G<84 110 513 534>
VStem: 60 75<388.062 680.244> 113 75<58.6562 230.555> 493 68<387 671.819> 500 75<66.3593 312>
LayerCount: 2
Fore
SplineSet
152 313 m 5xc4
 158 259 188 158 188 109 c 4
 188 75 174 55 151 55 c 4
 128 55 113 75 113 113 c 4xd4
 113 161 89 210 75 326 c 4
 67 398 60 516 60 579 c 4
 60 657 71 685 97 685 c 4
 123 685 135 657 135 579 c 4
 135 534 139 446 144 384 c 5
 148 386 153 387 159 387 c 6
 493 387 l 5
 487 636 l 6
 487 637 487 637 487 637 c 0
 487 658 503 675 524 675 c 4
 544 675 560 659 561 638 c 6xe8
 575 101 l 6
 575 100 575 100 575 100 c 0
 575 79 559 63 538 63 c 4
 518 63 501 78 500 99 c 6
 495 312 l 5
 159 312 l 6
 157 312 154 313 152 313 c 5xc4
EndSplineSet
Validated: 1
EndChar

StartChar: I
Encoding: 73 73 8
Width: 231
Flags: HW
HStem: 13 21G<87 106.5> 778 20G<97.5 111> 778 20G<97.5 111>
VStem: 59 80<17.977 80.5008 695.411 793.154> 68 80<311.391 656.24> 85 80<110.641 723.734>
LayerCount: 2
Fore
SplineSet
168 658 m 0xd0
 168 621 148 549 148 482 c 0
 148 482 148 471 148 468 c 0
 148 465 148 464 148 464 c 0xc8
 148 411 165 358 165 297 c 0
 165 221 149 171 149 170 c 2
 135 39 l 1
 129 24 115 13 98 13 c 0
 76 13 58 31 58 53 c 0
 58 58 59 62 61 67 c 2
 74 196 l 1
 81 226 85 250 85 266 c 0
 85 274 84 284 84 288 c 0
 84 292 85 304 85 315 c 0xc4
 85 360 68 412 68 469 c 0
 68 479 l 0xc8
 68 547 88 639 88 657 c 0
 88 678 59 707 59 749 c 0
 59 796 95 798 102 798 c 0
 122 798 140 780 140 760 c 0
 140 755 139 753 139 750 c 0
 139 733 168 702 168 658 c 0xd0
EndSplineSet
Validated: 1
EndChar

StartChar: J
Encoding: 74 74 9
Width: 834
Flags: HW
HStem: -7 75<246.588 372.828> 582 75<110.181 387 462 781.645>
VStem: 51 74<190.964 330.281> 387 75<87.7551 582>
LayerCount: 2
Fore
SplineSet
462 150 m 2
 462 81 439 -7 324 -7 c 0
 183 -7 51 126 51 268 c 0
 51 312 64 334 89 334 c 0
 112 334 125 314 125 275 c 0
 125 167 225 68 336 68 c 0
 358 68 366 72 374 87 c 0
 382 103 387 126 387 150 c 2
 387 582 l 1
 144 582 l 2
 123 582 107 599 107 620 c 0
 107 641 123 657 144 657 c 2
 747 657 l 2
 768 657 785 641 785 620 c 0
 785 599 768 582 747 582 c 2
 462 582 l 1
 462 150 l 2
EndSplineSet
Validated: 1
EndChar

StartChar: K
Encoding: 75 75 10
Width: 806
Flags: HW
HStem: 117 75<652.286 753.526> 244 74<48.2555 149.812> 725 20G<210.5 231.5 656 673>
VStem: 183 75<22.1806 269 401 741.645>
LayerCount: 2
Fore
SplineSet
183 269 m 1
 156 258 114 244 88 244 c 0
 62 244 45 258 45 280 c 0
 45 302 61 316 86 318 c 0
 101 319 127 326 144 335 c 0
 150 338 151 339 151 344 c 0
 151 363 165 378 183 381 c 1
 183 707 l 2
 183 728 200 745 221 745 c 0
 242 745 258 728 258 707 c 2
 258 401 l 1
 260 402 400 515 432 535 c 0
 441 541 500 576 554 604 c 0
 583 619 610 634 623 643 c 0
 637 652 650 657 662 657 c 0
 684 657 695 639 695 623 c 0
 695 600 673 583 625 557 c 0
 574 530 481 486 378 401 c 0
 363 388 351 379 323 357 c 1
 362 343 400 326 503 270 c 0
 542 249 548 245 658 212 c 0
 690 202 690 202 700 198 c 0
 746 183 760 168 760 151 c 0
 760 138 751 117 737 117 c 0
 720 117 573 149 469 204 c 0
 465 206 457 210 442 218 c 0
 346 270 305 287 258 298 c 1
 258 56 l 2
 258 35 242 19 221 19 c 0
 200 19 183 35 183 56 c 2
 183 269 l 1
EndSplineSet
Validated: 1
EndChar

StartChar: L
Encoding: 76 76 11
Width: 543
Flags: HW
HStem: 78 75<130.114 490.525> 663 20G<208.5 233> 663 20G<208.5 233>
VStem: 183 75<481.496 679.387>
LayerCount: 2
Fore
SplineSet
100 53 m 0xd0
 73 53 48 73 48 108 c 0
 48 132 60 171 62 177 c 0
 66 187 109 283 119 327 c 0
 128 369 183 530 183 618 c 0
 183 661 196 683 220 683 c 0
 244 683 258 661 258 614 c 0
 258 553 236 469 190 301 c 0
 180 264 180 264 174 249 c 0
 165 228 163 227 154 208 c 0
 148 196 146 190 128 136 c 1
 173 148 224 153 275 153 c 0
 321 153 441 149 454 149 c 0
 477 149 496 136 496 112 c 0
 496 88 477 74 440 74 c 0
 420 74 336 78 284 78 c 0
 154 78 131 53 100 53 c 0xd0
EndSplineSet
Validated: 1
EndChar

StartChar: M
Encoding: 77 77 12
Width: 861
Flags: HW
HStem: 331 75<352.396 455.31> 666 20G<95 133.5>
VStem: 69 75<124.355 566>
LayerCount: 2
Fore
SplineSet
790 53 m 4
 723 53 670 334 653 604 c 5
 648 604 640 585 639 582 c 4
 637 576 549 331 399 331 c 4
 358 331 284 349 166 531 c 4
 152 553 148 560 144 566 c 5
 144 159 l 6
 144 138 127 121 106 121 c 4
 85 121 69 138 69 159 c 6
 69 602 l 6
 69 624 69 686 122 686 c 4
 146 686 163 673 222 584 c 4
 290 482 351 406 403 406 c 4
 458 406 521 492 559 579 c 4
 563 589 564 592 565 594 c 4
 569 601 565 600 570 609 c 4
 580 629 631 693 674 693 c 4
 702 693 726 666 734 534 c 4
 741 418 768 249 799 157 c 4
 809 127 813 105 813 91 c 4
 813 81 811 53 790 53 c 4
EndSplineSet
Validated: 1
EndChar

StartChar: N
Encoding: 78 78 13
Width: 766
Flags: HW
HStem: 727 20G<566 590.5>
VStem: 70 75<24.1806 551>
LayerCount: 2
Fore
SplineSet
540 708 m 4
 540 733 558 747 575 747 c 4
 607 747 642 697 651 591 c 4
 655 547 654 501 664 445 c 4
 666 433 667 432 694 298 c 4
 701 260 l 4
 710 230 715 199 715 176 c 4
 715 165 714 155 710 148 c 4
 706 140 692 124 674 124 c 4
 640 124 607 177 592 202 c 4
 524 311 502 348 338 443 c 4
 267 484 210 521 171 540 c 4
 159 546 151 549 145 551 c 5
 145 58 l 6
 145 37 128 21 107 21 c 4
 86 21 70 37 70 58 c 6
 70 573 l 6
 70 611 97 630 127 630 c 4
 174 630 247 585 274 568 c 4
 301 551 301 550 334 530 c 4
 576 384 612 307 615 307 c 5
 594 402 591 417 586 470 c 4
 567 688 540 678 540 708 c 4
EndSplineSet
Validated: 1
EndChar

StartChar: O
Encoding: 79 79 14
Width: 510
Flags: HW
HStem: 45 75<194.217 327.787> 669 20G<253 264>
VStem: 51 77<183.672 334.313> 373 74<184.777 479.186>
LayerCount: 2
Fore
SplineSet
259 689 m 0
 267 689 280 686 289 686 c 0
 309 686 327 671 364 615 c 0
 418 534 447 466 447 417 c 2
 447 374 l 2
 447 145 391 45 267 45 c 0
 147 45 51 138 51 250 c 0
 51 280 58 310 71 338 c 0
 110 423 123 588 207 663 c 0
 226 680 245 689 259 689 c 0
261 599 m 1
 195 553 177 392 144 319 c 0
 133 296 128 273 128 252 c 0
 128 177 192 120 275 120 c 0
 294 120 305 123 315 130 c 0
 353 157 373 236 373 348 c 0
 373 373 372 390 372 398 c 0
 372 459 317 552 261 599 c 1
EndSplineSet
Validated: 1
EndChar

StartChar: P
Encoding: 80 80 15
Width: 644
Flags: HW
HStem: 636 75<198.433 350.444>
VStem: 123 73<58.2742 327.686 411 613.851> 513 76<478.239 519.15>
LayerCount: 2
Fore
SplineSet
85 410 m 0
 97 410 102 406 120 402 c 1
 120 434 121 464 121 493 c 0
 121 522 122 559 122 580 c 0
 122 644 131 674 190 696 c 0
 215 706 241 711 266 711 c 0
 393 711 537 581 552 567 c 0
 573 547 589 519 589 490 c 0
 589 443 548 423 541 420 c 0
 442 371 334 345 214 338 c 0
 196 337 196 337 196 337 c 0
 196 290 197 244 197 243 c 0
 197 242 199 113 213 94 c 0
 216 90 217 84 217 79 c 0
 217 58 203 36 159 36 c 0
 159 36 123 36 123 205 c 0
 123 233 122 296 114 314 c 0
 102 341 47 334 47 371 c 0
 47 389 59 410 85 410 c 0
513 494 m 0
 510 513 362 636 265 636 c 0
 229 636 200 619 198 614 c 0
 197 611 196 596 196 564 c 2
 196 526 l 2
 196 482 195 455 195 411 c 1
 316 419 417 442 489 476 c 0
 509 486 513 490 513 494 c 0
EndSplineSet
Validated: 1
EndChar

StartChar: Q
Encoding: 81 81 16
Width: 863
Flags: HW
HStem: 88 75<431.014 622.79> 677 108<419.584 500.984>
VStem: 53 76<372.674 558.039> 717 75<235.907 422.313>
LayerCount: 2
Fore
SplineSet
505 396 m 0
 505 431 532 446 552 446 c 0
 576 446 588 424 588 405 c 0
 588 400 587 394 584 390 c 0
 583 389 583 388 583 388 c 0
 583 360 675 230 675 227 c 0
 675 227 677 224 683 218 c 1
 714 259 717 310 717 329 c 0
 717 375 700 421 644 512 c 0
 628 538 617 558 551 614 c 0
 523 638 536 625 536 625 c 0
 488 673 483 677 475 677 c 0
 465 677 358 671 268 650 c 0
 257 648 129 619 129 466 c 0
 129 386 164 332 245 276 c 0
 285 249 421 163 553 163 c 0
 582 163 605 167 624 174 c 1
 575 239 505 340 505 396 c 0
732 160 m 1
 747 141 766 118 781 98 c 0
 792 83 793 84 797 82 c 0
 806 77 813 65 813 51 c 0
 813 30 797 15 777 15 c 0
 743 15 717 58 717 59 c 0
 717 59 712 68 703 79 c 0
 696 87 681 103 672 114 c 1
 641 98 600 88 554 88 c 0
 508 88 372 98 215 205 c 0
 100 284 53 361 53 461 c 0
 53 540 83 687 290 733 c 0
 354 747 405 745 413 751 c 0
 419 756 422 785 450 785 c 0
 487 785 533 735 545 721 c 0
 603 656 648 653 726 525 c 0
 774 445 792 387 792 330 c 0
 792 284 780 213 732 160 c 1
EndSplineSet
Validated: 1
EndChar

StartChar: R
Encoding: 82 82 17
Width: 712
Flags: HW
HStem: 284 118<82.2549 142.906> 644 74<215 354.928> 657 75<215.833 495.521>
VStem: 143 75<104.181 293 423 643.718> 568 75<557.595 605.59>
LayerCount: 2
Fore
SplineSet
643 580 m 0xb8
 643 522 575 483 499 440 c 1
 500 439 502 439 508 436 c 0
 559 411 553 332 602 273 c 0
 619 253 637 241 653 218 c 0
 662 204 665 194 665 185 c 0
 665 163 648 150 630 150 c 0
 617 150 604 157 594 172 c 0
 583 188 565 201 547 222 c 0
 495 284 484 364 468 371 c 0
 464 373 451 374 433 374 c 0
 396 374 372 370 342 361 c 0
 305 350 259 331 218 317 c 1
 218 138 l 2
 218 117 201 101 180 101 c 0
 159 101 143 117 143 138 c 2
 143 293 l 1
 142 293 110 284 91 284 c 0
 66 284 46 301 46 328 c 0
 46 372 98 389 117 396 c 0
 139 403 141 402 143 403 c 2
 143 622 l 2
 143 632 137 642 137 658 c 0
 137 702 185 715 200 717 c 0xd8
 205 718 300 732 373 732 c 0
 452 732 530 716 593 664 c 0
 622 640 643 612 643 580 c 0xb8
356 657 m 0xb8
 292 657 256 648 244 648 c 0
 236 648 222 644 215 644 c 1xd8
 216 638 218 631 218 622 c 2
 218 423 l 1
 348 454 396 465 468 506 c 0
 498 524 568 568 568 579 c 0
 568 586 538 622 482 641 c 0
 451 651 408 657 356 657 c 0xb8
EndSplineSet
Validated: 1
EndChar

StartChar: S
Encoding: 83 83 18
Width: 682
Flags: HW
HStem: 105 75<55.1194 328.65> 544 75<183.619 497>
VStem: 553 76<262.484 295.976>
LayerCount: 2
Fore
SplineSet
494 544 m 2
 476 544 l 2
 444 544 431 545 390 545 c 0
 235 545 166 531 154 500 c 0
 151 491 155 489 167 487 c 0
 249 470 358 390 475 384 c 0
 488 383 629 376 629 280 c 0
 629 218 571 196 553 189 c 0
 384 127 222 105 178 105 c 0
 157 105 135 110 110 110 c 0
 69 110 48 124 48 148 c 0
 48 171 68 185 102 185 c 0
 122 185 165 180 172 180 c 0
 181 180 332 189 499 250 c 0
 515 256 553 269 553 282 c 0
 553 300 484 309 406 314 c 0
 388 315 388 315 342 335 c 0
 187 403 162 411 140 414 c 0
 110 417 75 431 75 487 c 0
 75 610 242 615 302 617 c 0
 340 619 370 619 429 619 c 2
 492 619 l 2
 493 619 496 618 496 618 c 0
 497 618 521 616 521 580 c 0
 521 555 509 548 494 544 c 2
EndSplineSet
Validated: 1
EndChar

StartChar: T
Encoding: 84 84 19
Width: 831
Flags: HW
HStem: 621 74<49.8281 351.178 424 780.172>
VStem: 349 74<47.4062 165.132 454.008 621> 356 75<52.1746 619.53>
LayerCount: 2
Fore
SplineSet
356 445 m 0xa0
 356 536 354 590 348 621 c 1
 84 621 l 2
 63 621 47 637 47 658 c 0
 47 679 63 695 84 695 c 2
 746 695 l 2
 767 695 783 679 783 658 c 0
 783 637 767 621 746 621 c 2
 424 621 l 1
 426 606 431 560 431 430 c 0xa0
 431 300 426 170 425 147 c 0
 425 127 423 96 423 87 c 0
 423 62 408 44 386 44 c 0
 364 44 349 63 349 91 c 0xc0
 349 98 350 129 350 142 c 0
 351 173 356 301 356 445 c 0xa0
EndSplineSet
Validated: 1
EndChar

StartChar: U
Encoding: 85 85 20
Width: 650
Flags: HW
HStem: 81 74<189.741 379.431> 627 20G<524.5 547.5>
VStem: 64 75<216.56 354 372 633.819> 499 75<409.144 643.344> 512 75<276.653 611.007>
LayerCount: 2
Fore
SplineSet
64 374 m 2
 64 600 l 2
 64 621 81 637 102 637 c 0
 123 637 139 621 139 600 c 2
 139 372 l 2
 139 342 139 313 139 286 c 0
 139 259 139 250 150 233 c 0
 154 227 162 215 175 197 c 0
 195 169 196 166 216 161 c 0
 231 157 245 155 261 155 c 0
 290 155 454 162 498 295 c 0xf0
 508 323 512 356 512 405 c 0xe8
 512 494 499 545 499 585 c 0
 499 627 513 647 536 647 c 0
 559 647 574 627 574 590 c 0xf0
 574 556 587 486 587 403 c 0xe8
 587 340 586 163 387 101 c 0
 362 93 315 81 263 81 c 0
 199 81 148 99 124 138 c 0
 120 144 119 144 109 159 c 0
 67 219 64 247 64 287 c 0
 64 374 l 2
EndSplineSet
Validated: 1
EndChar

StartChar: V
Encoding: 86 86 21
Width: 709
Flags: HW
HStem: 3 499<79 243>
VStem: 592 69<640.506 687.827>
LayerCount: 2
Fore
SplineSet
50 471 m 0
 50 498 72 502 80 502 c 0
 144 502 216 225 242 110 c 0
 249 81 247 87 249 83 c 1
 249 91 328 140 406 295 c 0
 437 357 529 557 539 579 c 0
 554 611 578 659 592 677 c 1
 592 678 l 1
 595 684 608 691 623 691 c 0
 635 691 648 686 656 671 c 0
 659 665 661 657 661 649 c 0
 661 639 658 610 639 592 c 0
 601 556 534 382 478 270 c 0
 431 178 383 111 317 46 c 0
 288 18 269 3 242 3 c 0
 190 3 177 60 172 84 c 0
 140 224 98 356 68 414 c 0
 56 437 50 457 50 471 c 0
EndSplineSet
Validated: 1
EndChar

StartChar: W
Encoding: 87 87 22
Width: 923
Flags: HW
HStem: 708 20G<74.5 95.5 828 847>
VStem: 47 75<621.05 724.645> 244 74<368 432.97> 598 75<189 286.128> 800 74<607.306 670.534>
LayerCount: 2
Fore
SplineSet
319 236 m 0
 319 220 319 173 278 173 c 0
 240 173 224 215 188 307 c 0
 110 504 109 503 91 548 c 0
 64 612 47 659 47 690 c 2
 47 691 l 2
 47 711 64 728 85 728 c 0
 106 728 122 711 122 696 c 0
 122 671 171 550 172 549 c 0
 173 547 237 388 244 368 c 1
 246 414 252 531 319 531 c 0
 362 531 385 484 385 483 c 2
 385 482 l 2
 386 481 386 480 387 480 c 1
 387 479 l 1
 388 479 l 1
 410 448 493 318 518 286 c 0
 524 277 562 225 598 189 c 1
 598 234 607 292 666 406 c 0
 675 423 684 441 711 495 c 0
 729 533 747 568 793 627 c 0
 801 637 799 634 800 641 c 0
 803 660 819 674 837 674 c 0
 857 674 874 658 874 624 c 0
 874 581 846 602 700 306 c 0
 691 287 673 250 673 190 c 2
 673 183 l 2
 673 179 673 174 673 174 c 0
 673 134 664 93 627 93 c 0
 552 93 445 256 408 312 c 0
 359 388 342 412 326 436 c 1
 326 435 318 398 318 343 c 0
 318 324 319 271 319 270 c 2
 319 270 319 252 319 236 c 0
EndSplineSet
Validated: 1
EndChar

StartChar: X
Encoding: 88 88 23
Width: 773
Flags: HW
HStem: -21 80<48.3194 108.903> 706 40G<152.5 166.5 605.5 623>
VStem: 578 74<693.812 762.563>
LayerCount: 2
Fore
SplineSet
614 766 m 0
 632 766 652 753 652 729 c 0
 652 688 594 620 590 615 c 0
 580 604 554 567 506 480 c 0
 477 426 473 416 473 400 c 0
 473 384 477 369 484 354 c 0
 502 313 455 383 667 86 c 0
 693 50 693 50 693 50 c 0
 721 22 728 9 728 -4 c 0
 728 -22 713 -38 693 -38 c 0
 668 -38 642 -11 602 47 c 0
 579 80 536 146 405 308 c 1
 240 50 130 15 112 -9 c 0
 106 -16 94 -21 82 -21 c 0
 61 -21 43 -4 43 24 c 0
 43 24 43 43 79 61 c 0
 171 107 343 316 343 376 c 0
 343 383 341 388 338 392 c 0
 332 398 182 575 151 621 c 0
 137 641 129 661 129 675 c 0
 129 697 147 706 159 706 c 0
 175 706 194 691 215 660 c 0
 248 612 338 510 376 462 c 0
 395 438 397 438 397 437 c 1
 422 479 467 575 519 647 c 0
 536 670 541 673 556 694 c 0
 566 709 575 724 578 736 c 0
 583 754 597 766 614 766 c 0
EndSplineSet
Validated: 1
EndChar

StartChar: Y
Encoding: 89 89 24
Width: 763
Flags: HW
HStem: 770 20G<69 94.5 674.5 694.5>
VStem: 359 74<-10.5959 271.644> 645 75<767.094 840.972>
LayerCount: 2
Fore
SplineSet
41 753 m 4
 41 774 58 790 79 790 c 4
 109 790 144 758 173 715 c 4
 188 692 203 676 261 582 c 4
 350 436 373 418 382 405 c 4
 385 401 391 394 399 386 c 5
 551 620 577 668 611 740 c 4
 633 788 645 811 646 819 c 4
 647 830 665 845 684 845 c 4
 705 845 720 828 720 805 c 4
 720 797 718 786 711 775 c 4
 709 771 707 769 707 768 c 4
 706 766 661 671 617 589 c 4
 608 573 608 573 501 406 c 4
 451 328 434 301 412 301 c 5
 420 281 435 244 435 152 c 4
 435 152 435 140 435 129 c 4
 434 105 433 94 433 80 c 6
 433 60 l 6
 433 33 433 -50 389 -50 c 4
 371 -50 351 -37 351 -3 c 4
 351 19 359 -18 359 71 c 6
 359 90 l 6
 359 112 360 165 360 175 c 4
 360 185 359 201 357 215 c 6
 357 216 l 6
 354 237 351 250 348 260 c 4
 345 268 343 272 336 273 c 4
 322 276 309 294 309 311 c 4
 309 326 320 341 335 346 c 5
 335 346 323 360 320 364 c 5
 319 364 l 6
 317 366 318 366 308 378 c 4
 228 473 204 550 118 663 c 4
 88 702 75 714 64 718 c 4
 50 723 41 737 41 753 c 4
EndSplineSet
Validated: 1
EndChar

StartChar: Z
Encoding: 90 90 25
Width: 904
Flags: HW
HStem: 97 75<387.239 745.1> 118 75<217.688 561.046> 598 75<61.0988 662.136>
LayerCount: 2
Fore
SplineSet
388 598 m 0x60
 271 598 134 596 118 596 c 0
 79 596 56 608 56 633 c 0
 56 659 80 671 117 671 c 0
 132 671 286 673 381 673 c 0
 532 673 708 668 790 648 c 0
 849 633 856 611 856 600 c 0
 856 573 817 551 816 551 c 2
 815 550 l 1
 814 550 l 1
 792 536 760 518 734 504 c 0
 546 400 323 271 216 184 c 1
 246 190 281 193 322 193 c 0x60
 432 193 531 172 633 172 c 0
 633 172 637 172 641 172 c 2
 645 172 l 1
 649 171 l 1
 650 171 l 2
 656 171 789 145 816 127 c 0
 825 121 832 110 832 97 c 0
 832 77 815 60 795 60 c 0
 788 60 781 62 778 63 c 0
 766 70 698 87 654 94 c 0
 642 96 640 97 622 97 c 0xa0
 541 97 419 118 305 118 c 0
 223 118 202 107 156 83 c 0
 102 55 102 55 102 55 c 0
 66 55 52 75 52 96 c 0
 52 96 52 97 52 99 c 0
 53 103 55 106 56 108 c 0
 56 110 57 112 59 115 c 2
 69 132 l 2
 128 227 205 275 297 333 c 0
 484 450 518 470 658 547 c 0
 715 579 706 574 717 580 c 1
 716 580 617 594 606 594 c 2
 604 594 l 2
 540 597 471 598 388 598 c 0x60
EndSplineSet
Validated: 1
EndChar

StartChar: a
Encoding: 97 97 26
Width: 560
Flags: HW
HStem: 357 75<89.6039 152> 716 20G<312.5 335>
VStem: 45 75<26.3735 117.283> 433 76<78.7192 142.711>
LayerCount: 2
Fore
SplineSet
363 402 m 1
 356 423 356 423 304 598 c 1
 288 538 271 479 252 420 c 1
 279 416 328 407 363 402 c 1
505 135 m 0
 505 116 509 121 509 110 c 0
 509 89 493 74 473 74 c 0
 454 74 439 88 433 110 c 0
 426 138 435 175 421 225 c 0
 417 237 403 281 389 324 c 1
 360 327 334 331 299 337 c 0
 252 344 241 346 228 348 c 1
 207 287 194 253 150 142 c 0
 121 68 120 66 120 61 c 0
 120 40 103 23 82 23 c 0
 61 23 45 40 45 62 c 0
 45 99 90 182 152 357 c 1
 144 357 133 357 133 357 c 0
 104 357 86 373 86 395 c 0
 86 417 105 432 134 432 c 0
 141 432 161 431 177 430 c 1
 223 570 242 673 263 708 c 0
 276 728 296 736 311 736 c 0
 341 736 353 702 378 614 c 0
 414 488 444 396 460 396 c 0
 466 396 483 380 483 359 c 0
 483 347 477 335 467 328 c 1
 503 217 506 205 506 180 c 0
 506 165 505 144 505 135 c 0
EndSplineSet
Validated: 1
EndChar

StartChar: s
Encoding: 115 115 27
Width: 682
Flags: HW
HStem: 105 75<55.1194 328.65> 544 75<183.619 497>
VStem: 553 76<262.484 295.976>
LayerCount: 2
Fore
SplineSet
494 544 m 2
 476 544 l 2
 444 544 431 545 390 545 c 0
 235 545 166 531 154 500 c 0
 151 491 155 489 167 487 c 0
 249 470 358 390 475 384 c 0
 488 383 629 376 629 280 c 0
 629 218 571 196 553 189 c 0
 384 127 222 105 178 105 c 0
 157 105 135 110 110 110 c 0
 69 110 48 124 48 148 c 0
 48 171 68 185 102 185 c 0
 122 185 165 180 172 180 c 0
 181 180 332 189 499 250 c 0
 515 256 553 269 553 282 c 0
 553 300 484 309 406 314 c 0
 388 315 388 315 342 335 c 0
 187 403 162 411 140 414 c 0
 110 417 75 431 75 487 c 0
 75 610 242 615 302 617 c 0
 340 619 370 619 429 619 c 2
 492 619 l 2
 493 619 496 618 496 618 c 0
 497 618 521 616 521 580 c 0
 521 555 509 548 494 544 c 2
EndSplineSet
Validated: 1
EndChar

StartChar: d
Encoding: 100 100 28
Width: 661
Flags: HW
HStem: 111 74<140.613 371.272> 516 75<140.521 325.266>
VStem: 66 74<181 508.673> 528 74<228.793 404.313>
LayerCount: 2
Fore
SplineSet
199 516 m 0
 170 516 163 505 149 505 c 0
 145 505 143 506 140 506 c 1
 140 181 l 1
 145 184 151 185 183 185 c 0
 215 185 224 186 342 203 c 0
 506 227 473 223 505 226 c 0
 522 227 528 228 528 256 c 0
 528 281 523 309 523 332 c 0
 523 343 522 403 485 430 c 2
 464 448 l 2
 447 465 261 516 199 516 c 0
598 329 m 0
 598 305 602 309 602 277 c 0
 602 178 564 156 496 149 c 0
 429 143 276 111 182 111 c 0
 149 111 134 115 126 127 c 1
 120 122 112 119 103 119 c 0
 82 119 66 135 66 156 c 2
 66 559 l 2
 66 580 82 597 104 597 c 0
 124 597 130 583 136 583 c 0
 138 583 138 584 140 585 c 0
 150 590 174 591 185 591 c 0
 263 591 471 544 526 493 c 0
 534 485 546 477 553 471 c 0
 582 445 598 378 598 329 c 0
EndSplineSet
Validated: 1
EndChar

StartChar: l
Encoding: 108 108 29
Width: 543
Flags: HW
HStem: 78 75<130.114 490.525> 663 20G<208.5 233> 663 20G<208.5 233>
VStem: 183 75<481.496 679.387>
LayerCount: 2
Fore
SplineSet
100 53 m 0xd0
 73 53 48 73 48 108 c 0
 48 132 60 171 62 177 c 0
 66 187 109 283 119 327 c 0
 128 369 183 530 183 618 c 0
 183 661 196 683 220 683 c 0
 244 683 258 661 258 614 c 0
 258 553 236 469 190 301 c 0
 180 264 180 264 174 249 c 0
 165 228 163 227 154 208 c 0
 148 196 146 190 128 136 c 1
 173 148 224 153 275 153 c 0
 321 153 441 149 454 149 c 0
 477 149 496 136 496 112 c 0
 496 88 477 74 440 74 c 0
 420 74 336 78 284 78 c 0
 154 78 131 53 100 53 c 0xd0
EndSplineSet
Validated: 1
EndChar

StartChar: b
Encoding: 98 98 30
Width: 604
Flags: HW
HStem: -5 74<146.962 261.922> 310 75<214 319.597> 642 74<165.495 407.458>
VStem: 71 75<84.1406 619.987> 438 75<479.104 612.681>
LayerCount: 2
Fore
SplineSet
329 716 m 0
 376 716 513 702 513 555 c 0
 513 480 478 417 414 373 c 1
 474 367 504 346 520 273 c 0
 533 215 556 184 556 149 c 0
 556 106 520 93 497 84 c 0
 411 50 344 38 263 11 c 0
 242 4 213 -5 179 -5 c 0
 154 -5 108 0 93 29 c 0
 88 39 71 81 71 92 c 2
 71 537 l 2
 71 553 67 574 67 601 c 0
 67 652 82 668 118 683 c 0
 135 690 148 693 198 701 c 0
 245 708 293 716 329 716 c 0
438 565 m 0
 438 576 437 642 322 642 c 0
 297 642 271 639 246 633 c 0
 205 624 165 622 146 614 c 0
 142 612 144 612 143 610 c 0
 142 607 142 599 142 591 c 0
 142 583 142 582 144 563 c 2
 144 562 l 2
 145 552 146 543 146 537 c 2
 146 92 l 2
 146 90 145 87 152 76 c 0
 155 71 157 69 174 69 c 0
 215 69 217 81 317 106 c 0
 339 112 477 147 477 162 c 0
 477 164 474 175 471 180 c 0
 470 182 468 184 465 191 c 0
 447 229 447 284 428 294 c 0
 422 297 407 299 384 299 c 0
 329 299 282 310 220 310 c 2
 214 310 l 1
 214 385 l 1
 294 385 438 434 438 565 c 0
EndSplineSet
Validated: 1
EndChar

StartChar: c
Encoding: 99 99 31
Width: 659
Flags: HW
HStem: 69 75<319.34 497.38> 539 74<535.222 595.497> 591 75<287.841 491.41>
VStem: 54 75<235.595 417.627>
LayerCount: 2
Fore
SplineSet
567 248 m 0xb0
 588 248 608 233 608 218 c 0
 608 210 602 163 589 141 c 0
 584 131 576 123 486 78 c 0
 486 78 468 69 429 69 c 0
 353 69 268 104 257 108 c 0
 255 109 249 112 209 125 c 0
 130 150 54 177 54 315 c 0
 54 508 203 666 390 666 c 0xb0
 416 666 443 663 500 650 c 0
 515 646 527 643 557 621 c 0
 567 614 567 613 570 613 c 0
 586 610 599 595 599 577 c 0
 599 556 582 539 561 539 c 0xd0
 532 539 504 571 487 575 c 0
 483 576 428 591 381 591 c 0
 244 591 129 466 129 304 c 0
 129 242 146 221 258 187 c 0
 274 182 280 180 292 176 c 1
 293 175 l 1
 355 154 386 144 413 144 c 0
 465 144 526 180 528 187 c 0
 529 189 528 193 531 208 c 0
 534 221 539 248 567 248 c 0xb0
EndSplineSet
Validated: 1
EndChar

StartChar: e
Encoding: 101 101 32
Width: 722
Flags: HW
HStem: 98 75<225.653 481.56> 107 75<321.401 531.396> 313 75<54.3593 150 225 421.403> 323 75<225 533.47> 472 74<57.4531 150 225 359.051> 514 75<353.012 668.803>
VStem: 150 75<179.078 315 391 473 553 628.645>
LayerCount: 2
Fore
SplineSet
278 98 m 0x82
 278 98 150 98 150 183 c 2
 150 315 l 1
 89 313 l 2
 88 313 88 313 88 313 c 0
 67 313 51 330 51 351 c 0
 51 371 66 387 87 388 c 2
 150 389 l 1
 150 473 l 1
 139 472 123 472 123 472 c 0
 75 472 54 485 54 509 c 0
 54 532 73 546 110 546 c 0xaa
 110 546 110 546 150 548 c 1
 150 594 l 2
 150 615 167 632 188 632 c 0
 209 632 225 615 225 594 c 2
 225 553 l 1
 318 561 505 589 593 589 c 0
 648 589 673 578 673 552 c 0
 673 526 648 514 594 514 c 0
 555 514 489 508 367 493 c 1
 366 493 l 1
 320 488 272 482 225 478 c 1
 225 391 l 1
 499 398 l 2
 500 398 500 398 500 398 c 0
 521 398 537 382 537 361 c 0
 537 341 522 324 501 323 c 2
 225 316 l 1
 225 186 l 1
 238 180 260 173 320 173 c 0x96
 370 173 436 178 471 181 c 0
 483 182 485 182 485 182 c 0
 517 182 535 166 535 144 c 0
 535 122 517 107 489 107 c 0x42
 468 107 381 98 278 98 c 0x82
EndSplineSet
Validated: 1
EndChar

StartChar: f
Encoding: 102 102 33
Width: 597
Flags: HW
HStem: 357 75<180 434.819> 588 75<148 505.455> 606 75<264.606 545.57> 650 20G<100.5 117>
VStem: 105 75<55.1806 357 432 551.172>
LayerCount: 2
Fore
SplineSet
509 606 m 0xa8
 484 606 455 588 415 588 c 2
 336 588 l 2xc8
 335 588 267 586 218 586 c 0
 159 586 149 589 148 589 c 1
 172 551 180 524 180 487 c 2
 180 432 l 1
 401 432 l 2
 422 432 438 415 438 394 c 0
 438 373 422 357 401 357 c 2
 180 357 l 1
 180 89 l 2
 180 68 163 52 142 52 c 0
 121 52 105 68 105 89 c 2
 105 358 l 1
 89 362 77 377 77 394 c 0
 77 411 89 426 105 430 c 1
 105 487 l 2
 105 511 102 522 72 567 c 0
 72 567 50 600 50 627 c 0
 50 667 98 670 112 670 c 0x98
 131 670 147 665 148 665 c 0
 149 665 153 664 154 664 c 0
 156 664 164 661 216 661 c 0
 258 661 335 663 336 663 c 2
 415 663 l 2xc8
 444 663 474 681 504 681 c 0
 532 681 549 666 549 644 c 0
 549 622 532 606 509 606 c 0xa8
EndSplineSet
Validated: 1
EndChar

StartChar: g
Encoding: 103 103 34
Width: 642
Flags: HW
HStem: 57 75<265.945 418.418> 263 75<201.981 468.817> 286 75<299.641 501.265> 601 75<291.51 441.933>
VStem: 54 75<270.218 455.736> 502 75<225.152 317.499> 512 74<460.448 535.502>
LayerCount: 2
Fore
SplineSet
482 361 m 0xbc
 523 361 577 349 577 285 c 0xbc
 577 244 554 200 533 170 c 0
 528 162 525 158 521 151 c 0
 486 95 416 57 345 57 c 0
 204 57 102 204 97 211 c 0
 69 252 54 312 54 367 c 0
 54 424 70 475 99 513 c 0
 105 522 221 676 367 676 c 0
 491 676 586 564 586 501 c 0
 586 494 585 457 551 457 c 0
 530 457 514 472 512 491 c 0xba
 508 528 447 601 369 601 c 0
 285 601 195 517 162 473 c 0
 140 443 129 411 129 367 c 0
 129 289 163 232 225 182 c 0
 280 138 316 132 340 132 c 0
 390 132 438 158 471 210 c 0
 477 220 502 261 502 276 c 0
 502 282 498 286 479 286 c 0xbc
 432 286 371 263 284 263 c 0
 222 263 198 275 198 300 c 0
 198 325 222 338 283 338 c 0xdc
 364 338 425 361 482 361 c 0xbc
EndSplineSet
Validated: 1
EndChar

StartChar: h
Encoding: 104 104 35
Width: 640
Flags: HW
HStem: 312 75<152.183 493> 665 20G<84 110 513 534>
VStem: 60 75<388.062 680.244> 113 75<58.6562 230.555> 493 68<387 671.819> 500 75<66.3593 312>
LayerCount: 2
Fore
SplineSet
152 313 m 5xc4
 158 259 188 158 188 109 c 4
 188 75 174 55 151 55 c 4
 128 55 113 75 113 113 c 4xd4
 113 161 89 210 75 326 c 4
 67 398 60 516 60 579 c 4
 60 657 71 685 97 685 c 4
 123 685 135 657 135 579 c 4
 135 534 139 446 144 384 c 5
 148 386 153 387 159 387 c 6
 493 387 l 5
 487 636 l 6
 487 637 487 637 487 637 c 0
 487 658 503 675 524 675 c 4
 544 675 560 659 561 638 c 6xe8
 575 101 l 6
 575 100 575 100 575 100 c 0
 575 79 559 63 538 63 c 4
 518 63 501 78 500 99 c 6
 495 312 l 5
 159 312 l 6
 157 312 154 313 152 313 c 5xc4
EndSplineSet
Validated: 1
EndChar

StartChar: i
Encoding: 105 105 36
Width: 231
Flags: HW
HStem: 13 21G<87 106.5> 778 20G<97.5 111> 778 20G<97.5 111>
VStem: 59 80<17.977 80.5008 695.411 793.154> 68 80<311.391 656.24> 85 80<110.641 723.734>
LayerCount: 2
Fore
SplineSet
168 658 m 0xd0
 168 621 148 549 148 482 c 0
 148 482 148 471 148 468 c 0
 148 465 148 464 148 464 c 0xc8
 148 411 165 358 165 297 c 0
 165 221 149 171 149 170 c 2
 135 39 l 1
 129 24 115 13 98 13 c 0
 76 13 58 31 58 53 c 0
 58 58 59 62 61 67 c 2
 74 196 l 1
 81 226 85 250 85 266 c 0
 85 274 84 284 84 288 c 0
 84 292 85 304 85 315 c 0xc4
 85 360 68 412 68 469 c 0
 68 479 l 0xc8
 68 547 88 639 88 657 c 0
 88 678 59 707 59 749 c 0
 59 796 95 798 102 798 c 0
 122 798 140 780 140 760 c 0
 140 755 139 753 139 750 c 0
 139 733 168 702 168 658 c 0xd0
EndSplineSet
Validated: 1
EndChar

StartChar: j
Encoding: 106 106 37
Width: 834
Flags: HW
HStem: -7 75<246.588 372.828> 582 75<110.181 387 462 781.645>
VStem: 51 74<190.964 330.281> 387 75<87.7551 582>
LayerCount: 2
Fore
SplineSet
462 150 m 2
 462 81 439 -7 324 -7 c 0
 183 -7 51 126 51 268 c 0
 51 312 64 334 89 334 c 0
 112 334 125 314 125 275 c 0
 125 167 225 68 336 68 c 0
 358 68 366 72 374 87 c 0
 382 103 387 126 387 150 c 2
 387 582 l 1
 144 582 l 2
 123 582 107 599 107 620 c 0
 107 641 123 657 144 657 c 2
 747 657 l 2
 768 657 785 641 785 620 c 0
 785 599 768 582 747 582 c 2
 462 582 l 1
 462 150 l 2
EndSplineSet
Validated: 1
EndChar

StartChar: k
Encoding: 107 107 38
Width: 806
Flags: HW
HStem: 117 75<652.286 753.526> 244 74<48.2555 149.812> 725 20G<210.5 231.5 656 673>
VStem: 183 75<22.1806 269 401 741.645>
LayerCount: 2
Fore
SplineSet
183 269 m 1
 156 258 114 244 88 244 c 0
 62 244 45 258 45 280 c 0
 45 302 61 316 86 318 c 0
 101 319 127 326 144 335 c 0
 150 338 151 339 151 344 c 0
 151 363 165 378 183 381 c 1
 183 707 l 2
 183 728 200 745 221 745 c 0
 242 745 258 728 258 707 c 2
 258 401 l 1
 260 402 400 515 432 535 c 0
 441 541 500 576 554 604 c 0
 583 619 610 634 623 643 c 0
 637 652 650 657 662 657 c 0
 684 657 695 639 695 623 c 0
 695 600 673 583 625 557 c 0
 574 530 481 486 378 401 c 0
 363 388 351 379 323 357 c 1
 362 343 400 326 503 270 c 0
 542 249 548 245 658 212 c 0
 690 202 690 202 700 198 c 0
 746 183 760 168 760 151 c 0
 760 138 751 117 737 117 c 0
 720 117 573 149 469 204 c 0
 465 206 457 210 442 218 c 0
 346 270 305 287 258 298 c 1
 258 56 l 2
 258 35 242 19 221 19 c 0
 200 19 183 35 183 56 c 2
 183 269 l 1
EndSplineSet
Validated: 1
EndChar

StartChar: m
Encoding: 109 109 39
Width: 861
Flags: HW
HStem: 331 75<352.396 455.31> 666 20G<95 133.5>
VStem: 69 75<124.355 566>
LayerCount: 2
Fore
SplineSet
790 53 m 4
 723 53 670 334 653 604 c 5
 648 604 640 585 639 582 c 4
 637 576 549 331 399 331 c 4
 358 331 284 349 166 531 c 4
 152 553 148 560 144 566 c 5
 144 159 l 6
 144 138 127 121 106 121 c 4
 85 121 69 138 69 159 c 6
 69 602 l 6
 69 624 69 686 122 686 c 4
 146 686 163 673 222 584 c 4
 290 482 351 406 403 406 c 4
 458 406 521 492 559 579 c 4
 563 589 564 592 565 594 c 4
 569 601 565 600 570 609 c 4
 580 629 631 693 674 693 c 4
 702 693 726 666 734 534 c 4
 741 418 768 249 799 157 c 4
 809 127 813 105 813 91 c 4
 813 81 811 53 790 53 c 4
EndSplineSet
Validated: 1
EndChar

StartChar: n
Encoding: 110 110 40
Width: 766
Flags: HW
HStem: 727 20G<566 590.5>
VStem: 70 75<24.1806 551>
LayerCount: 2
Fore
SplineSet
540 708 m 4
 540 733 558 747 575 747 c 4
 607 747 642 697 651 591 c 4
 655 547 654 501 664 445 c 4
 666 433 667 432 694 298 c 4
 701 260 l 4
 710 230 715 199 715 176 c 4
 715 165 714 155 710 148 c 4
 706 140 692 124 674 124 c 4
 640 124 607 177 592 202 c 4
 524 311 502 348 338 443 c 4
 267 484 210 521 171 540 c 4
 159 546 151 549 145 551 c 5
 145 58 l 6
 145 37 128 21 107 21 c 4
 86 21 70 37 70 58 c 6
 70 573 l 6
 70 611 97 630 127 630 c 4
 174 630 247 585 274 568 c 4
 301 551 301 550 334 530 c 4
 576 384 612 307 615 307 c 5
 594 402 591 417 586 470 c 4
 567 688 540 678 540 708 c 4
EndSplineSet
Validated: 1
EndChar

StartChar: o
Encoding: 111 111 41
Width: 510
Flags: HW
HStem: 45 75<194.217 327.787> 669 20G<253 264>
VStem: 51 77<183.672 334.313> 373 74<184.777 479.186>
LayerCount: 2
Fore
SplineSet
259 689 m 0
 267 689 280 686 289 686 c 0
 309 686 327 671 364 615 c 0
 418 534 447 466 447 417 c 2
 447 374 l 2
 447 145 391 45 267 45 c 0
 147 45 51 138 51 250 c 0
 51 280 58 310 71 338 c 0
 110 423 123 588 207 663 c 0
 226 680 245 689 259 689 c 0
261 599 m 1
 195 553 177 392 144 319 c 0
 133 296 128 273 128 252 c 0
 128 177 192 120 275 120 c 0
 294 120 305 123 315 130 c 0
 353 157 373 236 373 348 c 0
 373 373 372 390 372 398 c 0
 372 459 317 552 261 599 c 1
EndSplineSet
Validated: 1
EndChar

StartChar: p
Encoding: 112 112 42
Width: 644
Flags: HW
HStem: 636 75<198.433 350.444>
VStem: 123 73<58.2742 327.686 411 613.851> 513 76<478.239 519.15>
LayerCount: 2
Fore
SplineSet
85 410 m 0
 97 410 102 406 120 402 c 1
 120 434 121 464 121 493 c 0
 121 522 122 559 122 580 c 0
 122 644 131 674 190 696 c 0
 215 706 241 711 266 711 c 0
 393 711 537 581 552 567 c 0
 573 547 589 519 589 490 c 0
 589 443 548 423 541 420 c 0
 442 371 334 345 214 338 c 0
 196 337 196 337 196 337 c 0
 196 290 197 244 197 243 c 0
 197 242 199 113 213 94 c 0
 216 90 217 84 217 79 c 0
 217 58 203 36 159 36 c 0
 159 36 123 36 123 205 c 0
 123 233 122 296 114 314 c 0
 102 341 47 334 47 371 c 0
 47 389 59 410 85 410 c 0
513 494 m 0
 510 513 362 636 265 636 c 0
 229 636 200 619 198 614 c 0
 197 611 196 596 196 564 c 2
 196 526 l 2
 196 482 195 455 195 411 c 1
 316 419 417 442 489 476 c 0
 509 486 513 490 513 494 c 0
EndSplineSet
Validated: 1
EndChar

StartChar: q
Encoding: 113 113 43
Width: 863
Flags: HW
HStem: 88 75<431.014 622.79> 677 108<419.584 500.984>
VStem: 53 76<372.674 558.039> 717 75<235.907 422.313>
LayerCount: 2
Fore
SplineSet
505 396 m 0
 505 431 532 446 552 446 c 0
 576 446 588 424 588 405 c 0
 588 400 587 394 584 390 c 0
 583 389 583 388 583 388 c 0
 583 360 675 230 675 227 c 0
 675 227 677 224 683 218 c 1
 714 259 717 310 717 329 c 0
 717 375 700 421 644 512 c 0
 628 538 617 558 551 614 c 0
 523 638 536 625 536 625 c 0
 488 673 483 677 475 677 c 0
 465 677 358 671 268 650 c 0
 257 648 129 619 129 466 c 0
 129 386 164 332 245 276 c 0
 285 249 421 163 553 163 c 0
 582 163 605 167 624 174 c 1
 575 239 505 340 505 396 c 0
732 160 m 1
 747 141 766 118 781 98 c 0
 792 83 793 84 797 82 c 0
 806 77 813 65 813 51 c 0
 813 30 797 15 777 15 c 0
 743 15 717 58 717 59 c 0
 717 59 712 68 703 79 c 0
 696 87 681 103 672 114 c 1
 641 98 600 88 554 88 c 0
 508 88 372 98 215 205 c 0
 100 284 53 361 53 461 c 0
 53 540 83 687 290 733 c 0
 354 747 405 745 413 751 c 0
 419 756 422 785 450 785 c 0
 487 785 533 735 545 721 c 0
 603 656 648 653 726 525 c 0
 774 445 792 387 792 330 c 0
 792 284 780 213 732 160 c 1
EndSplineSet
Validated: 1
EndChar

StartChar: r
Encoding: 114 114 44
Width: 712
Flags: HW
HStem: 284 118<82.2549 142.906> 644 74<215 354.928> 657 75<215.833 495.521>
VStem: 143 75<104.181 293 423 643.718> 568 75<557.595 605.59>
LayerCount: 2
Fore
SplineSet
643 580 m 0xb8
 643 522 575 483 499 440 c 1
 500 439 502 439 508 436 c 0
 559 411 553 332 602 273 c 0
 619 253 637 241 653 218 c 0
 662 204 665 194 665 185 c 0
 665 163 648 150 630 150 c 0
 617 150 604 157 594 172 c 0
 583 188 565 201 547 222 c 0
 495 284 484 364 468 371 c 0
 464 373 451 374 433 374 c 0
 396 374 372 370 342 361 c 0
 305 350 259 331 218 317 c 1
 218 138 l 2
 218 117 201 101 180 101 c 0
 159 101 143 117 143 138 c 2
 143 293 l 1
 142 293 110 284 91 284 c 0
 66 284 46 301 46 328 c 0
 46 372 98 389 117 396 c 0
 139 403 141 402 143 403 c 2
 143 622 l 2
 143 632 137 642 137 658 c 0
 137 702 185 715 200 717 c 0xd8
 205 718 300 732 373 732 c 0
 452 732 530 716 593 664 c 0
 622 640 643 612 643 580 c 0xb8
356 657 m 0xb8
 292 657 256 648 244 648 c 0
 236 648 222 644 215 644 c 1xd8
 216 638 218 631 218 622 c 2
 218 423 l 1
 348 454 396 465 468 506 c 0
 498 524 568 568 568 579 c 0
 568 586 538 622 482 641 c 0
 451 651 408 657 356 657 c 0xb8
EndSplineSet
Validated: 1
EndChar

StartChar: t
Encoding: 116 116 45
Width: 831
Flags: HW
HStem: 621 74<49.8281 351.178 424 780.172>
VStem: 349 74<47.4062 165.132 454.008 621> 356 75<52.1746 619.53>
LayerCount: 2
Fore
SplineSet
356 445 m 0xa0
 356 536 354 590 348 621 c 1
 84 621 l 2
 63 621 47 637 47 658 c 0
 47 679 63 695 84 695 c 2
 746 695 l 2
 767 695 783 679 783 658 c 0
 783 637 767 621 746 621 c 2
 424 621 l 1
 426 606 431 560 431 430 c 0xa0
 431 300 426 170 425 147 c 0
 425 127 423 96 423 87 c 0
 423 62 408 44 386 44 c 0
 364 44 349 63 349 91 c 0xc0
 349 98 350 129 350 142 c 0
 351 173 356 301 356 445 c 0xa0
EndSplineSet
Validated: 1
EndChar

StartChar: u
Encoding: 117 117 46
Width: 650
Flags: HW
HStem: 81 74<189.741 379.431> 627 20G<524.5 547.5>
VStem: 64 75<216.56 354 372 633.819> 499 75<409.144 643.344> 512 75<276.653 611.007>
LayerCount: 2
Fore
SplineSet
64 374 m 6
 64 600 l 6
 64 621 81 637 102 637 c 4
 123 637 139 621 139 600 c 6
 139 372 l 6
 139 342 139 313 139 286 c 4
 139 259 139 250 150 233 c 4
 154 227 162 215 175 197 c 4
 195 169 196 166 216 161 c 4
 231 157 245 155 261 155 c 4
 290 155 454 162 498 295 c 4xf0
 508 323 512 356 512 405 c 4xe8
 512 494 499 545 499 585 c 4
 499 627 513 647 536 647 c 4
 559 647 574 627 574 590 c 4xf0
 574 556 587 486 587 403 c 4xe8
 587 340 586 163 387 101 c 4
 362 93 315 81 263 81 c 4
 199 81 148 99 124 138 c 4
 120 144 119 144 109 159 c 4
 67 219 64 247 64 287 c 4
 64 374 l 6
EndSplineSet
Validated: 1
EndChar

StartChar: v
Encoding: 118 118 47
Width: 709
Flags: HW
HStem: 3 499<79 243>
VStem: 592 69<640.506 687.827>
LayerCount: 2
Fore
SplineSet
50 471 m 0
 50 498 72 502 80 502 c 0
 144 502 216 225 242 110 c 0
 249 81 247 87 249 83 c 1
 249 91 328 140 406 295 c 0
 437 357 529 557 539 579 c 0
 554 611 578 659 592 677 c 1
 592 678 l 1
 595 684 608 691 623 691 c 0
 635 691 648 686 656 671 c 0
 659 665 661 657 661 649 c 0
 661 639 658 610 639 592 c 0
 601 556 534 382 478 270 c 0
 431 178 383 111 317 46 c 0
 288 18 269 3 242 3 c 0
 190 3 177 60 172 84 c 0
 140 224 98 356 68 414 c 0
 56 437 50 457 50 471 c 0
EndSplineSet
Validated: 1
EndChar

StartChar: w
Encoding: 119 119 48
Width: 923
Flags: HW
HStem: 708 20G<74.5 95.5 828 847>
VStem: 47 75<621.05 724.645> 244 74<368 432.97> 598 75<189 286.128> 800 74<607.306 670.534>
LayerCount: 2
Fore
SplineSet
319 236 m 0
 319 220 319 173 278 173 c 0
 240 173 224 215 188 307 c 0
 110 504 109 503 91 548 c 0
 64 612 47 659 47 690 c 2
 47 691 l 2
 47 711 64 728 85 728 c 0
 106 728 122 711 122 696 c 0
 122 671 171 550 172 549 c 0
 173 547 237 388 244 368 c 1
 246 414 252 531 319 531 c 0
 362 531 385 484 385 483 c 2
 385 482 l 2
 386 481 386 480 387 480 c 1
 387 479 l 1
 388 479 l 1
 410 448 493 318 518 286 c 0
 524 277 562 225 598 189 c 1
 598 234 607 292 666 406 c 0
 675 423 684 441 711 495 c 0
 729 533 747 568 793 627 c 0
 801 637 799 634 800 641 c 0
 803 660 819 674 837 674 c 0
 857 674 874 658 874 624 c 0
 874 581 846 602 700 306 c 0
 691 287 673 250 673 190 c 2
 673 183 l 2
 673 179 673 174 673 174 c 0
 673 134 664 93 627 93 c 0
 552 93 445 256 408 312 c 0
 359 388 342 412 326 436 c 1
 326 435 318 398 318 343 c 0
 318 324 319 271 319 270 c 2
 319 270 319 252 319 236 c 0
EndSplineSet
Validated: 1
EndChar

StartChar: x
Encoding: 120 120 49
Width: 773
Flags: HW
HStem: -21 80<48.3194 108.903> 706 40G<152.5 166.5 605.5 623>
VStem: 578 74<693.812 762.563>
LayerCount: 2
Fore
SplineSet
614 766 m 0
 632 766 652 753 652 729 c 0
 652 688 594 620 590 615 c 0
 580 604 554 567 506 480 c 0
 477 426 473 416 473 400 c 0
 473 384 477 369 484 354 c 0
 502 313 455 383 667 86 c 0
 693 50 693 50 693 50 c 0
 721 22 728 9 728 -4 c 0
 728 -22 713 -38 693 -38 c 0
 668 -38 642 -11 602 47 c 0
 579 80 536 146 405 308 c 1
 240 50 130 15 112 -9 c 0
 106 -16 94 -21 82 -21 c 0
 61 -21 43 -4 43 24 c 0
 43 24 43 43 79 61 c 0
 171 107 343 316 343 376 c 0
 343 383 341 388 338 392 c 0
 332 398 182 575 151 621 c 0
 137 641 129 661 129 675 c 0
 129 697 147 706 159 706 c 0
 175 706 194 691 215 660 c 0
 248 612 338 510 376 462 c 0
 395 438 397 438 397 437 c 1
 422 479 467 575 519 647 c 0
 536 670 541 673 556 694 c 0
 566 709 575 724 578 736 c 0
 583 754 597 766 614 766 c 0
EndSplineSet
Validated: 1
EndChar

StartChar: y
Encoding: 121 121 50
Width: 763
Flags: HW
HStem: 770 20G<69 94.5 674.5 694.5>
VStem: 359 74<-10.5959 271.644> 645 75<767.094 840.972>
LayerCount: 2
Fore
SplineSet
41 753 m 4
 41 774 58 790 79 790 c 4
 109 790 144 758 173 715 c 4
 188 692 203 676 261 582 c 4
 350 436 373 418 382 405 c 4
 385 401 391 394 399 386 c 5
 551 620 577 668 611 740 c 4
 633 788 645 811 646 819 c 4
 647 830 665 845 684 845 c 4
 705 845 720 828 720 805 c 4
 720 797 718 786 711 775 c 4
 709 771 707 769 707 768 c 4
 706 766 661 671 617 589 c 4
 608 573 608 573 501 406 c 4
 451 328 434 301 412 301 c 5
 420 281 435 244 435 152 c 4
 435 152 435 140 435 129 c 4
 434 105 433 94 433 80 c 6
 433 60 l 6
 433 33 433 -50 389 -50 c 4
 371 -50 351 -37 351 -3 c 4
 351 19 359 -18 359 71 c 6
 359 90 l 6
 359 112 360 165 360 175 c 4
 360 185 359 201 357 215 c 6
 357 216 l 6
 354 237 351 250 348 260 c 4
 345 268 343 272 336 273 c 4
 322 276 309 294 309 311 c 4
 309 326 320 341 335 346 c 5
 335 346 323 360 320 364 c 5
 319 364 l 6
 317 366 318 366 308 378 c 4
 228 473 204 550 118 663 c 4
 88 702 75 714 64 718 c 4
 50 723 41 737 41 753 c 4
EndSplineSet
Validated: 1
EndChar

StartChar: z
Encoding: 122 122 51
Width: 904
Flags: HW
HStem: 97 75<387.239 745.1> 118 75<217.688 561.046> 598 75<61.0988 662.136>
LayerCount: 2
Fore
SplineSet
388 598 m 0x60
 271 598 134 596 118 596 c 0
 79 596 56 608 56 633 c 0
 56 659 80 671 117 671 c 0
 132 671 286 673 381 673 c 0
 532 673 708 668 790 648 c 0
 849 633 856 611 856 600 c 0
 856 573 817 551 816 551 c 2
 815 550 l 1
 814 550 l 1
 792 536 760 518 734 504 c 0
 546 400 323 271 216 184 c 1
 246 190 281 193 322 193 c 0x60
 432 193 531 172 633 172 c 0
 633 172 637 172 641 172 c 2
 645 172 l 1
 649 171 l 1
 650 171 l 2
 656 171 789 145 816 127 c 0
 825 121 832 110 832 97 c 0
 832 77 815 60 795 60 c 0
 788 60 781 62 778 63 c 0
 766 70 698 87 654 94 c 0
 642 96 640 97 622 97 c 0xa0
 541 97 419 118 305 118 c 0
 223 118 202 107 156 83 c 0
 102 55 102 55 102 55 c 0
 66 55 52 75 52 96 c 0
 52 96 52 97 52 99 c 0
 53 103 55 106 56 108 c 0
 56 110 57 112 59 115 c 2
 69 132 l 2
 128 227 205 275 297 333 c 0
 484 450 518 470 658 547 c 0
 715 579 706 574 717 580 c 1
 716 580 617 594 606 594 c 2
 604 594 l 2
 540 597 471 598 388 598 c 0x60
EndSplineSet
Validated: 1
EndChar

StartChar: bracketleft
Encoding: 91 91 52
Width: 593
Flags: HW
HStem: 713 80<200.47 497.607>
VStem: 56 80<442.737 680.255> 140 86<129.328 237.627>
LayerCount: 2
Fore
SplineSet
140 119 m 0
 140 188 56 445 56 613 c 0
 56 708 83 746 156 764 c 0
 243 785 370 772 422 790 c 0
 427 792 431 793 436 793 c 2
 462 793 l 2
 484 793 502 775 502 753 c 0
 502 731 484 713 462 713 c 2
 442 713 l 1
 359 688 161 709 143 668 c 0
 139 660 136 637 136 610 c 0
 136 464 226 173 226 143 c 0
 226 143 226 136 225 129 c 1
 308 92 548 136 548 57 c 0
 548 32 525 9 502 9 c 0
 492 9 482 13 474 21 c 1
 392 37 258 22 185 60 c 0
 172 66 140 85 140 116 c 0
 140 119 l 0
EndSplineSet
Validated: 1
EndChar

StartChar: eacute
Encoding: 142 233 53
Width: 903
Flags: HW
HStem: -37 80<198.706 652.169 793.48 852.57> -27 80<452.4 824.722> 381 82<52.053 96.677> 593 80<593.09 770.607> 732 79<59.393 96.9056> 797 21G<250 264.5> 797 21G<250 264.5> 805 20G<131 147>
VStem: 97 80<61.1799 369 462 708> 111 79<58.6433 297.625> 653 86<1046 1104.13>
LayerCount: 2
Fore
SplineSet
739 1068 m 4x3420
 739 1055 733 1049 733 1032 c 4
 733 999 712 984 651 957 c 4
 529 904 443 888 427 883 c 6
 280 802 l 6
 274 799 268 797 261 797 c 4
 239 797 221 815 221 837 c 4
 221 852 229 865 242 872 c 6
 398 958 l 6
 401 960 405 961 409 962 c 6
 509 983 l 5
 651 1044 652 1046 652 1046 c 4
 653 1046 653 1047 653 1047 c 4
 653 1077 665 1111 696 1111 c 4
 720 1111 739 1092 739 1068 c 4x3420
819 -41 m 4
 799 -41 755 -27 728 -27 c 4
 721 -27 711 -28 699 -28 c 4
 687 -28 677 -27 650 -27 c 4x7060
 565 -27 543 -37 438 -37 c 4
 351 -37 239 -30 183 -20 c 4
 130 -11 109 4 109 28 c 4
 109 36 111 35 111 47 c 4xb060
 111 77 97 196 97 197 c 6
 97 381 l 5
 81 383 l 6
 61 386 47 403 47 423 c 4
 47 445 65 463 90 463 c 4
 90 463 90 463 97 462 c 5
 97 729 l 5
 85 732 l 6
 67 737 55 753 55 771 c 4
 55 793 73 811 99 811 c 4xb8a0
 99 811 101 811 113 820 c 4
 113 820 125 825 137 825 c 4
 157 825 174 811 177 791 c 5
 620 673 l 5
 735 673 l 6
 757 673 775 655 775 633 c 4
 775 611 757 593 735 593 c 6
 615 593 l 6
 612 593 608 593 605 594 c 6
 177 708 l 5
 177 450 l 5
 423 415 l 6
 443 412 457 395 457 375 c 4
 457 352 438 335 414 335 c 6
 177 369 l 5
 177 201 l 5x31a0
 183 166 190 65 190 64 c 4
 190 61 281 43 429 43 c 4xb160
 540 43 561 53 641 53 c 4
 666 53 695 52 705 52 c 4
 715 52 723 53 735 53 c 4x7060
 752 53 767 51 781 46 c 6
 826 38 l 6
 845 35 859 19 859 0 c 4
 859 -21 843 -41 819 -41 c 4
EndSplineSet
Validated: 1
EndChar

StartChar: bracketright
Encoding: 93 93 54
Width: 579
Flags: HW
HStem: 14 80<108.603 393.506> 659 82<321.992 444> 728 80<55.393 223.335>
VStem: 396 80<103.995 394.873> 401 84<111.234 436.875> 441 80<411.694 605 605.024 657.863>
LayerCount: 2
Fore
SplineSet
524 655 m 0xc4
 524 638 521 605 521 578 c 0xc4
 521 483 485 369 485 292 c 0xc8
 485 260 479 162 476 149 c 2
 476 126 l 2
 477 121 477 116 477 103 c 0
 477 90 477 24 338 20 c 2
 116 14 l 1
 97 11 l 1
 72 11 54 28 54 50 c 0
 54 90 110 94 111 94 c 2
 335 100 l 2
 386 105 397 105 397 113 c 0
 397 116 396 118 396 123 c 2
 396 153 l 2xd0
 396 167 399 155 400 202 c 0xc8
 401 221 402 225 403 245 c 0
 406 379 441 494 441 608 c 0
 441 613 l 0
 441 627 444 639 444 654 c 0
 444 654 444 657 444 660 c 1
 439 659 437 659 437 659 c 0xc4
 371 659 211 718 113 728 c 1
 91 728 l 2
 69 728 51 746 51 768 c 0
 51 790 69 808 91 808 c 2
 115 808 l 2xa4
 188 808 360 741 445 741 c 0
 446 741 l 0
 495 741 524 707 524 655 c 0xc4
EndSplineSet
Validated: 1
EndChar

StartChar: backslash
Encoding: 92 92 55
Width: 570
Flags: HW
HStem: 773 20G<80 102>
VStem: 51 80<599.224 788.607>
LayerCount: 2
Fore
SplineSet
51 753 m 2
 51 775 69 793 91 793 c 0
 113 793 131 775 131 753 c 2
 131 727 l 1
 148 543 209 388 410 25 c 0
 514 -164 531 -207 531 -224 c 0
 531 -241 513 -259 492 -259 c 0
 472 -259 459 -244 438 -200 c 0
 423 -167 396 -116 353 -38 c 0
 130 366 69 521 53 705 c 0
 52 722 51 724 51 725 c 2
 51 753 l 2
EndSplineSet
Validated: 1
EndChar

StartChar: at
Encoding: 64 64 56
Width: 897
Flags: HW
HStem: 30 80<274.857 527.926> 492 80<360.581 451> 691 80<207.401 524.542>
VStem: 57 82<312.989 601.925> 707 80<396.45 592.949> 771 84<208.145 242>
LayerCount: 2
Fore
SplineSet
97 444 m 1052xf0
263 441 m 0
 263 509 338 572 425 572 c 0
 440 572 444 570 458 570 c 0
 471 570 l 0
 489 570 504 559 509 542 c 1
 535 535 546 515 591 401 c 0
 608 357 616 335 623 320 c 1
 676 360 707 422 707 485 c 0xf8
 707 508 703 520 702 538 c 0
 698 598 662 637 588 658 c 0
 491 685 357 674 273 689 c 0
 266 690 264 691 256 691 c 0
 158 691 139 530 139 465 c 0
 139 368 182 110 365 110 c 0
 397 110 359 118 498 130 c 0
 679 145 734 168 771 242 c 2
 779 258 l 2
 786 272 800 280 815 280 c 0
 837 280 855 262 855 231 c 0xf4
 855 231 855 232 849 220 c 0
 791 103 716 68 510 50 c 0
 381 39 407 30 365 30 c 0
 97 30 57 395 57 473 c 0
 57 522 73 771 271 771 c 0
 271 771 276 771 286 769 c 0
 363 755 497 765 605 735 c 0
 768 689 787 575 787 506 c 0xf8
 787 318 645 224 597 224 c 0
 577 224 567 241 516 372 c 1
 513 365 484 286 417 286 c 0
 349 286 263 369 263 441 c 0
412 367 m 1
 435 371 451 410 451 469 c 0
 451 469 451 476 451 480 c 0
 451 484 451 487 451 490 c 1
 436 491 437 492 429 492 c 0
 389 492 347 470 343 447 c 1
 349 411 380 375 412 367 c 1
EndSplineSet
Validated: 1
EndChar

StartChar: exclam
Encoding: 33 33 57
Width: 259
Flags: HW
HStem: 751 20G<82 104>
VStem: 53 80<533.332 766.607> 128 83<-157.753 -6.40625 79.7095 268.498> 128 4<-39 -17.021>
LayerCount: 2
Fore
SplineSet
128 -65 m 0xa0
 128 -46 129 -17 130 -17 c 0
 131 -17 132 -34 132 -39 c 1x90
 132 -17 150 0 171 0 c 0
 200 0 211 -33 211 -99 c 0
 211 -119 210 -148 209 -148 c 0
 208 -148 207 -126 207 -126 c 1
 206 -148 188 -165 168 -165 c 0
 140 -165 128 -132 128 -65 c 0xa0
211 144 m 0xa0
 211 107 200 73 169 73 c 0
 147 73 128 90 128 114 c 0xa0
 128 120 127 136 127 150 c 0
 127 164 128 178 129 191 c 2
 129 209 l 1
 63 366 90 538 55 690 c 0
 54 693 53 697 53 701 c 2
 53 731 l 2
 53 753 71 771 93 771 c 0
 115 771 133 753 133 731 c 2
 133 706 l 1xc0
 169 544 143 372 203 238 c 0
 207 229 209 223 209 217 c 2
 209 189 l 2
 209 178 211 160 211 144 c 0xa0
EndSplineSet
Validated: 1
EndChar

StartChar: quotedbl
Encoding: 34 34 58
Width: 503
Flags: HW
HStem: 481 328 769 20G<88 110>
VStem: 59 80<608.024 784.607> 340 80<550.603 804.154> 359 80<505.587 734.877>
LayerCount: 2
Fore
SplineSet
406 495 m 0x68
 368 495 359 555 359 559 c 2
 359 582 l 2x68
 357 630 340 681 340 733 c 0
 340 746 341 753 341 759 c 2
 341 769 l 2x70
 341 791 359 809 381 809 c 0xb0
 403 809 421 791 421 769 c 2
 421 757 l 2
 421 753 420 741 420 732 c 0x70
 420 692 439 628 439 583 c 2
 439 564 l 1
 445 540 l 1
 445 514 428 495 406 495 c 0x68
139 745 m 2
 139 743 139 743 139 743 c 0
 139 711 144 677 150 656 c 0
 159 624 177 522 177 510 c 0
 177 498 159 481 137 481 c 0xa0
 118 481 102 494 98 513 c 2
 78 616 l 2
 65 665 59 703 59 742 c 0
 59 742 59 743 59 745 c 2
 59 749 l 2
 59 771 77 789 99 789 c 0
 121 789 139 771 139 749 c 2
 139 745 l 2
EndSplineSet
Validated: 1
EndChar

StartChar: numbersign
Encoding: 35 35 59
Width: 1080
Flags: HW
HStem: 115 92<908.33 961.14> 235 80<48.1032 269> 444 80<718 975.848> 453 80<845.566 1030.61> 477 80<85.393 336.622> 755 20G<386 408 680 702>
VStem: 255 80<45.7874 228.989> 362 80<553 767.595> 612 79<54.2168 159> 621 79<258 439.85> 635 80<260.523 444> 651 80<532.469 768.607>
LayerCount: 2
Fore
SplineSet
635 448 m 1xc720
 590 451 468 463 429 463 c 0
 422 463 418 463 417 462 c 0
 417 461 417 458 371 309 c 1
 440 301 507 287 621 258 c 1xc740
 626 311 631 368 635 448 c 1xc720
43 275 m 0
 43 315 92 315 92 315 c 0
 152 315 177 314 192 314 c 0
 218 314 240 317 255 317 c 0
 263 317 279 316 289 316 c 1
 303 364 324 422 338 474 c 1
 309 476 283 477 259 477 c 2
 121 477 l 2
 99 477 81 495 81 517 c 0
 81 539 99 557 121 557 c 2
 259 557 l 2
 289 557 321 555 356 553 c 1
 360 578 362 603 362 620 c 0
 362 647 357 666 357 687 c 2
 357 735 l 2
 357 757 375 775 397 775 c 0
 419 775 437 757 437 735 c 2
 437 690 l 2
 440 669 442 648 442 624 c 0
 442 600 440 574 436 547 c 1
 501 541 571 533 638 528 c 1
 643 624 646 677 651 729 c 1
 651 733 l 2xcf10
 651 755 669 773 691 773 c 0xcf80
 713 773 731 755 731 733 c 2
 731 727 l 2
 731 724 726 684 718 524 c 1
 731 524 744 524 744 524 c 0
 774 524 794 525 807 525 c 0
 820 525 836 524 848 524 c 0xe710
 878 524 873 531 994 533 c 2
 995 533 l 2
 1017 533 1035 515 1035 493 c 0
 1035 471 1018 453 996 453 c 2xd710
 897 451 l 1
 883 446 866 444 842 444 c 2
 820 444 l 2
 793 444 775 444 759 444 c 0
 743 444 729 444 715 444 c 1xe720
 711 355 706 296 700 239 c 1xe740
 792 216 852 204 908 196 c 1
 915 203 925 207 935 207 c 0
 957 207 975 189 975 167 c 0
 975 156 971 147 963 139 c 2
 951 127 l 2
 943 119 934 115 923 115 c 2
 913 115 l 2
 911 115 853 119 691 159 c 1
 675 47 648 -53 620 -115 c 0
 603 -151 590 -165 571 -165 c 0
 549 -165 531 -147 531 -130 c 0
 531 -101 581 -45 612 178 c 1xe780
 488 209 420 223 350 231 c 1
 340 188 335 151 335 105 c 0
 335 96 l 0
 335 52 328 5 289 5 c 0
 265 5 247 23 247 46 c 0
 247 62 255 66 255 86 c 0
 255 119 l 0
 255 156 260 195 269 237 c 1
 256 237 249 234 206 234 c 0
 181 234 154 235 137 235 c 0
 114 235 94 233 85 233 c 0
 59 233 43 252 43 275 c 0
EndSplineSet
Validated: 1
EndChar

StartChar: dollar
Encoding: 36 36 60
Width: 839
Flags: HW
HStem: -97 80<368.906 466.492> 718 80<353.453 425> 819 20G<463 485 619 641>
VStem: 232 80<499.47 675.256> 246 96<-144.15 -90.2851> 434 80<797 834.607> 590 80<423.928 617 767 832.607> 712 80<489.393 589.183>
LayerCount: 2
Fore
SplineSet
571 30 m 1xe7
 614 58 645 93 659 131 c 1
 648 155 632 177 607 199 c 1
 577 62 577 62 571 30 c 1xe7
422 718 m 0
 324 718 312 628 312 605 c 0xf7
 312 596 314 591 314 576 c 0
 314 527 335 483 378 444 c 1
 413 653 413 654 425 718 c 1
 423 718 422 718 422 718 c 0
505 708 m 1
 498 669 498 670 451 391 c 1
 479 373 552 333 553 332 c 1
 580 470 592 575 592 613 c 0
 592 681 552 698 505 708 c 1
368 -12 m 1
 386 -15 403 -17 420 -17 c 0
 441 -17 460 -14 481 -9 c 1
 485 15 486 14 536 249 c 1
 513 263 437 306 436 307 c 1
 417 198 400 112 395 87 c 0
 383 32 368 -12 368 -12 c 1
625 286 m 1
 734 207 742 137 742 125 c 0
 742 93 684 -15 552 -70 c 1
 548 -92 543 -122 542 -131 c 0
 537 -167 523 -185 501 -185 c 0
 479 -185 460 -167 460 -149 c 0
 460 -141 463 -122 467 -94 c 1
 456 -96 428 -97 415 -97 c 0
 393 -97 367 -94 342 -89 c 1
 326 -138 316 -165 287 -165 c 0
 264 -165 246 -147 246 -123 c 0xef
 246 -123 246 -122 265 -66 c 1
 98 2 44 134 44 161 c 0
 44 174 56 195 88 218 c 0
 101 227 98 227 107 232 c 2
 137 248 l 2
 143 251 149 253 156 253 c 0
 178 253 196 235 196 213 c 0
 196 198 188 185 175 178 c 2
 150 165 l 2
 145 160 145 160 131 150 c 1
 162 91 220 40 291 10 c 1
 305 54 l 1
 323 137 341 230 363 354 c 1
 237 446 232 533 232 569 c 0
 232 704 302 787 397 797 c 0
 397 797 409 798 417 798 c 0
 425 798 429 797 434 797 c 1
 434 799 l 2
 434 821 452 839 474 839 c 0
 496 839 514 821 514 799 c 2
 514 789 l 1
 540 784 566 776 590 767 c 1
 590 797 l 2
 590 819 608 837 630 837 c 0
 652 837 670 819 670 797 c 2
 670 742 l 2
 670 736 671 730 671 724 c 1
 736 678 792 592 792 537 c 2
 792 525 l 2
 792 503 774 485 752 485 c 0
 730 485 712 503 712 525 c 2
 712 533 l 1
 705 565 692 592 671 617 c 1
 667 522 653 421 625 286 c 1
EndSplineSet
Validated: 1
EndChar

StartChar: percent
Encoding: 37 37 61
Width: 860
Flags: HW
HStem: 11 80<604.91 731.505> 179 80<627.625 693> 468 80<134.895 256.529> 635 80<165.096 215.719> 703 20G<238.5 270 721.5 739> 787 20G<721.5 739>
VStem: 51 82<549.7 604.439> 271 80<564.67 635.374> 524 80<94.5227 155.428>
LayerCount: 2
Fore
SplineSet
604 119 m 4xe780
 604 101 623 91 648 91 c 4
 659 91 662 93 672 93 c 4
 682 93 686 91 697 91 c 4
 713 91 728 95 732 100 c 4
 734 102 734 98 734 106 c 4
 734 114 734 115 734 118 c 6
 714 156 l 5
 693 178 l 6
 688 178 684 179 677 179 c 4
 642 177 604 144 604 119 c 4xe780
696 11 m 4
 650 11 l 4
 576 11 524 54 524 116 c 4
 524 191 601 259 686 259 c 4
 700 259 697 261 706 261 c 4
 718 261 729 257 737 249 c 6
 777 207 l 6
 796 188 815 134 815 99 c 4
 815 46 770 11 696 11 c 4
193 469 m 4
 180 469 175 468 165 468 c 4
 99 468 51 511 51 568 c 4
 51 613 82 660 156 701 c 4
 169 709 181 715 190 715 c 6
 198 715 l 6xf780
 205 715 210 713 216 710 c 5
 223 718 234 723 248 723 c 4xef80
 297 723 351 659 351 592 c 4
 351 518 286 469 193 469 c 4
181 549 m 4
 233 549 271 569 271 598 c 4
 271 617 255 637 236 644 c 4
 232 645 231 645 231 645 c 4
 223 645 218 636 200 635 c 5
 153 608 133 589 133 572 c 4
 133 558 145 548 164 548 c 4
 170 548 170 549 178 549 c 4
 181 549 l 4
728 807 m 4
 750 807 768 789 768 767 c 4
 768 758 765 750 760 743 c 6
 196 -7 l 6
 188 -17 177 -23 164 -23 c 4
 142 -23 124 -5 124 17 c 4
 124 26 127 34 132 41 c 6
 696 791 l 6
 704 801 715 807 728 807 c 4
EndSplineSet
Validated: 1
EndChar

StartChar: ampersand
Encoding: 38 38 62
Width: 770
Flags: HW
HStem: 59 80<188.824 377.482> 695 80<323.867 471.746>
VStem: 233 80<566.502 686.367> 567 80<337.258 492.607>
LayerCount: 2
Fore
SplineSet
617 281 m 1
 680 226 729 174 729 145 c 0
 729 127 711 109 689 109 c 0
 675 109 663 117 649 135 c 0
 635 153 608 181 574 212 c 1
 500 117 385 59 269 59 c 0
 269 59 264 59 260 59 c 0
 140 60 43 165 43 223 c 0
 43 260 82 356 258 459 c 0
 274 468 286 476 293 480 c 1
 277 503 233 568 233 638 c 0
 233 714 286 775 360 775 c 0
 371 775 l 0
 488 775 557 737 557 667 c 0
 557 667 557 563 413 461 c 1
 445 427 475 401 553 336 c 1
 560 354 565 373 567 392 c 2
 567 457 l 2
 567 479 585 497 607 497 c 0
 629 497 647 479 647 457 c 2
 647 389 l 2
 647 366 633 315 617 281 c 1
475 677 m 1
 452 688 416 695 375 695 c 0
 375 695 366 695 364 695 c 0
 362 695 360 695 360 695 c 0
 330 695 313 670 313 639 c 0
 313 608 331 566 361 523 c 1
 433 573 467 618 475 677 c 1
124 233 m 1
 136 186 203 139 258 139 c 0
 258 139 259 139 261 139 c 0
 263 139 272 139 272 139 c 0
 362 139 455 188 513 265 c 1
 405 356 382 376 344 418 c 1
 336 413 308 396 308 396 c 2
 189 326 146 289 124 233 c 1
EndSplineSet
Validated: 1
EndChar

StartChar: quotesingle
Encoding: 39 39 63
Width: 207
Flags: HW
HStem: 529 258<72.4586 130.714>
VStem: 62 86<542.605 778.922>
LayerCount: 2
Fore
SplineSet
106 787 m 0
 137 787 148 746 148 637 c 0
 141 559 128 529 101 529 c 0
 82 529 62 545 62 616 c 0
 62 655 68 654 68 696 c 0
 68 769 86 787 106 787 c 0
EndSplineSet
Validated: 1
EndChar

StartChar: parenleft
Encoding: 40 40 64
Width: 447
Flags: HW
HStem: 781 20G<324.5 353>
VStem: 52 80<306.555 523.767>
LayerCount: 2
Fore
SplineSet
342 801 m 2
 364 801 382 783 382 761 c 0
 382 740 366 723 345 721 c 1
 336 713 327 705 315 695 c 0
 172 577 132 518 132 430 c 0
 132 284 241 102 362 40 c 0
 390 25 402 12 402 -6 c 0
 402 -27 384 -45 362 -45 c 0
 355 -45 348 -43 332 -35 c 0
 179 45 52 252 52 421 c 0
 52 524 99 620 271 763 c 0
 279 769 289 778 295 783 c 0
 310 796 319 801 330 801 c 2
 342 801 l 2
EndSplineSet
Validated: 1
EndChar

StartChar: parenright
Encoding: 41 41 65
Width: 551
Flags: HW
HStem: -21 88<52.8555 106.671> 825 20G<112 126.5>
LayerCount: 2
Fore
SplineSet
499 500 m 0
 499 383 394 -21 108 -21 c 0
 80 -21 71 -17 63 -9 c 2
 55 -1 l 2
 47 7 43 16 43 27 c 0
 43 49 61 67 83 67 c 0
 92 67 100 64 107 59 c 1
 266 73 398 259 419 499 c 1
 412 591 353 645 114 763 c 0
 102 769 83 779 83 803 c 0
 83 827 101 845 130 845 c 0
 130 845 130 845 183 819 c 0
 333 744 488 668 499 507 c 0
 499 501 499 500 499 500 c 0
EndSplineSet
Validated: 1
EndChar

StartChar: asterisk
Encoding: 42 42 66
Width: 463
Flags: HW
HStem: 811 20G<79 95 370.5 387>
VStem: 204 80<767.994 884.607>
LayerCount: 2
Fore
SplineSet
112 533 m 0
 90 533 72 551 72 573 c 0
 72 585 77 596 86 604 c 2
 163 668 l 1
 63 762 l 2
 55 770 50 780 50 791 c 0
 50 813 68 831 90 831 c 0
 100 831 110 827 117 820 c 2
 196 747 l 1
 199 777 202 803 204 827 c 2
 204 849 l 2
 204 871 222 889 244 889 c 0
 266 889 284 871 284 849 c 2
 284 825 l 2
 284 823 282 809 278 766 c 1
 321 802 l 1
 348 829 l 2
 356 837 365 841 376 841 c 0
 398 841 416 823 416 806 c 0
 416 780 375 742 374 742 c 2
 283 665 l 1
 371 582 l 2
 379 574 384 564 384 553 c 0
 384 531 366 513 344 513 c 0
 334 513 324 517 317 524 c 2
 259 578 l 1
 254 529 254 530 253 527 c 2
 237 467 l 2
 232 450 216 437 197 437 c 0
 175 437 158 456 158 482 c 1
 175 544 l 2
 176 554 177 564 178 576 c 1
 138 542 l 2
 131 536 121 533 112 533 c 0
EndSplineSet
Validated: 1
EndChar

StartChar: plus
Encoding: 43 43 67
Width: 870
Flags: HW
HStem: 371 80<49.393 381.434> 383 80<154.414 403 483 650.896 651.76 710.441> 389 90<764.281 814.44> 723 20G<432 454>
VStem: 393 90<28.2009 308.188> 403 80<51.5836 383 464 738.607>
LayerCount: 2
Fore
SplineSet
711 376 m 0x34
 699 376 692 378 659 378 c 0
 656 378 l 0
 586 378 595 383 522 383 c 0
 513 383 l 0
 506 383 494 384 483 384 c 1x54
 483 127 l 2
 483 126 480 107 478 91 c 0
 471 32 453 17 433 17 c 0
 412 17 393 33 393 53 c 0x58
 393 63 398 104 403 131 c 1
 403 383 l 1x54
 317 380 220 371 126 371 c 0
 126 371 121 371 115 371 c 2
 85 371 l 2
 63 371 45 389 45 411 c 0
 45 433 63 451 85 451 c 2
 115 451 l 2
 120 451 127 451 127 451 c 0x94
 231 451 284 459 403 463 c 1
 403 703 l 2
 403 725 421 743 443 743 c 0
 465 743 483 725 483 703 c 2
 483 464 l 1
 516 463 l 0x54
 570 463 650 458 662 458 c 0
 667 458 697 459 699 459 c 0
 701 459 706 458 711 459 c 0
 724 461 745 479 771 479 c 0
 801 479 823 456 823 430 c 0
 823 407 805 389 783 389 c 0
 776 389 770 391 764 394 c 1
 740 380 728 376 711 376 c 0x34
EndSplineSet
Validated: 1
EndChar

StartChar: comma
Encoding: 44 44 68
Width: 330
Flags: HW
HStem: -153 314
VStem: 186 80<10.2847 156.607>
LayerCount: 2
Fore
SplineSet
186 121 m 2
 186 143 204 161 226 161 c 0
 248 161 266 143 266 121 c 2
 266 107 l 2
 266 104 266 105 265 100 c 0
 238 -46 212 -96 176 -126 c 0
 162 -138 152 -142 100 -153 c 1
 75 -153 56 -136 56 -113 c 0
 56 -94 69 -78 87 -74 c 2
 123 -66 l 1
 156 -33 161 -11 186 111 c 1
 186 121 l 2
EndSplineSet
Validated: 1
EndChar

StartChar: hyphen
Encoding: 45 45 69
Width: 607
Flags: HW
HStem: 321 80<77.4808 538.678> 337 80<63.393 365.625>
LayerCount: 2
Fore
SplineSet
119 417 m 2x40
 121 417 204 401 305 401 c 0
 305 401 314 401 328 401 c 0
 342 401 402 401 422 401 c 0
 442 401 459 401 480 401 c 2
 526 395 547 381 547 357 c 0
 547 334 528 317 504 317 c 2
 475 321 l 2
 457 321 437 321 398 321 c 2
 361 321 l 2
 349 321 338 321 327 321 c 0
 316 321 310 321 310 321 c 0x80
 238 321 173 326 115 337 c 1
 99 337 l 2
 77 337 59 355 59 377 c 0
 59 399 77 417 99 417 c 2
 119 417 l 2x40
EndSplineSet
Validated: 1
EndChar

StartChar: period
Encoding: 46 46 70
Width: 237
Flags: HW
HStem: -17 108<85.3325 139.445>
VStem: 64 109
LayerCount: 2
Fore
SplineSet
64 52 m 0
 64 73 82 91 104 91 c 0
 117 91 130 84 137 73 c 2
 173 19 l 2
 177 13 158 31 158 16 c 0
 158 0 138 -17 118 -17 c 0
 105 -17 92 -10 85 1 c 2
 71 29 l 2
 66 39 64 45 64 52 c 0
EndSplineSet
Validated: 1
EndChar

StartChar: slash
Encoding: 47 47 71
Width: 658
Flags: HW
HStem: 765 20G<564 582>
LayerCount: 2
Fore
SplineSet
571 785 m 0
 593 785 611 767 611 745 c 0
 611 738 609 730 605 724 c 2
 442 460 l 1
 289 146 l 2
 285 139 232 84 231 83 c 2
 153 5 l 2
 149 1 144 -2 139 -4 c 2
 97 -20 l 2
 92 -22 88 -23 83 -23 c 0
 61 -23 43 -5 43 17 c 0
 43 34 53 48 69 54 c 2
 103 67 l 1
 176 140 192 156 220 186 c 1
 372 498 372 498 373 500 c 2
 537 766 l 2
 544 778 557 785 571 785 c 0
EndSplineSet
Validated: 1
EndChar

StartChar: zero
Encoding: 48 48 72
Width: 666
Flags: HW
HStem: 39 80<230.233 402.317> 787 20G<295 305.5> 787 20G<295 305.5 333.5 353.5>
VStem: 50 80<220.833 434.434> 533 80<266.83 514.333>
LayerCount: 2
Fore
SplineSet
610 440 m 0xd8
 610 418 613 403 613 375 c 0
 613 191 478 39 315 39 c 0
 168 39 50 164 50 324 c 0
 50 448 121 618 245 762 c 0
 275 797 288 807 303 807 c 0
 309 807 314 804 320 804 c 0
 326 804 331 805 334 805 c 0
 371 805 610 638 610 440 c 0xd8
130 327 m 0
 130 214 208 119 315 119 c 0
 434 119 533 237 533 366 c 0
 533 389 530 402 530 421 c 0
 530 425 l 0
 530 545 427 657 332 720 c 1
 316 713 315 713 309 713 c 1
 191 568 130 426 130 327 c 0
EndSplineSet
Validated: 1
EndChar

StartChar: one
Encoding: 49 49 73
Width: 421
Flags: HW
HStem: 703 20G<275.5 308>
VStem: 268 94<19.5665 69.3503 99.7522 255.914> 268 80<11.7737 69.3503 99.7522 598.342>
LayerCount: 2
Fore
SplineSet
283 723 m 0xc0
 334 723 349 596 349 439 c 0
 349 381 347 317 347 268 c 0
 347 234 348 200 348 174 c 0
 348 170 l 0xa0
 348 123 362 139 362 111 c 2
 362 99 l 2
 362 98 356 3 311 3 c 0
 291 3 274 22 274 46 c 2
 282 99 l 1
 273 115 268 134 268 162 c 0
 268 177 l 0
 268 204 267 234 267 268 c 0
 267 316 269 379 269 435 c 0
 269 504 266 556 259 601 c 1
 220 559 169 504 142 473 c 0
 113 439 100 429 85 429 c 0
 64 429 46 447 46 467 c 0
 46 481 54 493 81 525 c 0
 122 572 188 643 221 677 c 0
 256 713 269 723 283 723 c 0xc0
EndSplineSet
Validated: 1
EndChar

StartChar: two
Encoding: 50 50 74
Width: 739
Flags: HW
HStem: 143 86<613 685.5> 694 81<291.431 429.727>
VStem: 86 81<452.684 489 489.003 566.92> 483 80<488.599 639.041>
LayerCount: 2
Fore
SplineSet
167 500 m 0
 167 492 168 489 168 485 c 0
 168 467 149 448 126 448 c 0
 103 448 86 467 86 492 c 0
 86 508 l 0
 86 592 213 775 364 775 c 0
 473 775 563 680 563 576 c 0
 563 554 559 413 274 195 c 0
 250 177 224 156 205 137 c 0
 193 125 187 121 187 121 c 1
 369 159 593 229 606 229 c 0
 609 229 698 225 698 181 c 0
 698 160 679 143 655 143 c 2
 613 148 l 1
 274 55 227 43 117 25 c 0
 90 21 87 21 87 21 c 0
 62 21 44 39 44 57 c 0
 44 80 75 136 140 185 c 1
 215 260 318 321 388 391 c 0
 419 422 483 494 483 567 c 0
 483 635 429 694 365 694 c 0
 286 694 189 606 169 517 c 0
 168 512 167 508 167 500 c 0
EndSplineSet
Validated: 1
EndChar

StartChar: three
Encoding: 51 51 75
Width: 724
Flags: HW
HStem: 47 80<154.401 228 228.017 415.175> 324 133<297.256 410.945> 783 83<216.702 403.831>
VStem: 53 80<533.393 701.291> 67 80<139.501 198.264> 462 81<459.277 694.531> 598 80<251.782 334.637>
LayerCount: 2
Fore
SplineSet
223 363 m 0xee
 223 397 286 457 443 457 c 0
 443 457 444 457 451 464 c 0
 451 464 462 475 462 533 c 0
 462 582 454 725 395 768 c 0
 382 778 366 783 344 783 c 0
 342 783 l 0
 329 783 322 786 304 786 c 0
 217 786 133 715 133 632 c 0
 133 632 133 626 133 623 c 2
 133 569 l 2
 133 547 115 529 93 529 c 0
 71 529 53 547 53 569 c 2
 53 622 l 2
 53 626 53 629 53 629 c 0xf6
 53 759 170 866 356 866 c 0
 374 866 477 865 517 717 c 0
 540 631 543 493 543 488 c 0
 543 482 539 464 534 451 c 1
 559 444 678 406 678 315 c 0
 678 219 548 47 280 47 c 0
 251 47 228 49 211 49 c 0
 122 49 67 103 67 155 c 0
 67 184 84 203 107 203 c 0
 129 203 147 185 147 163 c 0
 147 161 l 0
 147 141 193 129 229 129 c 0
 231 129 l 0
 247 129 262 127 279 127 c 0
 306 127 522 132 598 285 c 1
 598 336 545 376 476 379 c 1
 430 346 356 325 292 325 c 0
 278 325 276 324 270 324 c 0
 244 324 223 343 223 363 c 0xee
EndSplineSet
Validated: 1
EndChar

StartChar: four
Encoding: 52 52 76
Width: 774
Flags: HW
HStem: 234 80<159.909 328 408 639.735> 791 20G<354 368>
VStem: 260 80<807 848.607> 319 78<24 93.3155 520.231 717> 328 80<-9.87548 187 187.023 232 314 558.5>
LayerCount: 2
Fore
SplineSet
319 717 m 1xd0
 287 614 231 471 157 300 c 1
 200 310 246 314 314 314 c 0
 314 314 321 314 328 314 c 1xc8
 328 455 324 596 319 717 c 1xd0
485 311 m 0
 622 311 638 345 681 345 c 0
 710 345 730 329 730 305 c 0
 730 285 716 268 696 265 c 2
 672 262 l 1
 616 241 554 231 449 231 c 0
 449 231 432 231 408 232 c 1
 408 220 408 212 408 212 c 0
 408 205 407 196 407 186 c 0
 407 176 408 110 408 91 c 0xc8
 408 59 405 27 388 -16 c 0
 375 -50 361 -71 339 -71 c 0xe0
 318 -71 300 -53 300 -31 c 0
 300 -26 301 -22 303 -17 c 2
 318 24 l 2
 324 45 328 73 328 99 c 0
 328 112 327 176 327 182 c 0
 327 188 328 219 328 234 c 1xc8
 321 234 315 234 315 234 c 0
 131 234 114 189 80 189 c 0
 58 189 42 209 42 237 c 1
 47 250 l 2
 173 537 221 659 260 802 c 1
 260 813 l 2
 260 835 278 853 300 853 c 0
 322 853 340 835 340 813 c 2
 340 807 l 1xe0
 345 809 351 811 358 811 c 0
 379 811 397 793 397 771 c 2
 397 766 l 1xd0
 403 661 408 469 408 312 c 1
 425 312 462 311 485 311 c 0
EndSplineSet
Validated: 1
EndChar

StartChar: five
Encoding: 53 53 77
Width: 681
Flags: HW
HStem: 481 80<302.775 401.992> 724 81<311.902 546.154>
VStem: 45 79<315 360.629> 552 80<269.205 396.925>
LayerCount: 2
Fore
SplineSet
302 83 m 1
 441 99 552 288 552 352 c 0
 552 403 479 479 402 479 c 0
 399 479 l 0
 390 479 385 481 374 481 c 0
 323 481 259 441 248 401 c 0
 243 381 227 369 209 369 c 0
 191 369 178 382 165 410 c 0
 126 491 99 676 99 692 c 0
 99 724 215 784 440 803 c 0
 460 805 469 805 475 805 c 0
 479 805 482 805 484 805 c 0
 490 805 496 804 501 804 c 0
 506 804 508 805 513 805 c 0
 533 805 551 787 551 767 c 0
 551 760 549 724 505 724 c 0
 498 724 490 725 488 725 c 0
 482 725 289 716 183 659 c 1
 197 581 207 537 219 497 c 1
 262 537 320 561 375 561 c 0
 391 561 402 559 416 559 c 0
 523 559 632 447 632 346 c 0
 632 225 474 17 309 4 c 0
 302 3 300 3 300 3 c 0
 270 3 167 41 50 294 c 0
 45 306 45 306 45 306 c 0
 45 347 64 365 85 365 c 0
 103 365 120 353 124 335 c 2
 129 315 l 2
 134 304 140 293 153 265 c 0
 209 141 242 99 302 83 c 1
EndSplineSet
Validated: 1
EndChar

StartChar: six
Encoding: 54 54 78
Width: 844
Flags: HW
HStem: -53 80<337.231 586.155> 376 80<297.617 561.52> 745 90<567.576 653.135>
VStem: 43 139<235.139 308.838> 719 80<106.849 244.278>
LayerCount: 2
Fore
SplineSet
437 -53 m 0
 273 -53 125 75 104 233 c 1
 98 229 91 227 83 227 c 0
 61 227 43 245 43 264 c 0
 43 273 47 302 108 349 c 1
 142 554 342 747 607 830 c 0
 619 834 624 835 629 835 c 0
 651 835 669 818 669 796 c 0
 669 774 651 760 604 745 c 0
 476 705 272 578 206 404 c 1
 208 405 208 405 220 410 c 0
 333 453 372 456 413 456 c 0
 475 456 749 449 795 212 c 0
 798 194 799 179 799 168 c 0
 799 30 653 -34 513 -43 c 1
 488 -50 462 -53 437 -53 c 0
719 166 m 0
 719 192 709 376 407 376 c 0
 369 376 348 373 228 328 c 0
 199 317 182 310 182 264 c 0
 182 141 303 27 437 27 c 0
 475 27 495 36 522 37 c 0
 562 39 719 65 719 166 c 0
EndSplineSet
Validated: 1
EndChar

StartChar: seven
Encoding: 55 55 79
Width: 680
Flags: HW
HStem: 655 21G<522 525.5> 719 88<55.5957 105.719> 725 20G<541.5 575.5>
LayerCount: 2
Fore
SplineSet
87 759 m 1048x80
47 759 m 0
 47 784 70 807 98 807 c 0xc0
 98 807 101 807 104 806 c 2
 372 747 l 1
 488 741 488 741 515 737 c 1
 528 743 536 745 551 745 c 0
 555 745 l 0xa0
 596 745 633 717 633 693 c 0
 633 635 426 251 231 55 c 0
 205 29 194 21 180 21 c 0
 159 21 141 39 141 61 c 0
 141 74 148 85 173 110 c 0
 292 230 461 483 538 658 c 1
 533 656 528 655 526 655 c 0
 521 655 516 661 395 666 c 0
 365 667 361 667 358 668 c 2
 106 724 l 1
 100 721 94 719 87 719 c 0xc0
 65 719 47 737 47 759 c 0
EndSplineSet
Validated: 1
EndChar

StartChar: eight
Encoding: 56 56 80
Width: 770
Flags: HW
HStem: -40 80<318.187 520.093> 765 80<341.621 528.405>
VStem: 206 80<549.401 700.561> 598 80<101.229 227.588> 640 80<526.065 674.664>
LayerCount: 2
Fore
SplineSet
640 589 m 0xe8
 640 693 536 764 439 764 c 0
 428 764 423 765 417 765 c 0
 417 765 412 765 410 765 c 0
 408 765 405 765 405 765 c 0
 337 765 287 701 286 616 c 1
 294 548 332 502 434 439 c 1
 550 461 640 493 640 589 c 0xe8
402 845 m 0
 417 845 l 0
 425 845 429 844 432 844 c 0
 437 844 440 847 452 847 c 0
 513 847 720 776 720 598 c 0xe8
 720 522 682 424 531 379 c 1
 565 356 678 281 678 163 c 0xf0
 678 45 564 -40 434 -40 c 0
 294 -40 90 59 47 222 c 0
 46 226 45 230 45 234 c 0
 45 239 47 244 48 248 c 0
 83 343 161 392 320 420 c 1
 251 475 214 534 208 602 c 0
 207 611 206 612 206 625 c 0
 206 745 291 845 402 845 c 0
127 232 m 1
 170 106 339 40 424 40 c 0
 484 40 598 73 598 164 c 0xf0
 598 242 516 296 418 355 c 1
 253 328 164 313 127 232 c 1
EndSplineSet
Validated: 1
EndChar

StartChar: nine
Encoding: 57 57 81
Width: 705
Flags: HW
HStem: -31 80<245.831 405.893> 309 80<223.868 412.288> 740 80<237.486 383.106>
VStem: 53 80<461.545 608.669> 97 80<108.878 216.94> 574 80<240.167 437.156>
LayerCount: 2
Fore
SplineSet
133 509 m 1xf4
 146 440 230 389 379 389 c 0
 379 389 434 389 460 508 c 0
 468 544 472 584 473 628 c 1
 435 695 368 740 306 740 c 0
 201 740 137 612 133 509 c 1xf4
191 215 m 0
 191 195 179 197 179 181 c 0
 179 174 177 171 177 161 c 0xec
 177 98 264 49 333 49 c 0
 460 49 574 216 574 340 c 0
 574 378 563 416 535 478 c 1
 507 372 446 313 345 309 c 0
 339 309 338 309 338 309 c 0
 146 309 53 432 53 537 c 0xf4
 53 647 156 820 307 820 c 0
 385 820 470 774 526 694 c 1
 542 689 552 674 554 649 c 0
 562 570 654 466 654 324 c 0
 654 127 477 -31 321 -31 c 0
 309 -31 293 -30 275 -26 c 0
 189 -9 97 69 97 160 c 0xec
 97 170 98 180 98 186 c 0
 98 201 105 229 120 244 c 0
 128 252 139 258 151 258 c 0
 173 258 191 240 191 215 c 0
EndSplineSet
Validated: 1
EndChar

StartChar: colon
Encoding: 58 58 82
Width: 296
Flags: HW
HStem: 161 160<64.75 136.458> 531 134<107.686 168.053>
VStem: 88 146<535.657 589.416> 102 105<606.325 659.322>
LayerCount: 2
Fore
SplineSet
52 244 m 0xc0
 52 291 76 321 104 321 c 0
 119 321 143 312 155 300 c 1
 165 306 185 319 202 319 c 0
 222 319 240 301 240 279 c 0
 240 263 231 249 216 242 c 0
 210 240 202 235 194 229 c 1
 189 215 175 204 160 203 c 1
 150 195 123 171 121 169 c 0
 115 164 106 161 97 161 c 0
 71 161 52 184 52 213 c 0
 52 220 53 234 53 236 c 0
 53 238 52 234 52 244 c 0xc0
151 665 m 0
 153 665 153 665 153 665 c 0
 188 665 207 647 207 626 c 0xd0
 207 617 204 610 200 604 c 1
 227 573 234 559 234 543 c 0
 234 517 217 499 195 499 c 0
 176 499 158 514 155 530 c 0
 154 536 152 536 142 533 c 0
 136 532 134 531 129 531 c 0
 105 531 88 550 88 577 c 0xe0
 88 583 89 585 104 606 c 1
 102 613 102 616 102 616 c 0xd0
 102 646 121 665 148 665 c 0
 148 665 149 665 151 665 c 0
EndSplineSet
Validated: 1
EndChar

StartChar: semicolon
Encoding: 59 59 83
Width: 416
Flags: HW
HStem: 53 80<51.0618 189.811>
VStem: 228 80<548.941 640.607> 265 83<459.289 525.814> 286 80<255.992 376.607>
LayerCount: 2
Fore
SplineSet
366 325 m 2x90
 366 287 303 53 121 53 c 0
 121 53 116 53 101 52 c 2
 85 51 l 2
 62 51 44 69 44 91 c 0
 44 116 68 130 117 133 c 2
 122 133 124 133 124 133 c 0
 199 133 264 214 286 329 c 1
 286 341 l 2
 286 363 304 381 326 381 c 0
 348 381 366 363 366 341 c 2
 366 325 l 2x90
228 605 m 2xc0
 228 627 246 645 268 645 c 0
 290 645 308 627 308 605 c 2
 308 604 l 1xc0
 318 577 310 568 319 562 c 0
 329 556 337 536 348 499 c 1xa0
 348 472 331 453 308 453 c 0xc0
 290 453 275 465 270 482 c 2
 265 498 l 1xa0
 230 522 240 564 232 578 c 0
 230 582 228 589 228 595 c 2
 228 605 l 2xc0
EndSplineSet
Validated: 1
EndChar

StartChar: less
Encoding: 60 60 84
Width: 817
Flags: HW
HStem: 101 76<719.658 769.607> 759 20G<605 629>
LayerCount: 2
Fore
SplineSet
628 779 m 0
 640 779 658 761 658 742 c 0
 658 721 636 703 551 654 c 0
 422 580 288 515 175 475 c 1
 285 406 410 360 669 221 c 0
 760 172 774 162 774 142 c 0
 774 119 756 101 746 101 c 0
 721 101 492 225 444 255 c 0
 356 309 194 350 80 445 c 0
 57 464 48 475 48 489 c 0
 48 511 69 525 126 542 c 0
 323 600 592 779 628 779 c 0
EndSplineSet
Validated: 1
EndChar

StartChar: equal
Encoding: 61 61 85
Width: 817
Flags: HW
HStem: 297 88<694.648 745.625> 524 81<58.393 669.686>
LayerCount: 2
Fore
SplineSet
698 385 m 0
 711 385 758 368 758 336 c 0
 758 315 739 297 716 297 c 0
 710 297 708 298 694 304 c 1
 176 249 l 2
 152 249 134 266 134 280 c 0
 134 317 253 338 653 380 c 0
 698 385 698 385 698 385 c 0
170 606 m 0
 182 606 196 605 245 605 c 0
 294 605 368 604 443 604 c 0
 518 604 579 605 634 607 c 1
 715 619 l 2
 739 619 758 602 758 581 c 0
 758 554 727 540 690 534 c 0
 628 525 445 524 407 524 c 0
 369 524 296 525 214 525 c 0
 200 525 l 0
 187 525 184 526 179 526 c 0
 172 526 115 524 105 524 c 0
 88 524 54 529 54 563 c 0
 54 587 72 605 96 605 c 0
 102 605 104 604 115 604 c 0
 131 604 154 606 170 606 c 0
EndSplineSet
Validated: 1
EndChar

StartChar: question
Encoding: 63 63 86
Width: 672
Flags: HW
HStem: -59 176<280.656 342.82> 443 75<142.063 175.659> 769 20G<233.5 370.5>
VStem: 52 80<522.251 659.711> 265 80<187.755 247 247.012 333.659> 276 80<-2.11453 112.607 185.381 228>
LayerCount: 2
Fore
SplineSet
356 1 m 0xf4
 356 -46 322 -53 294 -59 c 1
 269 -59 250 -42 250 -20 c 0
 250 -5 259 12 271 18 c 0
 274 20 275 20 275 24 c 0
 275 28 276 32 276 35 c 2
 276 77 l 2
 276 99 294 117 316 117 c 0
 338 117 356 99 356 77 c 2
 356 33 l 2
 356 30 355 30 355 26 c 0
 355 22 356 9 356 1 c 0xf4
266 247 m 2
 266 247 265 263 265 275 c 0
 265 444 472 488 541 583 c 1
 524 640 468 668 315 698 c 0
 288 703 276 706 263 706 c 0
 240 705 132 687 132 591 c 0
 132 560 143 525 160 518 c 0
 171 513 180 498 180 483 c 0
 180 461 162 443 139 443 c 0
 89 443 52 524 52 592 c 0
 52 728 199 789 241 789 c 0
 268 789 391 765 394 764 c 0
 478 748 541 716 578 675 c 0
 605 644 624 601 624 578 c 0
 624 567 620 559 615 551 c 0
 545 428 345 398 345 283 c 0xf8
 345 261 352 228 352 216 c 0
 352 196 333 179 312 179 c 0
 292 179 275 194 272 213 c 2
 270 228 l 2
 267 233 266 241 266 247 c 2
EndSplineSet
Validated: 1
EndChar

StartChar: greater
Encoding: 62 62 87
Width: 864
Flags: HW
HStem: 85 83<52.4488 135.45> 657 20G<190 205.5>
LayerCount: 2
Fore
SplineSet
161 638 m 4
 161 659 179 677 199 677 c 4
 210 677 220 672 248 654 c 4
 403 555 613 470 756 378 c 4
 805 347 819 332 819 315 c 4
 819 293 797 279 736 259 c 4
 571 206 322 179 111 94 c 4
 92 86 84 82 84 82 c 4
 84 82 86 84 86 85 c 4
 63 85 45 103 45 124 c 4
 45 153 80 167 96 173 c 4
 273 245 483 274 681 328 c 5
 517 424 339 501 219 578 c 4
 175 606 161 620 161 638 c 4
EndSplineSet
Validated: 1
EndChar

StartChar: underscore
Encoding: 95 95 88
Width: 979
Flags: HW
HStem: -29 80<69.393 330.219> -11 80<440.282 721.792> 0 80<212.14 686.625>
LayerCount: 2
Fore
SplineSet
448 80 m 0x20
 528 80 578 69 642 69 c 0
 642 69 651 69 655 69 c 0
 659 69 669 69 673 69 c 0
 677 69 687 69 687 69 c 0
 694 69 751 57 783 50 c 0
 848 37 852 35 861 30 c 0
 908 2 915 -11 915 -25 c 0
 915 -47 897 -65 875 -65 c 0
 868 -65 860 -63 854 -59 c 2
 820 -39 l 1
 688 -11 l 2
 684 -11 676 -11 673 -11 c 0
 670 -11 654 -11 654 -11 c 0x40
 578 -11 514 0 446 0 c 0x20
 335 0 206 -29 125 -29 c 2
 105 -29 l 2
 83 -29 65 -11 65 11 c 0
 65 33 83 51 105 51 c 2
 124 51 l 2x80
 230 54 326 80 448 80 c 0x20
EndSplineSet
Validated: 1
EndChar

StartChar: Eacute
Encoding: 131 201 89
Width: 903
Flags: HW
HStem: -37 80<198.706 652.169 793.48 852.57> -27 80<452.4 824.722> 381 82<52.053 96.677> 593 80<593.09 770.607> 732 79<59.393 96.9056> 797 21G<250 264.5> 797 21G<250 264.5> 805 20G<131 147>
VStem: 97 80<61.1799 369 462 708> 111 79<58.6433 297.625> 653 86<1046 1104.13>
LayerCount: 2
Fore
SplineSet
739 1068 m 4x3420
 739 1055 733 1049 733 1032 c 4
 733 999 712 984 651 957 c 4
 529 904 443 888 427 883 c 6
 280 802 l 6
 274 799 268 797 261 797 c 4
 239 797 221 815 221 837 c 4
 221 852 229 865 242 872 c 6
 398 958 l 6
 401 960 405 961 409 962 c 6
 509 983 l 5
 651 1044 652 1046 652 1046 c 4
 653 1046 653 1047 653 1047 c 4
 653 1077 665 1111 696 1111 c 4
 720 1111 739 1092 739 1068 c 4x3420
819 -41 m 4
 799 -41 755 -27 728 -27 c 4
 721 -27 711 -28 699 -28 c 4
 687 -28 677 -27 650 -27 c 4x7060
 565 -27 543 -37 438 -37 c 4
 351 -37 239 -30 183 -20 c 4
 130 -11 109 4 109 28 c 4
 109 36 111 35 111 47 c 4xb060
 111 77 97 196 97 197 c 6
 97 381 l 5
 81 383 l 6
 61 386 47 403 47 423 c 4
 47 445 65 463 90 463 c 4
 90 463 90 463 97 462 c 5
 97 729 l 5
 85 732 l 6
 67 737 55 753 55 771 c 4
 55 793 73 811 99 811 c 4xb8a0
 99 811 101 811 113 820 c 4
 113 820 125 825 137 825 c 4
 157 825 174 811 177 791 c 5
 620 673 l 5
 735 673 l 6
 757 673 775 655 775 633 c 4
 775 611 757 593 735 593 c 6
 615 593 l 6
 612 593 608 593 605 594 c 6
 177 708 l 5
 177 450 l 5
 423 415 l 6
 443 412 457 395 457 375 c 4
 457 352 438 335 414 335 c 6
 177 369 l 5
 177 201 l 5x31a0
 183 166 190 65 190 64 c 4
 190 61 281 43 429 43 c 4xb160
 540 43 561 53 641 53 c 4
 666 53 695 52 705 52 c 4
 715 52 723 53 735 53 c 4x7060
 752 53 767 51 781 46 c 6
 826 38 l 6
 845 35 859 19 859 0 c 4
 859 -21 843 -41 819 -41 c 4
EndSplineSet
Validated: 1
EndChar

StartChar: asciicircum
Encoding: 94 94 91
Width: 978
Flags: HW
HStem: 727 20G<383.5 393>
VStem: 816 112<357.449 407.808>
LayerCount: 2
Fore
SplineSet
883 341 m 1
 837 353 816 366 816 383 c 0
 816 390 812 394 801 403 c 0
 725 465 640 519 390 660 c 1
 278 581 141 389 84 389 c 0
 66 389 48 407 48 429 c 0
 48 443 56 455 82 475 c 0
 164 540 251 669 354 733 c 0
 371 744 379 747 398 747 c 0
 398 747 399 747 479 702 c 0
 720 566 821 501 894 431 c 0
 921 405 928 394 928 380 c 0
 928 358 909 341 883 341 c 1
EndSplineSet
Validated: 1
EndChar

StartChar: germandbls
Encoding: 167 223 92
Width: 705
Flags: HW
HStem: 391 90<229.818 381.608> 759 20G<199.5 287.5>
VStem: 64 80<-26.607 554.345> 393 80<490.053 612.946>
LayerCount: 2
Fore
SplineSet
286 92 m 0
 234 98 202 110 202 139 c 0
 202 160 220 177 244 177 c 2
 315 169 l 1
 378 178 462 175 522 193 c 0
 544 200 561 209 574 220 c 1
 547 298 442 364 300 391 c 0
 237 403 212 417 212 442 c 0
 212 463 230 481 254 481 c 0
 254 481 254 481 256 481 c 0
 258 481 260 481 260 481 c 0
 272 481 286 480 301 480 c 0
 345 480 380 488 389 504 c 0
 391 507 393 512 393 519 c 0
 393 530 388 537 388 549 c 0
 388 554 389 556 389 563 c 0
 389 623 311 695 238 699 c 1
 174 646 150 544 147 290 c 0
 146 241 145 221 144 196 c 2
 144 9 l 2
 144 -13 126 -31 104 -31 c 0
 82 -31 64 -13 64 9 c 2
 64 197 l 2
 64 198 65 211 66 248 c 0
 72 656 172 779 263 779 c 0
 348 779 469 672 469 569 c 0
 469 550 473 539 473 520 c 0
 473 483 458 454 432 434 c 1
 657 349 658 212 658 208 c 0
 658 171 579 108 357 94 c 0
 332 92 321 91 309 91 c 0
 303 91 296 91 286 92 c 0
EndSplineSet
Validated: 1
EndChar

StartChar: agrave
Encoding: 136 224 93
Width: 725
Flags: HW
HStem: 353 80<256 460 579 660.713> 739 21G<504.5 520> 753 20G<352 371>
VStem: 527 84<41.4836 316.389>
LayerCount: 2
Fore
SplineSet
460 433 m 1x90
 421 516 396 558 357 641 c 1
 321 572 287 503 256 433 c 1
 290 433 387 433 406 433 c 0
 425 433 446 433 460 433 c 1x90
549 779 m 0
 549 757 531 739 509 739 c 0xd0
 500 739 491 742 484 748 c 2
 176 998 l 2
 167 1006 161 1017 161 1029 c 0
 161 1051 179 1069 201 1069 c 0
 210 1069 219 1066 226 1060 c 2
 534 810 l 2
 543 802 549 791 549 779 c 0
45 59 m 0
 45 72 68 175 137 353 c 1
 116 356 101 373 101 393 c 0
 101 415 119 433 142 433 c 0
 147 433 147 432 151 432 c 0
 155 432 160 433 169 433 c 1
 210 529 264 640 300 704 c 0
 329 757 343 773 362 773 c 0xb0
 381 773 395 758 410 718 c 0
 436 648 502 538 545 442 c 0
 549 433 l 0
 641 427 675 414 675 386 c 0
 675 365 657 347 634 347 c 2
 579 351 l 1
 579 350 608 260 608 152 c 0
 608 147 608 142 608 137 c 0
 607 73 596 27 565 27 c 0
 545 27 527 45 527 68 c 2
 531 198 l 1
 527 246 514 296 493 353 c 1
 464 353 434 353 394 353 c 0
 354 353 303 353 223 353 c 1
 188 266 152 164 137 109 c 0
 121 51 107 29 84 29 c 0
 63 29 45 47 45 59 c 0
EndSplineSet
Validated: 1
EndChar

StartChar: aacute
Encoding: 135 225 94
Width: 881
Flags: HW
LayerCount: 2
Fore
SplineSet
840 -53 m 0
 840 -75 822 -95 798 -95 c 0
 776 -95 764 -79 759 -72 c 0
 751 -64 746 -54 746 -43 c 1
 672 75 614 204 566 336 c 1
 520 343 475 347 425 347 c 0
 423 347 420 347 418 347 c 0
 400 342 384 340 368 340 c 0
 348 340 331 343 314 345 c 1
 255 221 191 97 116 -19 c 0
 109 -30 96 -37 82 -37 c 0
 60 -37 42 -19 42 3 c 0
 42 11 44 18 48 25 c 0
 116 129 175 241 230 355 c 1
 222 362 216 373 216 385 c 0
 216 404 230 420 248 424 c 0
 253 425 258 426 263 427 c 1
 286 476 308 524 330 573 c 0
 367 655 404 737 442 815 c 0
 449 828 462 837 478 837 c 0
 497 837 513 824 517 806 c 0
 546 674 580 539 625 408 c 1
 631 407 638 406 644 405 c 2
 714 401 l 2
 735 400 752 382 752 361 c 0
 752 339 734 321 712 321 c 0
 708 321 678 323 656 324 c 1
 704 198 761 78 833 -31 c 0
 837 -38 840 -45 840 -53 c 0
242 791 m 0
 220 791 202 809 202 831 c 0
 202 835 203 856 224 867 c 0
 349 932 478 1000 564 1096 c 0
 568 1100 578 1109 594 1109 c 0
 599 1109 617 1108 628 1090 c 0
 672 1017 667 920 699 855 c 0
 703 851 712 842 712 825 c 0
 712 803 694 785 672 785 c 0
 655 785 648 793 638 803 c 0
 635 806 633 809 631 812 c 0
 608 855 599 901 591 942 c 0
 587 962 583 981 579 998 c 1
 484 911 365 850 260 795 c 0
 254 792 248 791 242 791 c 0
537 420 m 1
 509 505 486 591 465 676 c 1
 444 632 424 586 403 540 c 0
 385 501 367 461 349 421 c 1
 355 420 362 420 368 420 c 0
 393 420 398 427 411 427 c 0
 415 427 421 427 425 427 c 0
 465 427 501 424 537 420 c 1
EndSplineSet
Validated: 1
EndChar

StartChar: adieresis
Encoding: 138 228 95
Width: 751
Flags: HW
HStem: 365 80<264 521> 795 20G<380 399.5> 836 151<506.333 589.34> 858 135<146.838 240.138>
VStem: 44 82<22.5796 126.381> 132 125<873.662 975.316> 470 158<876.823 960.717> 588 80<130.834 339.163> 616 80<41.5459 159.799>
LayerCount: 2
Fore
SplineSet
521 445 m 1xcc
 490 511 460 568 387 696 c 1
 345 623 304 540 264 443 c 1
 521 445 l 1xcc
539 836 m 0xee
 487 836 470 898 470 922 c 0
 470 946 487 963 506 965 c 1
 513 978 525 986 540 986 c 0
 541 986 542 986 543 986 c 0
 553 986 592 982 606 975 c 0
 616 970 628 957 628 934 c 0
 628 891 587 836 539 836 c 0xee
132 916 m 0
 132 928 138 933 138 947 c 0
 138 973 159 993 189 993 c 0
 226 993 257 964 257 924 c 0
 257 903 249 858 200 858 c 0xdc
 159 858 132 890 132 916 c 0
651 353 m 0
 651 324 668 315 668 242 c 0
 668 232 l 0xcd
 668 169 696 143 696 94 c 0
 696 57 680 37 656 37 c 0
 634 37 616 55 616 80 c 0xcc80
 615 111 588 141 588 222 c 0
 588 248 l 0xcd
 588 276 577 312 556 365 c 1
 232 363 l 2
 231 360 126 72 126 45 c 0
 126 34 107 17 88 17 c 0
 70 17 44 33 44 48 c 0
 44 72 111 269 150 373 c 1
 141 381 136 391 136 403 c 0
 136 425 154 443 160 443 c 0
 180 443 246 629 333 762 c 0
 359 802 372 815 391 815 c 0
 411 815 419 801 449 749 c 0
 538 591 570 532 604 457 c 1
 610 464 629 485 651 485 c 0
 672 485 690 467 690 444 c 0
 690 430 684 420 666 406 c 1
 665 370 651 379 651 353 c 0
EndSplineSet
Validated: 1
EndChar

StartChar: Ecircumflex
Encoding: 230 202 96
Width: 859
Flags: HW
HStem: 46 82<220.594 490.707> 120 97<727.677 789.982> 399 80<96.4191 135.799 216 503.722> 698 80<44.4976 136 216 324.323> 749 80<372.588 687.492> 777 20G<169 182> 777 20G<169 182> 837 21G<177 195>
VStem: 136 80<128 399 479 699>
LayerCount: 2
Fore
SplineSet
596 881 m 0x2180
 561 881 540 940 391 1072 c 1
 362 1036 236 872 224 857 c 0
 214 845 202 837 188 837 c 0
 166 837 148 855 148 875 c 0
 148 888 155 898 173 920 c 0
 219 978 290 1079 336 1133 c 0
 360 1160 372 1169 382 1169 c 0
 423 1169 575 1006 611 963 c 0
 628 943 634 932 634 920 c 0
 634 899 616 881 596 881 c 0x2180
254 47 m 0
 251 47 245 48 239 48 c 0
 231 48 221 46 211 46 c 0
 194 46 141 51 141 122 c 0
 141 144 136 165 136 340 c 0
 136 340 136 344 136 358 c 0
 136 372 136 399 122 399 c 0
 110 399 92 417 92 439 c 0
 92 461 110 479 132 479 c 2
 136 479 l 1
 136 493 136 507 136 699 c 1
 131 699 125 698 113 698 c 0
 101 698 101 699 92 699 c 0
 58 699 40 715 40 738 c 0
 40 761 58 779 80 779 c 2
 92 779 l 2
 102 779 111 778 119 778 c 0xb180
 127 778 135 779 142 779 c 1
 149 790 162 797 176 797 c 0x2580
 188 797 198 792 206 783 c 1
 328 796 450 829 580 829 c 0
 629 829 l 1
 682 816 704 802 704 778 c 0
 704 756 685 739 659 739 c 1
 642 743 l 2
 625 747 618 748 615 748 c 0
 612 748 599 749 578 749 c 0
 461 749 337 717 216 704 c 1
 216 521 l 2
 216 508 216 494 216 479 c 1
 234 479 253 478 284 478 c 0
 315 478 383 479 435 479 c 0
 435 479 453 479 463 479 c 0
 473 479 484 479 484 479 c 0
 497 479 546 462 546 428 c 0
 546 408 528 391 504 391 c 0
 498 391 496 392 486 395 c 0
 474 399 469 399 455 399 c 0
 441 399 430 399 430 399 c 0
 409 399 301 398 277 398 c 0
 253 398 234 399 216 399 c 1
 216 371 216 354 216 354 c 0
 216 248 218 186 222 128 c 1xa980
 229 129 233 129 242 129 c 0
 251 129 264 129 292 129 c 0
 566 129 644 154 720 190 c 1
 749 210 l 2
 756 215 763 217 771 217 c 0
 793 217 812 199 812 181 c 0
 812 151 761 120 729 104 c 0x6180
 661 72 570 55 332 49 c 0
 276 48 257 47 254 47 c 0
EndSplineSet
Validated: 1
EndChar

StartChar: Agrave
Encoding: 203 192 97
Width: 725
Flags: HW
HStem: 353 80<256 460 579 660.713> 739 21G<504.5 520> 753 20G<352 371>
VStem: 527 84<41.4836 316.389>
LayerCount: 2
Fore
SplineSet
460 433 m 1x90
 421 516 396 558 357 641 c 1
 321 572 287 503 256 433 c 1
 290 433 387 433 406 433 c 0
 425 433 446 433 460 433 c 1x90
549 779 m 0
 549 757 531 739 509 739 c 0xd0
 500 739 491 742 484 748 c 2
 176 998 l 2
 167 1006 161 1017 161 1029 c 0
 161 1051 179 1069 201 1069 c 0
 210 1069 219 1066 226 1060 c 2
 534 810 l 2
 543 802 549 791 549 779 c 0
45 59 m 0
 45 72 68 175 137 353 c 1
 116 356 101 373 101 393 c 0
 101 415 119 433 142 433 c 0
 147 433 147 432 151 432 c 0
 155 432 160 433 169 433 c 1
 210 529 264 640 300 704 c 0
 329 757 343 773 362 773 c 0xb0
 381 773 395 758 410 718 c 0
 436 648 502 538 545 442 c 0
 549 433 l 0
 641 427 675 414 675 386 c 0
 675 365 657 347 634 347 c 2
 579 351 l 1
 579 350 608 260 608 152 c 0
 608 147 608 142 608 137 c 0
 607 73 596 27 565 27 c 0
 545 27 527 45 527 68 c 2
 531 198 l 1
 527 246 514 296 493 353 c 1
 464 353 434 353 394 353 c 0
 354 353 303 353 223 353 c 1
 188 266 152 164 137 109 c 0
 121 51 107 29 84 29 c 0
 63 29 45 47 45 59 c 0
EndSplineSet
Validated: 1
EndChar

StartChar: Adieresis
Encoding: 128 196 98
Width: 751
Flags: HW
HStem: 365 80<264 521> 795 20G<380 399.5> 836 151<506.333 589.34> 858 135<146.838 240.138>
VStem: 44 82<22.5796 126.381> 132 125<873.662 975.316> 470 158<876.823 960.717> 588 80<130.834 339.163> 616 80<41.5459 159.799>
LayerCount: 2
Fore
SplineSet
521 445 m 1xcc
 490 511 460 568 387 696 c 1
 345 623 304 540 264 443 c 1
 521 445 l 1xcc
539 836 m 0xee
 487 836 470 898 470 922 c 0
 470 946 487 963 506 965 c 1
 513 978 525 986 540 986 c 0
 541 986 542 986 543 986 c 0
 553 986 592 982 606 975 c 0
 616 970 628 957 628 934 c 0
 628 891 587 836 539 836 c 0xee
132 916 m 0
 132 928 138 933 138 947 c 0
 138 973 159 993 189 993 c 0
 226 993 257 964 257 924 c 0
 257 903 249 858 200 858 c 0xdc
 159 858 132 890 132 916 c 0
651 353 m 0
 651 324 668 315 668 242 c 0
 668 232 l 0xcd
 668 169 696 143 696 94 c 0
 696 57 680 37 656 37 c 0
 634 37 616 55 616 80 c 0xcc80
 615 111 588 141 588 222 c 0
 588 248 l 0xcd
 588 276 577 312 556 365 c 1
 232 363 l 2
 231 360 126 72 126 45 c 0
 126 34 107 17 88 17 c 0
 70 17 44 33 44 48 c 0
 44 72 111 269 150 373 c 1
 141 381 136 391 136 403 c 0
 136 425 154 443 160 443 c 0
 180 443 246 629 333 762 c 0
 359 802 372 815 391 815 c 0
 411 815 419 801 449 749 c 0
 538 591 570 532 604 457 c 1
 610 464 629 485 651 485 c 0
 672 485 690 467 690 444 c 0
 690 430 684 420 666 406 c 1
 665 370 651 379 651 353 c 0
EndSplineSet
Validated: 1
EndChar

StartChar: ccedilla
Encoding: 141 231 99
Width: 769
Flags: HW
HStem: -192 81<352.79 464.344> -171 92<335 376.145> -60 80<439 491.027> 30 80<305.749 359 439 594.619> 823 20G<394 404>
VStem: 54 80<245.688 480.735> 634 80<149.391 276>
LayerCount: 2
Fore
SplineSet
416 -191 m 0xbe
 409 -191 407 -192 402 -192 c 0xbe
 379 -192 336 -171 335 -171 c 2
 305 -153 l 2
 293 -146 285 -133 285 -119 c 0
 285 -97 303 -79 325 -79 c 0x7e
 332 -79 340 -81 346 -85 c 2
 370 -99 l 2
 383 -103 397 -111 408 -111 c 0
 409 -111 l 0
 430 -111 466 -92 493 -68 c 1
 482 -63 468 -60 459 -60 c 0
 448 -60 429 -65 414 -65 c 0
 379 -65 357 -39 357 -10 c 0
 357 -4 358 2 359 8 c 2
 359 37 l 1
 274 50 64 104 54 330 c 0
 54 333 54 343 54 343 c 0
 54 552 187 755 369 834 c 0
 385 841 391 843 396 843 c 0
 411 843 475 821 581 697 c 0
 590 686 590 686 628 624 c 0
 700 504 703 497 703 489 c 2
 703 485 l 2
 703 463 685 445 663 445 c 0
 644 445 628 458 624 476 c 1
 526 639 481 715 397 759 c 1
 242 683 134 515 134 298 c 0
 134 298 134 206 239 157 c 0
 262 147 346 113 388 113 c 0
 400 113 428 110 450 110 c 0
 472 110 499 113 510 113 c 0
 521 113 528 110 542 110 c 0
 596 110 634 157 634 223 c 0
 634 241 631 251 631 263 c 2
 631 276 l 1
 623 300 l 1
 623 327 640 347 662 347 c 0
 697 347 711 293 711 283 c 2
 711 266 l 2
 713 253 714 241 714 228 c 0
 714 115 643 30 546 30 c 0
 536 30 514 31 500 31 c 0
 486 31 468 30 448 30 c 0
 448 30 443 30 439 30 c 1
 439 18 l 1
 450 20 457 20 457 20 c 0
 523 20 585 -22 585 -64 c 0
 585 -121 473 -191 416 -191 c 0xbe
EndSplineSet
Validated: 1
EndChar

StartChar: Ccedilla
Encoding: 130 199 100
Width: 769
Flags: HW
HStem: -192 81<352.79 464.344> -171 92<335 376.145> -60 80<439 491.027> 30 80<305.749 359 439 594.619> 823 20G<394 404>
VStem: 54 80<245.688 480.735> 634 80<149.391 276>
LayerCount: 2
Fore
SplineSet
416 -191 m 0xbe
 409 -191 407 -192 402 -192 c 0xbe
 379 -192 336 -171 335 -171 c 2
 305 -153 l 2
 293 -146 285 -133 285 -119 c 0
 285 -97 303 -79 325 -79 c 0x7e
 332 -79 340 -81 346 -85 c 2
 370 -99 l 2
 383 -103 397 -111 408 -111 c 0
 409 -111 l 0
 430 -111 466 -92 493 -68 c 1
 482 -63 468 -60 459 -60 c 0
 448 -60 429 -65 414 -65 c 0
 379 -65 357 -39 357 -10 c 0
 357 -4 358 2 359 8 c 2
 359 37 l 1
 274 50 64 104 54 330 c 0
 54 333 54 343 54 343 c 0
 54 552 187 755 369 834 c 0
 385 841 391 843 396 843 c 0
 411 843 475 821 581 697 c 0
 590 686 590 686 628 624 c 0
 700 504 703 497 703 489 c 2
 703 485 l 2
 703 463 685 445 663 445 c 0
 644 445 628 458 624 476 c 1
 526 639 481 715 397 759 c 1
 242 683 134 515 134 298 c 0
 134 298 134 206 239 157 c 0
 262 147 346 113 388 113 c 0
 400 113 428 110 450 110 c 0
 472 110 499 113 510 113 c 0
 521 113 528 110 542 110 c 0
 596 110 634 157 634 223 c 0
 634 241 631 251 631 263 c 2
 631 276 l 1
 623 300 l 1
 623 327 640 347 662 347 c 0
 697 347 711 293 711 283 c 2
 711 266 l 2
 713 253 714 241 714 228 c 0
 714 115 643 30 546 30 c 0
 536 30 514 31 500 31 c 0
 486 31 468 30 448 30 c 0
 448 30 443 30 439 30 c 1
 439 18 l 1
 450 20 457 20 457 20 c 0
 523 20 585 -22 585 -64 c 0
 585 -121 473 -191 416 -191 c 0xbe
EndSplineSet
Validated: 1
EndChar

StartChar: Egrave
Encoding: 233 200 101
Width: 672
Flags: HW
HStem: -30 80<177.409 558.179> 329 80<293.517 512> 356 80<165 398.885> 690 80<49.8577 85 165 183 183.008 413.612> 795 20G<114 136> 811 21G<458.5 474>
VStem: 85 80<36.5067 355 435 685 770 810.607>
LayerCount: 2
Fore
SplineSet
503 851 m 0x96
 503 829 485 811 463 811 c 0
 454 811 446 814 439 819 c 2
 129 1052 l 1
 110 1063 l 2
 98 1070 91 1083 91 1097 c 0
 91 1119 109 1137 127 1137 c 0
 146 1137 175 1117 175 1117 c 2
 487 883 l 2
 497 875 503 864 503 851 c 0x96
613 37 m 0
 613 22 602 -34 427 -34 c 0
 380 -34 335 -30 292 -30 c 0
 156 -30 182 -69 146 -69 c 0
 119 -69 104 -48 102 -11 c 0
 100 23 85 84 85 97 c 2
 85 358 l 1
 69 364 59 378 59 395 c 0
 59 412 69 426 85 432 c 1
 85 685 l 1
 84 685 84 685 84 685 c 0
 61 685 43 703 43 726 c 0
 43 745 55 761 85 767 c 1
 85 775 l 2
 85 797 103 815 125 815 c 0
 147 815 165 797 165 775 c 2
 165 770 l 1
 166 770 l 0
 170 770 179 771 181 771 c 0
 183 771 193 770 229 770 c 0
 416 767 502 741 557 701 c 1
 587 684 l 2
 600 677 607 663 607 649 c 0
 607 627 589 609 573 609 c 0
 554 609 513 633 496 646 c 0
 454 677 385 690 166 690 c 0
 165 690 l 1
 165 435 l 1
 177 435 212 436 230 436 c 0xba
 321 436 357 409 505 409 c 0
 513 409 l 0
 528 409 533 407 539 404 c 2
 585 380 l 2
 598 373 607 360 607 345 c 0
 607 323 589 305 568 305 c 0
 561 305 555 307 549 310 c 2
 512 329 l 2
 507 329 501 329 501 329 c 0xd2
 349 329 313 356 228 356 c 0xb2
 212 356 185 355 165 355 c 1
 165 101 l 1
 173 58 174 51 176 35 c 1
 206 45 240 50 289 50 c 0
 332 50 377 46 422 46 c 0
 543 46 547 75 574 75 c 0
 595 75 613 57 613 37 c 0
EndSplineSet
Validated: 1
EndChar

StartChar: egrave
Encoding: 143 232 102
Width: 672
Flags: HW
HStem: -30 80<177.409 558.179> 329 80<293.517 512> 356 80<165 398.885> 690 80<49.8577 85 165 183 183.008 413.612> 795 20G<114 136> 811 21G<458.5 474>
VStem: 85 80<36.5067 355 435 685 770 810.607>
LayerCount: 2
Fore
SplineSet
503 851 m 0x96
 503 829 485 811 463 811 c 0
 454 811 446 814 439 819 c 2
 129 1052 l 1
 110 1063 l 2
 98 1070 91 1083 91 1097 c 0
 91 1119 109 1137 127 1137 c 0
 146 1137 175 1117 175 1117 c 2
 487 883 l 2
 497 875 503 864 503 851 c 0x96
613 37 m 0
 613 22 602 -34 427 -34 c 0
 380 -34 335 -30 292 -30 c 0
 156 -30 182 -69 146 -69 c 0
 119 -69 104 -48 102 -11 c 0
 100 23 85 84 85 97 c 2
 85 358 l 1
 69 364 59 378 59 395 c 0
 59 412 69 426 85 432 c 1
 85 685 l 1
 84 685 84 685 84 685 c 0
 61 685 43 703 43 726 c 0
 43 745 55 761 85 767 c 1
 85 775 l 2
 85 797 103 815 125 815 c 0
 147 815 165 797 165 775 c 2
 165 770 l 1
 166 770 l 0
 170 770 179 771 181 771 c 0
 183 771 193 770 229 770 c 0
 416 767 502 741 557 701 c 1
 587 684 l 2
 600 677 607 663 607 649 c 0
 607 627 589 609 573 609 c 0
 554 609 513 633 496 646 c 0
 454 677 385 690 166 690 c 0
 165 690 l 1
 165 435 l 1
 177 435 212 436 230 436 c 0xba
 321 436 357 409 505 409 c 0
 513 409 l 0
 528 409 533 407 539 404 c 2
 585 380 l 2
 598 373 607 360 607 345 c 0
 607 323 589 305 568 305 c 0
 561 305 555 307 549 310 c 2
 512 329 l 2
 507 329 501 329 501 329 c 0xd2
 349 329 313 356 228 356 c 0xb2
 212 356 185 355 165 355 c 1
 165 101 l 1
 173 58 174 51 176 35 c 1
 206 45 240 50 289 50 c 0
 332 50 377 46 422 46 c 0
 543 46 547 75 574 75 c 0
 595 75 613 57 613 37 c 0
EndSplineSet
Validated: 1
EndChar

StartChar: ecircumflex
Encoding: 144 234 103
Width: 859
Flags: HW
HStem: 46 82<220.594 490.707> 120 97<727.677 789.982> 399 80<96.4191 135.799 216 503.722> 698 80<44.4976 136 216 324.323> 749 80<372.588 687.492> 777 20G<169 182> 777 20G<169 182> 837 21G<177 195>
VStem: 136 80<128 399 479 699>
LayerCount: 2
Fore
SplineSet
596 881 m 0x2180
 561 881 540 940 391 1072 c 1
 362 1036 236 872 224 857 c 0
 214 845 202 837 188 837 c 0
 166 837 148 855 148 875 c 0
 148 888 155 898 173 920 c 0
 219 978 290 1079 336 1133 c 0
 360 1160 372 1169 382 1169 c 0
 423 1169 575 1006 611 963 c 0
 628 943 634 932 634 920 c 0
 634 899 616 881 596 881 c 0x2180
254 47 m 0
 251 47 245 48 239 48 c 0
 231 48 221 46 211 46 c 0
 194 46 141 51 141 122 c 0
 141 144 136 165 136 340 c 0
 136 340 136 344 136 358 c 0
 136 372 136 399 122 399 c 0
 110 399 92 417 92 439 c 0
 92 461 110 479 132 479 c 2
 136 479 l 1
 136 493 136 507 136 699 c 1
 131 699 125 698 113 698 c 0
 101 698 101 699 92 699 c 0
 58 699 40 715 40 738 c 0
 40 761 58 779 80 779 c 2
 92 779 l 2
 102 779 111 778 119 778 c 0xb180
 127 778 135 779 142 779 c 1
 149 790 162 797 176 797 c 0x2580
 188 797 198 792 206 783 c 1
 328 796 450 829 580 829 c 0
 629 829 l 1
 682 816 704 802 704 778 c 0
 704 756 685 739 659 739 c 1
 642 743 l 2
 625 747 618 748 615 748 c 0
 612 748 599 749 578 749 c 0
 461 749 337 717 216 704 c 1
 216 521 l 2
 216 508 216 494 216 479 c 1
 234 479 253 478 284 478 c 0
 315 478 383 479 435 479 c 0
 435 479 453 479 463 479 c 0
 473 479 484 479 484 479 c 0
 497 479 546 462 546 428 c 0
 546 408 528 391 504 391 c 0
 498 391 496 392 486 395 c 0
 474 399 469 399 455 399 c 0
 441 399 430 399 430 399 c 0
 409 399 301 398 277 398 c 0
 253 398 234 399 216 399 c 1
 216 371 216 354 216 354 c 0
 216 248 218 186 222 128 c 1xa980
 229 129 233 129 242 129 c 0
 251 129 264 129 292 129 c 0
 566 129 644 154 720 190 c 1
 749 210 l 2
 756 215 763 217 771 217 c 0
 793 217 812 199 812 181 c 0
 812 151 761 120 729 104 c 0x6180
 661 72 570 55 332 49 c 0
 276 48 257 47 254 47 c 0
EndSplineSet
Validated: 1
EndChar

StartChar: Edieresis
Encoding: 232 203 104
Width: 906
Flags: HW
HStem: -61 84<532.557 820.846> 382 79<50.393 92.8601> 817 20G<125.5 139>
VStem: 86 80<462.2 733> 513 80<905.384 974.994> 650 80<899 964.164>
LayerCount: 2
Fore
SplineSet
132 797 m 1028
569 1033 m 4
 587 1033 589 1055 624 1055 c 5
 651 1049 659 1046 673 1034 c 4
 708 1003 730 959 730 913 c 4
 730 913 730 913 730 910 c 4
 730 907 730 896 730 896 c 4
 730 837 696 817 655 817 c 4
 624 817 513 829 513 921 c 4
 513 957 530 981 534 1000 c 4
 539 1020 555 1033 569 1033 c 4
610 972 m 4
 605 955 593 934 593 923 c 4
 593 916 597 905 650 899 c 5
 650 902 650 905 650 914 c 4
 650 923 650 944 619 974 c 5
 616 975 614 975 614 975 c 4
 611 975 611 974 610 972 c 4
368 935 m 4
 368 898 344 875 306 875 c 4
 295 875 303 877 276 879 c 4
 201 884 150 908 150 962 c 4
 150 998 172 1020 177 1035 c 4
 182 1049 198 1059 215 1059 c 4
 220 1059 226 1058 232 1055 c 5
 239 1067 252 1073 262 1073 c 4
 282 1073 318 1046 328 1036 c 4
 344 1019 351 984 360 967 c 4
 365 959 368 948 368 935 c 4
248 997 m 5
 242 985 236 976 231 966 c 5
 240 963 250 961 277 959 c 5
 271 974 268 980 265 985 c 6
 248 997 l 5
103 831 m 4
 111 831 119 837 132 837 c 4
 146 837 159 829 166 817 c 5
 458 739 458 740 460 739 c 6
 718 645 l 6
 734 639 744 624 744 607 c 4
 744 585 726 567 699 567 c 4
 699 567 694 567 690 569 c 6
 434 663 l 5
 172 733 l 5
 172 691 l 6
 172 658 166 624 166 579 c 4
 166 547 169 501 175 446 c 5
 557 378 l 6
 576 375 590 358 590 339 c 4
 590 317 572 299 553 299 c 4
 548 299 545 300 543 300 c 6
 187 363 l 5
 219 144 219 144 223 94 c 5
 266 61 363 39 661 29 c 4
 716 27 732 27 755 25 c 4
 766 24 773 23 778 23 c 4
 797 23 797 39 821 39 c 4
 845 39 862 22 862 -3 c 4
 862 -53 792 -61 788 -61 c 4
 788 -61 785 -61 775 -60 c 4
 640 -40 369 -62 212 7 c 4
 147 36 144 62 142 90 c 4
 140 132 134 176 118 281 c 4
 110 335 107 353 104 377 c 5
 79 382 l 6
 60 385 46 402 46 421 c 4
 46 443 64 461 83 461 c 4
 88 461 90 460 93 460 c 5
 88 507 86 550 86 588 c 4
 86 626 88 660 92 693 c 6
 92 755 l 5
 78 762 70 776 70 791 c 4
 70 813 88 831 103 831 c 4
EndSplineSet
Validated: 1
EndChar

StartChar: edieresis
Encoding: 145 235 105
Width: 906
Flags: HW
HStem: -61 84<532.557 820.846> 382 79<50.393 92.8601> 817 20G<125.5 139>
VStem: 86 80<462.2 733> 513 80<905.384 974.994> 650 80<899 964.164>
LayerCount: 2
Fore
SplineSet
132 797 m 1028
569 1033 m 4
 587 1033 589 1055 624 1055 c 5
 651 1049 659 1046 673 1034 c 4
 708 1003 730 959 730 913 c 4
 730 913 730 913 730 910 c 4
 730 907 730 896 730 896 c 4
 730 837 696 817 655 817 c 4
 624 817 513 829 513 921 c 4
 513 957 530 981 534 1000 c 4
 539 1020 555 1033 569 1033 c 4
610 972 m 4
 605 955 593 934 593 923 c 4
 593 916 597 905 650 899 c 5
 650 902 650 905 650 914 c 4
 650 923 650 944 619 974 c 5
 616 975 614 975 614 975 c 4
 611 975 611 974 610 972 c 4
368 935 m 4
 368 898 344 875 306 875 c 4
 295 875 303 877 276 879 c 4
 201 884 150 908 150 962 c 4
 150 998 172 1020 177 1035 c 4
 182 1049 198 1059 215 1059 c 4
 220 1059 226 1058 232 1055 c 5
 239 1067 252 1073 262 1073 c 4
 282 1073 318 1046 328 1036 c 4
 344 1019 351 984 360 967 c 4
 365 959 368 948 368 935 c 4
248 997 m 5
 242 985 236 976 231 966 c 5
 240 963 250 961 277 959 c 5
 271 974 268 980 265 985 c 6
 248 997 l 5
103 831 m 4
 111 831 119 837 132 837 c 4
 146 837 159 829 166 817 c 5
 458 739 458 740 460 739 c 6
 718 645 l 6
 734 639 744 624 744 607 c 4
 744 585 726 567 699 567 c 4
 699 567 694 567 690 569 c 6
 434 663 l 5
 172 733 l 5
 172 691 l 6
 172 658 166 624 166 579 c 4
 166 547 169 501 175 446 c 5
 557 378 l 6
 576 375 590 358 590 339 c 4
 590 317 572 299 553 299 c 4
 548 299 545 300 543 300 c 6
 187 363 l 5
 219 144 219 144 223 94 c 5
 266 61 363 39 661 29 c 4
 716 27 732 27 755 25 c 4
 766 24 773 23 778 23 c 4
 797 23 797 39 821 39 c 4
 845 39 862 22 862 -3 c 4
 862 -53 792 -61 788 -61 c 4
 788 -61 785 -61 775 -60 c 4
 640 -40 369 -62 212 7 c 4
 147 36 144 62 142 90 c 4
 140 132 134 176 118 281 c 4
 110 335 107 353 104 377 c 5
 79 382 l 6
 60 385 46 402 46 421 c 4
 46 443 64 461 83 461 c 4
 88 461 90 460 93 460 c 5
 88 507 86 550 86 588 c 4
 86 626 88 660 92 693 c 6
 92 755 l 5
 78 762 70 776 70 791 c 4
 70 813 88 831 103 831 c 4
EndSplineSet
Validated: 1
EndChar

StartChar: Ntilde
Encoding: 132 209 106
Width: 814
Flags: HW
HStem: 819 20G<621.5 649.5> 997 83<172.431 303.224>
VStem: 50 82<-15.6289 165.305> 82 80<84.2558 693.578> 523 83<1029.2 1129.49> 561 80<472.28 767.259>
LayerCount: 2
Fore
SplineSet
445 907 m 0xc8
 378 907 304 997 238 997 c 0
 233 997 l 0
 223 997 220 1000 214 1000 c 0
 196 1000 167 977 160 961 c 0
 155 948 139 939 124 939 c 0
 102 939 84 957 84 979 c 0
 84 1022 157 1080 216 1080 c 0
 229 1080 236 1077 252 1077 c 0
 335 1077 394 998 457 988 c 1
 494 1008 519 1047 522 1077 c 0
 523 1094 534 1137 566 1137 c 0
 588 1137 606 1118 606 1096 c 0
 606 1091 605 1089 602 1069 c 0
 588 969 501 907 445 907 c 0xc8
50 14 m 0xe0
 50 34 82 168 82 318 c 0
 82 356 80 382 80 405 c 2
 80 645 l 2
 80 714 100 733 100 813 c 0
 100 835 l 0
 100 866 119 883 139 883 c 0
 159 883 173 866 196 816 c 0
 250 698 338 580 546 342 c 0
 599 281 611 269 622 256 c 1
 596 362 579 475 565 650 c 0
 561 698 561 707 561 707 c 0
 561 773 604 839 641 839 c 0
 660 839 678 821 678 799 c 0
 678 787 673 776 663 768 c 1
 648 743 641 726 641 712 c 0
 641 707 642 705 646 658 c 0
 666 387 698 231 758 98 c 0
 766 80 768 74 768 67 c 0
 768 45 750 27 730 27 c 0
 713 27 698 40 660 88 c 0
 531 252 316 458 173 695 c 1
 170 675 166 657 160 639 c 1
 160 406 l 2
 161 382 162 358 162 328 c 0xd4
 162 164 132 33 132 13 c 0
 132 -3 114 -21 92 -21 c 0
 69 -21 50 -1 50 14 c 0xe0
EndSplineSet
Validated: 1
EndChar

StartChar: Odieresis
Encoding: 133 214 107
Width: 783
Flags: HW
HStem: 38 80<309.349 503.325> 706 89<307.709 420.626> 707 80<304.838 420.626> 904 175<208.884 297.302>
VStem: 54 80<295.737 519.133> 152 168<936.063 1041.45> 477 171<920.509 1009.95> 642 80<301.136 581.1>
LayerCount: 2
Fore
SplineSet
477 944 m 4x9e
 477 951 478 952 478 962 c 4
 478 998 492 1019 518 1019 c 4
 528 1019 537 1016 544 1011 c 5
 551 1026 564 1035 575 1035 c 4
 582 1035 648 1032 648 976 c 4
 648 928 598 880 546 880 c 4
 507 880 477 907 477 944 c 4x9e
320 960 m 6
 320 927 301 904 271 904 c 4
 271 904 268 904 265 904 c 6
 258 904 l 4
 195 904 152 942 152 995 c 4
 152 995 152 998 152 1001 c 6
 152 1007 l 6
 152 1029 170 1047 191 1047 c 4
 196 1047 201 1046 205 1045 c 5
 208 1065 225 1079 250 1079 c 4
 291 1079 320 1043 320 984 c 4
 320 984 320 978 320 974 c 4
 320 970 320 968 320 966 c 4
 320 964 320 962 320 960 c 6
410 118 m 4
 630 118 642 397 642 458 c 4
 642 461 l 4
 642 472 643 477 643 489 c 4
 643 588 571 684 486 697 c 4
 464 700 443 709 421 713 c 5
 413 708 406 706 396 706 c 4xdd
 389 706 380 707 376 707 c 4
 376 707 374 707 366 706 c 4xbd
 243 691 134 554 134 407 c 4
 134 249 259 118 410 118 c 4
373 787 m 4xbd
 385 787 381 795 406 795 c 4xdd
 429 795 455 788 487 778 c 5
 599 760 723 657 723 479 c 4
 723 479 723 472 723 467 c 4
 722 461 722 458 722 458 c 4
 722 196 606 38 413 38 c 4
 216 38 54 202 54 406 c 4
 54 596 195 767 360 786 c 4
 370 787 373 787 373 787 c 4xbd
EndSplineSet
Validated: 1
EndChar

StartChar: Udieresis
Encoding: 134 220 108
Width: 755
Flags: HW
HStem: 33 80<290.682 455.878> 801 20G<584.5 607> 945 198<446.841 520.812> 976 156<170.853 251.484>
VStem: 54 82<366.361 844.989> 151 129<986.994 1100.62> 408 158<964.753 1085.12> 556 86<674.934 810.413> 615 80<330.597 601.26>
LayerCount: 2
Fore
SplineSet
566 1043 m 0xde
 566 1010 l 0
 566 982 545 945 503 945 c 0
 496 945 l 0
 442 945 408 972 408 1017 c 0
 408 1028 410 1029 410 1039 c 0
 410 1066 424 1087 444 1092 c 1
 443 1096 442 1099 442 1104 c 0
 442 1125 460 1143 482 1143 c 0xee
 492 1143 502 1139 509 1132 c 2
 545 1098 l 2
 554 1090 566 1064 566 1043 c 0xde
151 1029 m 0
 151 1040 154 1055 154 1068 c 0
 154 1083 159 1093 167 1101 c 1
 172 1120 189 1132 209 1132 c 0
 254 1132 280 1067 280 1047 c 0
 280 1046 l 0
 280 1037 l 0
 280 1003 259 978 232 977 c 0
 227 977 221 976 213 976 c 0xdc
 181 976 151 994 151 1029 c 0
350 113 m 0
 490 113 615 276 615 417 c 0xcc80
 615 503 569 723 562 741 c 0
 561 745 561 750 561 750 c 0
 561 757 560 760 556 776 c 1
 556 802 573 821 595 821 c 0
 618 821 632 801 642 764 c 1xcd
 642 749 695 532 695 423 c 0xcc80
 695 238 541 33 375 33 c 0
 327 33 265 50 216 87 c 0
 119 159 62 312 58 703 c 0
 58 739 58 763 55 790 c 0
 54 805 54 806 54 806 c 0
 54 833 72 851 94 851 c 0
 124 851 135 818 137 780 c 0
 138 770 139 746 139 701 c 0
 142 299 200 113 350 113 c 0
EndSplineSet
Validated: 1
EndChar

StartChar: asciitilde
Encoding: 126 126 109
Width: 896
Flags: HW
HStem: 286 80<569.949 683.648> 431 80<200.383 390.844>
LayerCount: 2
Fore
SplineSet
657 286 m 0
 525 286 437 431 305 431 c 0
 290 431 284 429 272 429 c 0
 221 429 158 393 136 351 c 0
 126 333 113 323 97 323 c 0
 75 323 57 341 57 360 c 0
 57 404 149 506 277 510 c 0
 284 510 295 511 306 511 c 0
 435 511 525 366 648 366 c 0
 658 366 660 367 664 369 c 0
 707 399 717 474 771 517 c 0
 784 528 793 531 802 531 c 0
 825 531 843 513 843 491 c 0
 843 478 836 467 824 458 c 0
 781 423 771 338 703 299 c 0
 685 288 672 286 657 286 c 0
EndSplineSet
Validated: 1
EndChar

StartChar: Euro
Encoding: 219 8364 110
Width: 863
Flags: HW
HStem: 83 216<541 750> 277 80<52.393 160.597> 287 80<266 707.886> 472 80<66.368 172.965 288 504.56> 687 80<395.062 576.66>
VStem: 162 82<365 473.011> 710 80<223.473 294.587>
LayerCount: 2
Fore
SplineSet
118 472 m 0x5e
 96 472 62 477 62 511 c 0
 62 535 80 553 103 553 c 0
 108 553 109 552 117 552 c 0
 132 552 151 555 176 555 c 0
 176 555 185 555 190 554 c 0
 197 553 198 555 203 566 c 0
 256 685 364 767 483 767 c 0
 625 767 752 651 799 589 c 0
 812 572 816 563 816 553 c 0
 816 531 798 513 776 513 c 0
 761 513 750 522 733 545 c 0
 670 627 563 687 481 687 c 0
 443 687 355 674 288 554 c 1
 378 551 469 541 515 541 c 0
 559 541 672 532 672 485 c 0
 672 466 654 449 629 449 c 1
 557 461 l 1
 456 461 350 473 255 474 c 1
 249 452 255 489 247 419 c 0
 244 393 244 392 244 392 c 0
 244 386 242 379 242 365 c 1
 280 366 319 367 401 367 c 0
 401 367 424 367 450 367 c 0
 476 367 491 367 491 367 c 0
 494 367 532 366 559 366 c 0
 573 366 583 366 595 366 c 0
 607 366 619 366 633 365 c 0
 689 362 718 349 718 323 c 0
 718 302 700 283 686 283 c 0
 680 283 650 287 607 287 c 0
 585 287 571 286 551 286 c 0
 531 286 513 287 427 287 c 0
 427 287 382 287 357 287 c 0x3e
 332 287 298 287 266 286 c 1
 311 220 424 170 541 163 c 1
 631 172 705 215 710 261 c 0
 712 283 729 299 750 299 c 0
 772 299 790 281 790 248 c 0
 790 145 616 83 513 83 c 0x9e
 388 83 222 175 178 283 c 1
 141 281 101 277 100 277 c 2
 88 277 l 2
 66 277 48 295 48 317 c 0
 48 339 66 357 88 357 c 2
 98 357 l 1
 162 363 162 364 162 364 c 0
 162 396 164 436 173 475 c 1
 171 475 170 475 170 475 c 0
 153 475 135 472 118 472 c 0x5e
EndSplineSet
Validated: 1
EndChar

StartChar: odieresis
Encoding: 154 246 111
Width: 783
Flags: HW
HStem: 38 80<309.349 503.325> 706 89<307.709 420.626> 707 80<304.838 420.626> 904 175<208.884 297.302>
VStem: 54 80<295.737 519.133> 152 168<936.063 1041.45> 477 171<920.509 1009.95> 642 80<301.136 581.1>
LayerCount: 2
Fore
SplineSet
477 944 m 4x9e
 477 951 478 952 478 962 c 4
 478 998 492 1019 518 1019 c 4
 528 1019 537 1016 544 1011 c 5
 551 1026 564 1035 575 1035 c 4
 582 1035 648 1032 648 976 c 4
 648 928 598 880 546 880 c 4
 507 880 477 907 477 944 c 4x9e
320 960 m 6
 320 927 301 904 271 904 c 4
 271 904 268 904 265 904 c 6
 258 904 l 4
 195 904 152 942 152 995 c 4
 152 995 152 998 152 1001 c 6
 152 1007 l 6
 152 1029 170 1047 191 1047 c 4
 196 1047 201 1046 205 1045 c 5
 208 1065 225 1079 250 1079 c 4
 291 1079 320 1043 320 984 c 4
 320 984 320 978 320 974 c 4
 320 970 320 968 320 966 c 4
 320 964 320 962 320 960 c 6
410 118 m 4
 630 118 642 397 642 458 c 4
 642 461 l 4
 642 472 643 477 643 489 c 4
 643 588 571 684 486 697 c 4
 464 700 443 709 421 713 c 5
 413 708 406 706 396 706 c 4xdd
 389 706 380 707 376 707 c 4
 376 707 374 707 366 706 c 4xbd
 243 691 134 554 134 407 c 4
 134 249 259 118 410 118 c 4
373 787 m 4xbd
 385 787 381 795 406 795 c 4xdd
 429 795 455 788 487 778 c 5
 599 760 723 657 723 479 c 4
 723 479 723 472 723 467 c 4
 722 461 722 458 722 458 c 4
 722 196 606 38 413 38 c 4
 216 38 54 202 54 406 c 4
 54 596 195 767 360 786 c 4
 370 787 373 787 373 787 c 4xbd
EndSplineSet
Validated: 1
EndChar

StartChar: udieresis
Encoding: 159 252 112
Width: 755
Flags: HW
HStem: 33 80<290.682 455.878> 801 20G<584.5 607> 945 198<446.841 520.812> 976 156<170.853 251.484>
VStem: 54 82<366.361 844.989> 151 129<986.994 1100.62> 408 158<964.753 1085.12> 556 86<674.934 810.413> 615 80<330.597 601.26>
LayerCount: 2
Fore
SplineSet
566 1043 m 0xde
 566 1010 l 0
 566 982 545 945 503 945 c 0
 496 945 l 0
 442 945 408 972 408 1017 c 0
 408 1028 410 1029 410 1039 c 0
 410 1066 424 1087 444 1092 c 1
 443 1096 442 1099 442 1104 c 0
 442 1125 460 1143 482 1143 c 0xee
 492 1143 502 1139 509 1132 c 2
 545 1098 l 2
 554 1090 566 1064 566 1043 c 0xde
151 1029 m 0
 151 1040 154 1055 154 1068 c 0
 154 1083 159 1093 167 1101 c 1
 172 1120 189 1132 209 1132 c 0
 254 1132 280 1067 280 1047 c 0
 280 1046 l 0
 280 1037 l 0
 280 1003 259 978 232 977 c 0
 227 977 221 976 213 976 c 0xdc
 181 976 151 994 151 1029 c 0
350 113 m 0
 490 113 615 276 615 417 c 0xcc80
 615 503 569 723 562 741 c 0
 561 745 561 750 561 750 c 0
 561 757 560 760 556 776 c 1
 556 802 573 821 595 821 c 0
 618 821 632 801 642 764 c 1xcd
 642 749 695 532 695 423 c 0xcc80
 695 238 541 33 375 33 c 0
 327 33 265 50 216 87 c 0
 119 159 62 312 58 703 c 0
 58 739 58 763 55 790 c 0
 54 805 54 806 54 806 c 0
 54 833 72 851 94 851 c 0
 124 851 135 818 137 780 c 0
 138 770 139 746 139 701 c 0
 142 299 200 113 350 113 c 0
EndSplineSet
Validated: 1
EndChar

StartChar: ntilde
Encoding: 150 241 113
Width: 814
Flags: HW
HStem: 819 20G<621.5 649.5> 997 83<172.431 303.224>
VStem: 50 82<-15.6289 165.305> 82 80<84.2558 693.578> 523 83<1029.2 1129.49> 561 80<472.28 767.259>
LayerCount: 2
Fore
SplineSet
445 907 m 0xc8
 378 907 304 997 238 997 c 0
 233 997 l 0
 223 997 220 1000 214 1000 c 0
 196 1000 167 977 160 961 c 0
 155 948 139 939 124 939 c 0
 102 939 84 957 84 979 c 0
 84 1022 157 1080 216 1080 c 0
 229 1080 236 1077 252 1077 c 0
 335 1077 394 998 457 988 c 1
 494 1008 519 1047 522 1077 c 0
 523 1094 534 1137 566 1137 c 0
 588 1137 606 1118 606 1096 c 0
 606 1091 605 1089 602 1069 c 0
 588 969 501 907 445 907 c 0xc8
50 14 m 0xe0
 50 34 82 168 82 318 c 0
 82 356 80 382 80 405 c 2
 80 645 l 2
 80 714 100 733 100 813 c 0
 100 835 l 0
 100 866 119 883 139 883 c 0
 159 883 173 866 196 816 c 0
 250 698 338 580 546 342 c 0
 599 281 611 269 622 256 c 1
 596 362 579 475 565 650 c 0
 561 698 561 707 561 707 c 0
 561 773 604 839 641 839 c 0
 660 839 678 821 678 799 c 0
 678 787 673 776 663 768 c 1
 648 743 641 726 641 712 c 0
 641 707 642 705 646 658 c 0
 666 387 698 231 758 98 c 0
 766 80 768 74 768 67 c 0
 768 45 750 27 730 27 c 0
 713 27 698 40 660 88 c 0
 531 252 316 458 173 695 c 1
 170 675 166 657 160 639 c 1
 160 406 l 2
 161 382 162 358 162 328 c 0xd4
 162 164 132 33 132 13 c 0
 132 -3 114 -21 92 -21 c 0
 69 -21 50 -1 50 14 c 0xe0
EndSplineSet
Validated: 1
EndChar

StartChar: quoteright
Encoding: 213 8217 114
Width: 207
Flags: HW
HStem: 529 258<72.4586 130.714>
VStem: 62 86<542.605 778.922>
LayerCount: 2
Fore
SplineSet
106 787 m 0
 137 787 148 746 148 637 c 0
 141 559 128 529 101 529 c 0
 82 529 62 545 62 616 c 0
 62 655 68 654 68 696 c 0
 68 769 86 787 106 787 c 0
EndSplineSet
Validated: 1
EndChar

StartChar: quotedblright
Encoding: 211 8221 115
Width: 503
Flags: HW
HStem: 481 328 769 20G<88 110>
VStem: 59 80<608.024 784.607> 340 80<550.603 804.154> 359 80<505.587 734.877>
LayerCount: 2
Fore
SplineSet
406 495 m 0x68
 368 495 359 555 359 559 c 2
 359 582 l 2x68
 357 630 340 681 340 733 c 0
 340 746 341 753 341 759 c 2
 341 769 l 2x70
 341 791 359 809 381 809 c 0xb0
 403 809 421 791 421 769 c 2
 421 757 l 2
 421 753 420 741 420 732 c 0x70
 420 692 439 628 439 583 c 2
 439 564 l 1
 445 540 l 1
 445 514 428 495 406 495 c 0x68
139 745 m 2
 139 743 139 743 139 743 c 0
 139 711 144 677 150 656 c 0
 159 624 177 522 177 510 c 0
 177 498 159 481 137 481 c 0xa0
 118 481 102 494 98 513 c 2
 78 616 l 2
 65 665 59 703 59 742 c 0
 59 742 59 743 59 745 c 2
 59 749 l 2
 59 771 77 789 99 789 c 0
 121 789 139 771 139 749 c 2
 139 745 l 2
EndSplineSet
Validated: 1
EndChar

StartChar: quotedblleft
Encoding: 210 8220 116
Width: 503
Flags: HW
HStem: 481 328 769 20G<88 110>
VStem: 59 80<608.024 784.607> 340 80<550.603 804.154> 359 80<505.587 734.877>
LayerCount: 2
Fore
SplineSet
406 495 m 0x68
 368 495 359 555 359 559 c 2
 359 582 l 2x68
 357 630 340 681 340 733 c 0
 340 746 341 753 341 759 c 2
 341 769 l 2x70
 341 791 359 809 381 809 c 0xb0
 403 809 421 791 421 769 c 2
 421 757 l 2
 421 753 420 741 420 732 c 0x70
 420 692 439 628 439 583 c 2
 439 564 l 1
 445 540 l 1
 445 514 428 495 406 495 c 0x68
139 745 m 2
 139 743 139 743 139 743 c 0
 139 711 144 677 150 656 c 0
 159 624 177 522 177 510 c 0
 177 498 159 481 137 481 c 0xa0
 118 481 102 494 98 513 c 2
 78 616 l 2
 65 665 59 703 59 742 c 0
 59 742 59 743 59 745 c 2
 59 749 l 2
 59 771 77 789 99 789 c 0
 121 789 139 771 139 749 c 2
 139 745 l 2
EndSplineSet
Validated: 1
EndChar

StartChar: quoteleft
Encoding: 212 8216 117
Width: 207
Flags: HW
HStem: 529 258<72.4586 130.714>
VStem: 62 86<542.605 778.922>
LayerCount: 2
Fore
SplineSet
106 787 m 0
 137 787 148 746 148 637 c 0
 141 559 128 529 101 529 c 0
 82 529 62 545 62 616 c 0
 62 655 68 654 68 696 c 0
 68 769 86 787 106 787 c 0
EndSplineSet
Validated: 1
EndChar

StartChar: braceleft
Encoding: 123 123 118
Width: 513
Flags: HW
LayerCount: 2
Fore
SplineSet
224 691 m 4
 224 781 273 831 321 831 c 4
 328 831 332 830 338 830 c 4
 344 830 352 831 357 831 c 4
 377 831 395 813 395 788 c 4
 395 751 354 751 344 751 c 4
 334 751 330 751 327 751 c 4
 314 749 304 726 304 691 c 4
 304 628 337 549 337 477 c 4
 337 429 322 376 256 337 c 5
 276 324 315 292 315 230 c 4
 315 208 310 224 310 171 c 4
 310 130 313 88 331 70 c 4
 331 70 334 67 340 67 c 4
 348 67 426 71 434 71 c 4
 451 71 469 53 469 31 c 4
 469 10 452 -8 352 -13 c 4
 349 -13 349 -13 349 -13 c 4
 257 -13 230 66 230 176 c 4
 230 223 235 228 235 238 c 4
 235 270 179 288 139 293 c 5
 104 292 107 287 94 287 c 4
 74 287 45 299 45 331 c 4
 45 367 81 370 112 372 c 5
 213 393 257 421 257 483 c 4
 257 536 224 618 224 691 c 4
EndSplineSet
Validated: 1
EndChar

StartChar: braceright
Encoding: 125 125 119
Width: 512
Flags: HW
LayerCount: 2
Fore
SplineSet
289 127 m 4
 289 37 240 -13 192 -13 c 4
 185 -13 181 -12 175 -12 c 4
 169 -12 161 -13 156 -13 c 4
 136 -13 118 5 118 30 c 4
 118 67 159 67 169 67 c 4
 179 67 183 67 186 67 c 4
 199 69 209 92 209 127 c 4
 209 190 176 269 176 341 c 4
 176 389 191 442 257 481 c 5
 237 494 198 526 198 588 c 4
 198 610 203 594 203 647 c 4
 203 688 200 730 182 748 c 4
 182 748 179 751 173 751 c 4
 165 751 87 747 79 747 c 4
 62 747 44 765 44 787 c 4
 44 808 61 826 161 831 c 4
 164 831 164 831 164 831 c 4
 256 831 283 752 283 642 c 4
 283 595 278 590 278 580 c 4
 278 548 334 530 374 525 c 5
 409 526 406 531 419 531 c 4
 439 531 468 519 468 487 c 4
 468 451 432 448 401 446 c 5
 300 425 256 397 256 335 c 4
 256 282 289 200 289 127 c 4
EndSplineSet
Validated: 1
EndChar

StartChar: bar
Encoding: 124 124 120
Width: 222
Flags: HW
LayerCount: 2
Fore
SplineSet
88 28 m 4
 88 151 59 248 59 378 c 4
 59 520 88 658 123 793 c 5
 125 823 l 6
 126 836 137 846 150 846 c 4
 164 846 175 835 175 821 c 4
 175 821 173 787 172 783 c 4
 137 648 109 514 109 378 c 4
 109 252 138 156 138 29 c 4
 138 29 137 -7 136 -14 c 4
 135 -20 135 -26 135 -32 c 4
 135 -80 173 -120 173 -177 c 4
 173 -191 172 -199 166 -205 c 4
 161 -210 154 -212 148 -212 c 4
 134 -212 123 -201 123 -187 c 4
 123 -184 123 -183 123 -178 c 4
 123 -135 85 -92 85 -32 c 4
 85 -11 88 -18 88 28 c 4
EndSplineSet
Validated: 1
EndChar

StartChar: grave
Encoding: 96 96 121
Width: 361
Flags: HW
LayerCount: 2
Fore
SplineSet
307 589 m 4
 307 575 296 564 282 564 c 4
 278 564 274 565 270 567 c 4
 217 597 216 597 214 599 c 6
 60 751 l 6
 55 756 53 763 53 769 c 4
 53 783 64 794 78 794 c 4
 84 794 91 792 96 787 c 6
 247 637 l 5
 297 609 298 609 300 607 c 4
 305 602 307 595 307 589 c 4
EndSplineSet
Validated: 1
EndChar

StartChar: degree
Encoding: 161 176 122
Width: 444
Flags: HW
LayerCount: 2
Fore
SplineSet
57 663 m 0
 57 680 62 733 111 773 c 1
 109 777 107 781 107 786 c 0
 107 788 108 801 121 808 c 2
 140 818 l 2
 155 826 169 827 180 827 c 0
 183 827 186 827 191 827 c 0
 200 827 l 0
 297 827 387 755 387 655 c 0
 387 651 387 648 387 644 c 0
 387 642 387 639 387 637 c 0
 387 565 330 496 257 496 c 0
 253 496 248 496 243 497 c 0
 239 497 235 496 231 496 c 0
 153 496 58 545 58 631 c 0
 58 634 59 637 59 641 c 0
 58 648 57 656 57 663 c 0
181 753 m 1
 140 744 107 705 107 663 c 0
 107 652 109 647 109 642 c 0
 109 639 108 636 108 630 c 0
 108 577 179 546 231 546 c 0
 236 546 244 547 244 547 c 0
 248 547 250 546 257 546 c 0
 303 546 337 594 337 637 c 0
 337 639 337 644 337 644 c 0
 337 646 337 649 337 655 c 0
 337 724 275 770 213 776 c 1
 212 763 201 753 188 753 c 2
 181 753 l 1
EndSplineSet
Validated: 1
EndChar

StartChar: registered
Encoding: 168 174 123
Width: 711
Flags: HW
LayerCount: 2
Fore
SplineSet
281 458 m 4
 267 458 256 469 256 483 c 6
 256 687 l 6
 256 696 264 715 279 730 c 4
 301 752 332 763 363 763 c 4
 367 763 373 762 377 762 c 4
 380 762 382 763 384 763 c 4
 425 763 468 720 468 678 c 4
 468 673 465 638 383 610 c 5
 391 604 400 597 409 591 c 4
 445 565 457 555 465 547 c 6
 485 527 l 6
 490 522 492 515 492 509 c 4
 492 495 481 484 467 484 c 4
 461 484 454 486 449 491 c 4
 419 521 417 523 379 551 c 4
 356 568 334 584 315 604 c 4
 310 609 308 615 308 621 c 4
 308 632 316 642 326 645 c 4
 330 646 334 648 339 649 c 4
 364 656 400 667 417 684 c 5
 411 701 393 713 383 713 c 4
 381 713 380 712 377 712 c 4
 374 712 371 713 364 713 c 4
 341 713 315 704 306 683 c 5
 306 483 l 6
 306 469 295 458 281 458 c 4
335 834 m 5
 227 818 106 739 106 622 c 4
 106 607 108 599 108 594 c 4
 108 444 260 355 395 355 c 4
 508 355 604 412 604 502 c 4
 604 522 600 533 600 539 c 4
 600 543 602 554 602 574 c 4
 602 696 513 799 401 840 c 4
 397 840 392 841 386 844 c 4
 384 844 383 844 381 844 c 4
 377 844 374 844 371 846 c 4
 370 843 362 834 349 834 c 6
 335 834 l 5
654 503 m 4
 654 388 544 305 394 305 c 4
 228 305 59 418 58 593 c 5
 57 602 56 612 56 621 c 4
 56 762 191 864 329 884 c 4
 330 884 332 884 333 884 c 6
 349 884 l 6
 353 884 356 884 359 882 c 4
 361 886 369 896 384 896 c 4
 391 896 391 896 407 890 c 4
 409 890 411 890 413 889 c 4
 548 842 652 718 652 574 c 4
 652 563 651 551 650 540 c 5
 652 527 654 515 654 503 c 4
EndSplineSet
Validated: 1
EndChar

StartChar: copyright
Encoding: 169 169 124
Width: 661
Flags: HW
LayerCount: 2
Fore
SplineSet
106 519 m 1
 142 442 240 392 325 392 c 0
 333 392 343 393 343 393 c 0
 343 393 345 393 347 393 c 0
 432 393 553 454 553 550 c 0
 553 557 552 568 552 568 c 0
 552 572 554 581 554 597 c 0
 554 729 392 782 293 791 c 0
 291 791 290 791 288 792 c 0
 175 770 114 626 106 519 c 1
329 845 m 0
 332 845 336 846 340 846 c 0
 352 846 363 842 368 830 c 1
 432 815 498 786 544 740 c 0
 581 703 604 655 604 596 c 0
 604 587 603 578 602 568 c 1
 603 562 603 556 603 550 c 0
 603 426 465 343 348 343 c 0
 347 343 345 343 344 343 c 0
 338 343 331 342 325 342 c 0
 215 342 99 408 58 504 c 0
 57 507 56 511 56 514 c 0
 56 517 61 675 164 778 c 0
 187 801 214 819 245 831 c 1
 248 842 257 851 269 851 c 0
 274 851 274 851 293 844 c 1
 301 845 310 845 319 845 c 0
 319 845 326 845 329 845 c 0
373 685 m 0
 377 685 382 686 387 686 c 0
 401 686 407 684 413 678 c 0
 418 673 420 666 420 660 c 0
 420 646 409 635 395 635 c 0
 392 635 392 636 387 636 c 0
 382 636 376 635 371 635 c 0
 365 635 360 638 346 638 c 0
 294 638 240 598 240 543 c 0
 240 515 272 495 308 495 c 0
 320 495 324 497 329 497 c 0
 329 497 331 497 333 497 c 0
 353 497 372 503 384 513 c 1
 410 547 410 547 411 548 c 0
 416 553 423 555 429 555 c 0
 443 555 454 544 454 530 c 0
 454 525 452 519 449 515 c 0
 422 479 421 479 420 478 c 0
 396 455 363 447 334 447 c 0
 333 447 332 447 331 447 c 0
 323 446 315 445 307 445 c 0
 240 445 190 490 190 543 c 0
 190 625 265 688 345 688 c 0
 354 688 364 687 373 685 c 0
EndSplineSet
Validated: 1
EndChar

StartChar: trademark
Encoding: 170 8482 125
Width: 795
Flags: HW
LayerCount: 2
Fore
SplineSet
116 706 m 0
 111 706 108 706 107 706 c 2
 75 706 l 2
 61 706 50 717 50 731 c 0
 50 745 61 756 75 756 c 2
 107 756 l 2
 110 756 114 756 117 756 c 0
 152 756 187 750 221 745 c 1
 224 755 234 762 245 762 c 0
 259 762 270 751 270 738 c 1
 289 735 308 734 327 734 c 0
 349 734 358 736 363 736 c 0
 377 736 388 725 388 711 c 0
 388 699 379 688 367 686 c 0
 353 684 340 683 326 683 c 0
 307 683 288 686 269 688 c 1
 267 658 261 628 256 600 c 0
 253 585 250 570 248 556 c 2
 244 493 l 2
 243 480 232 470 219 470 c 0
 205 470 194 481 194 495 c 0
 194 498 198 562 198 563 c 0
 200 579 204 595 207 610 c 0
 213 639 217 667 219 695 c 1
 184 701 149 706 116 706 c 0
740 495 m 0
 740 481 729 470 715 470 c 0
 712 470 700 471 693 483 c 0
 660 541 680 644 656 691 c 1
 649 682 645 674 636 665 c 0
 619 648 602 648 592 648 c 0
 571 648 550 656 529 677 c 1
 526 515 l 2
 526 501 515 490 501 490 c 0
 487 490 476 501 476 515 c 2
 480 745 l 2
 480 759 491 770 505 770 c 0
 518 770 524 762 543 738 c 0
 561 714 574 698 591 698 c 0
 593 698 595 698 597 698 c 0
 598 698 598 698 598 698 c 0
 605 698 620 746 662 746 c 0
 674 746 679 743 685 737 c 0
 716 706 718 655 721 602 c 0
 723 567 725 528 737 507 c 0
 739 503 740 499 740 495 c 0
EndSplineSet
Validated: 1
EndChar

StartChar: acute
Encoding: 171 180 126
Width: 275
Flags: HW
LayerCount: 2
Fore
SplineSet
198 820 m 0
 212 820 223 809 223 795 c 0
 223 791 223 785 211 771 c 2
 170 722 l 1
 99 613 100 613 98 611 c 0
 93 606 86 604 80 604 c 0
 66 604 55 615 55 629 c 0
 55 634 56 639 59 643 c 0
 130 752 130 752 131 753 c 0
 147 772 163 790 178 810 c 0
 183 816 190 820 198 820 c 0
EndSplineSet
Validated: 1
EndChar

StartChar: endash
Encoding: 208 8211 127
Width: 812
Flags: HW
LayerCount: 2
Fore
SplineSet
726 435 m 4
 740 435 751 424 751 410 c 4
 751 396 740 385 726 385 c 4
 701 384 676 384 651 384 c 4
 589 384 526 385 463 385 c 4
 407 385 351 385 295 381 c 4
 85 368 85 361 84 361 c 4
 70 361 59 372 59 386 c 4
 59 399 69 410 82 411 c 4
 293 431 293 431 294 431 c 4
 438 432 584 432 726 435 c 4
EndSplineSet
EndChar

StartChar: bullet
Encoding: 165 8226 128
Width: 217
Flags: HW
LayerCount: 2
Fore
SplineSet
67 410 m 4
 65 412 59 417 59 429 c 4
 59 447 83 464 89 467 c 4
 96 471 103 472 111 472 c 4
 127 472 157 453 157 430 c 4
 157 412 143 405 132 399 c 4
 129 398 124 395 122 393 c 4
 116 387 113 387 96 384 c 4
 95 384 93 384 92 384 c 4
 78 384 67 395 67 409 c 4
 67 410 l 4
EndSplineSet
Validated: 1
EndChar

StartChar: periodcentered
Encoding: 225 183 129
Width: 217
Flags: HW
LayerCount: 2
Fore
SplineSet
67 410 m 4
 65 412 59 417 59 429 c 4
 59 447 83 464 89 467 c 4
 96 471 103 472 111 472 c 4
 127 472 157 453 157 430 c 4
 157 412 143 405 132 399 c 4
 129 398 124 395 122 393 c 4
 116 387 113 387 96 384 c 4
 95 384 93 384 92 384 c 4
 78 384 67 395 67 409 c 4
 67 410 l 4
EndSplineSet
Validated: 1
EndChar

StartChar: radical
Encoding: 195 8730 130
Width: 1072
Flags: HW
LayerCount: 2
Fore
SplineSet
360 18 m 0
 360 -4 334 -30 312 -30 c 0
 309 -30 303 -30 298 -24 c 0
 211 79 139 234 49 327 c 0
 46 330 44 335 44 340 c 0
 44 362 70 388 92 388 c 0
 95 388 100 388 105 383 c 0
 158 329 203 258 247 188 c 0
 260 168 272 147 285 128 c 1
 294 362 311 515 356 756 c 0
 360 777 384 798 404 798 c 0
 408 798 415 797 419 791 c 0
 461 733 517 714 579 714 c 0
 694 714 829 780 938 780 c 0
 966 780 992 775 1015 765 c 0
 1018 764 1025 759 1025 748 c 0
 1025 726 999 700 977 700 c 0
 974 700 971 701 968 702 c 0
 950 710 929 713 908 713 c 0
 808 713 676 640 553 640 c 0
 502 640 452 653 407 689 c 1
 371 482 358 338 350 107 c 0
 350 107 349 79 349 70 c 0
 349 31 360 32 360 18 c 0
EndSplineSet
Validated: 1
EndChar

StartChar: icircumflex
Encoding: 148 238 131
Width: 617
Flags: HW
LayerCount: 2
Fore
SplineSet
180 7 m 0
 180 109 156 212 156 321 c 0
 156 324 156 328 156 331 c 0
 155 355 155 379 155 403 c 0
 155 536 165 669 186 800 c 1
 186 821 l 2
 186 843 204 861 226 861 c 0
 248 861 266 843 266 821 c 2
 266 797 l 2
 266 785 235 631 235 403 c 0
 235 362 236 333 236 331 c 0
 236 330 236 327 236 321 c 0
 236 218 260 115 260 7 c 0
 260 -6 260 -17 248 -29 c 0
 240 -37 230 -41 220 -41 c 0
 198 -41 180 -23 180 -1 c 0
 180 0 180 3 180 7 c 0
576 863 m 0
 576 841 558 823 536 823 c 0
 526 823 517 827 509 834 c 0
 432 905 354 961 266 1024 c 1
 247 1001 185 930 103 872 c 0
 96 867 88 865 80 865 c 0
 58 865 40 883 40 905 c 0
 40 910 42 927 57 938 c 0
 70 948 159 1012 226 1103 c 0
 233 1113 245 1119 258 1119 c 0
 271 1119 274 1116 294 1102 c 0
 389 1034 476 972 563 892 c 0
 572 884 576 874 576 863 c 0
EndSplineSet
Validated: 1
EndChar

StartChar: idieresis
Encoding: 149 239 132
Width: 376
Flags: HW
LayerCount: 2
Fore
SplineSet
152 521 m 1
 150 587 133 654 133 727 c 0
 133 739 133 750 134 762 c 0
 136 783 153 799 174 799 c 0
 196 799 214 781 214 759 c 0
 214 755 213 746 213 728 c 0
 213 662 232 572 232 519 c 0
 232 518 228 474 221 400 c 0
 209 267 196 131 154 -1 c 1
 154 -7 l 2
 154 -29 136 -47 114 -47 c 0
 92 -47 74 -29 74 -7 c 2
 74 5 l 2
 74 9 75 13 76 17 c 0
 116 139 129 273 141 408 c 0
 144 446 148 483 152 521 c 1
124 915 m 0
 124 893 106 875 84 875 c 0
 67 875 53 885 47 900 c 0
 41 915 40 917 40 925 c 0
 40 965 40 965 40 965 c 2
 40 987 58 1005 80 1005 c 0
 102 1005 120 987 120 965 c 0
 120 933 120 933 120 933 c 2
 122 928 124 923 124 915 c 0
294 859 m 0
 272 859 254 877 254 899 c 2
 254 981 l 2
 254 1003 272 1021 294 1021 c 0
 316 1021 334 1003 334 981 c 2
 334 899 l 2
 334 877 316 859 294 859 c 0
EndSplineSet
Validated: 1
EndChar

StartChar: acircumflex
Encoding: 137 226 133
Width: 818
Flags: HW
LayerCount: 2
Fore
SplineSet
753 65 m 0
 753 43 735 25 713 25 c 0
 692 25 675 41 673 62 c 0
 672 81 662 105 662 136 c 0
 662 139 663 143 663 146 c 0
 651 229 616 311 576 393 c 0
 575 393 575 393 574 393 c 0
 561 393 548 393 538 393 c 0
 460 393 381 388 302 377 c 1
 119 -6 l 2
 117 -9 107 -29 83 -29 c 0
 61 -29 43 -11 43 11 c 0
 43 17 44 23 47 28 c 2
 205 360 l 1
 189 356 173 352 157 348 c 0
 154 347 150 347 147 347 c 0
 125 347 107 365 107 387 c 0
 107 405 120 421 137 426 c 0
 174 436 211 444 248 450 c 1
 289 537 l 1
 320 642 402 730 425 803 c 0
 430 819 445 831 463 831 c 0
 483 831 500 816 503 797 c 0
 520 684 574 577 627 470 c 1
 658 466 718 457 724 455 c 0
 742 449 744 448 751 441 c 0
 759 433 763 423 763 413 c 0
 763 391 745 373 723 373 c 0
 716 373 714 374 701 378 c 2
 669 383 l 1
 703 309 732 234 743 153 c 0
 743 151 743 149 743 147 c 0
 743 143 742 142 742 137 c 0
 742 117 753 85 753 65 c 0
733 893 m 0
 733 871 715 853 693 853 c 0
 687 853 672 854 661 869 c 0
 655 877 654 877 654 878 c 0
 612 937 564 993 511 1049 c 1
 495 1035 479 1020 462 1004 c 0
 401 948 333 884 238 858 c 0
 235 857 231 857 227 857 c 0
 205 857 187 875 187 897 c 0
 187 898 187 928 216 936 c 0
 288 956 347 1007 408 1063 c 0
 435 1087 462 1113 491 1135 c 0
 498 1140 507 1143 515 1143 c 0
 521 1143 534 1142 544 1131 c 0
 607 1065 667 998 719 924 c 0
 728 912 733 906 733 893 c 0
536 473 m 1
 504 539 472 606 450 675 c 1
 446 668 441 660 436 653 c 0
 407 606 378 559 365 512 c 0
 364 510 364 508 363 506 c 2
 343 463 l 1
 412 470 477 473 536 473 c 1
EndSplineSet
Validated: 1
EndChar

StartChar: atilde
Encoding: 139 227 134
Width: 803
Flags: HW
LayerCount: 2
Fore
SplineSet
517 452 m 1
 491 530 465 608 438 684 c 1
 344 482 l 1
 413 469 468 460 517 452 c 1
749 9 m 0
 753 -8 754 -9 754 -15 c 0
 754 -37 736 -55 714 -55 c 0
 702 -55 696 -51 686 -44 c 0
 682 -41 668 -31 668 -11 c 0
 668 -7 669 -3 670 1 c 0
 670 4 670 6 670 9 c 0
 628 126 587 247 546 367 c 1
 481 376 410 389 310 407 c 1
 118 -6 l 2
 116 -9 107 -29 82 -29 c 0
 60 -29 42 -11 42 11 c 0
 42 17 44 23 46 28 c 2
 229 423 l 1
 218 425 205 429 190 432 c 0
 172 436 158 452 158 471 c 0
 158 493 176 511 198 511 c 0
 202 511 203 498 264 498 c 1
 376 740 l 2
 380 749 379 742 391 765 c 0
 400 781 418 815 448 815 c 0
 465 815 480 804 486 788 c 0
 527 674 566 558 606 440 c 1
 636 436 665 433 696 431 c 0
 697 431 697 431 698 431 c 0
 699 431 701 431 702 431 c 0
 726 431 744 413 744 391 c 0
 744 366 724 351 705 351 c 0
 704 351 704 351 704 351 c 2
 703 351 l 0
 700 351 691 351 691 351 c 0
 671 352 652 354 634 356 c 1
 671 246 710 136 748 29 c 0
 750 25 750 20 750 15 c 0
 750 13 749 11 749 9 c 0
312 965 m 0
 249 965 202 892 196 835 c 1
 196 829 l 2
 196 807 178 789 156 789 c 0
 134 789 116 807 116 829 c 2
 116 837 l 2
 116 846 122 925 186 989 c 0
 218 1021 262 1045 312 1045 c 0
 319 1045 326 1044 333 1043 c 0
 339 1043 345 1044 350 1044 c 0
 436 1044 499 992 567 992 c 0
 577 992 581 993 586 993 c 0
 590 993 l 0
 590 993 599 993 601 995 c 0
 611 1005 607 1062 614 1099 c 0
 616 1112 621 1126 629 1140 c 0
 637 1155 637 1156 642 1161 c 0
 650 1169 660 1173 670 1173 c 0
 692 1173 710 1155 710 1133 c 0
 710 1124 709 1121 700 1103 c 0
 699 1102 699 1101 698 1100 c 0
 681 1073 704 984 658 938 c 0
 641 921 616 913 590 913 c 0
 589 913 589 913 588 913 c 0
 581 912 573 912 566 912 c 0
 480 912 416 964 349 964 c 0
 340 964 336 963 332 963 c 0
 326 963 322 965 312 965 c 0
EndSplineSet
Validated: 1
EndChar

StartChar: Aacute
Encoding: 231 193 135
Width: 881
Flags: HW
LayerCount: 2
Fore
SplineSet
840 -53 m 0
 840 -75 822 -95 798 -95 c 0
 776 -95 764 -79 759 -72 c 0
 751 -64 746 -54 746 -43 c 1
 672 75 614 204 566 336 c 1
 520 343 475 347 425 347 c 0
 423 347 420 347 418 347 c 0
 400 342 384 340 368 340 c 0
 348 340 331 343 314 345 c 1
 255 221 191 97 116 -19 c 0
 109 -30 96 -37 82 -37 c 0
 60 -37 42 -19 42 3 c 0
 42 11 44 18 48 25 c 0
 116 129 175 241 230 355 c 1
 222 362 216 373 216 385 c 0
 216 404 230 420 248 424 c 0
 253 425 258 426 263 427 c 1
 286 476 308 524 330 573 c 0
 367 655 404 737 442 815 c 0
 449 828 462 837 478 837 c 0
 497 837 513 824 517 806 c 0
 546 674 580 539 625 408 c 1
 631 407 638 406 644 405 c 2
 714 401 l 2
 735 400 752 382 752 361 c 0
 752 339 734 321 712 321 c 0
 708 321 678 323 656 324 c 1
 704 198 761 78 833 -31 c 0
 837 -38 840 -45 840 -53 c 0
242 791 m 0
 220 791 202 809 202 831 c 0
 202 835 203 856 224 867 c 0
 349 932 478 1000 564 1096 c 0
 568 1100 578 1109 594 1109 c 0
 599 1109 617 1108 628 1090 c 0
 672 1017 667 920 699 855 c 0
 703 851 712 842 712 825 c 0
 712 803 694 785 672 785 c 0
 655 785 648 793 638 803 c 0
 635 806 633 809 631 812 c 0
 608 855 599 901 591 942 c 0
 587 962 583 981 579 998 c 1
 484 911 365 850 260 795 c 0
 254 792 248 791 242 791 c 0
537 420 m 1
 509 505 486 591 465 676 c 1
 444 632 424 586 403 540 c 0
 385 501 367 461 349 421 c 1
 355 420 362 420 368 420 c 0
 393 420 398 427 411 427 c 0
 415 427 421 427 425 427 c 0
 465 427 501 424 537 420 c 1
EndSplineSet
Validated: 1
EndChar

StartChar: Iacute
Encoding: 234 205 136
Width: 416
Flags: HW
LayerCount: 2
Fore
SplineSet
183 31 m 0
 183 9 165 -9 143 -9 c 0
 122 -9 104 8 103 29 c 0
 103 33 103 36 103 40 c 0
 103 79 113 109 117 141 c 0
 131 359 163 565 173 782 c 1
 173 793 l 2
 173 815 191 833 213 833 c 0
 235 833 253 815 253 793 c 2
 253 781 l 2
 253 780 253 780 253 779 c 0
 243 554 211 355 197 134 c 0
 196 112 183 70 183 40 c 0
 183 37 183 31 183 31 c 0
335 1065 m 0
 357 1065 375 1047 375 1025 c 0
 375 1019 374 1006 362 995 c 0
 342 978 342 978 340 977 c 2
 104 807 l 2
 97 802 89 799 81 799 c 0
 59 799 41 817 41 839 c 0
 41 844 43 860 58 871 c 2
 292 1040 l 1
 308 1055 l 2
 316 1062 326 1065 335 1065 c 0
EndSplineSet
Validated: 1
EndChar

StartChar: Icircumflex
Encoding: 235 206 137
Width: 617
Flags: HW
LayerCount: 2
Fore
SplineSet
180 7 m 0
 180 109 156 212 156 321 c 0
 156 324 156 328 156 331 c 0
 155 355 155 379 155 403 c 0
 155 536 165 669 186 800 c 1
 186 821 l 2
 186 843 204 861 226 861 c 0
 248 861 266 843 266 821 c 2
 266 797 l 2
 266 785 235 631 235 403 c 0
 235 362 236 333 236 331 c 0
 236 330 236 327 236 321 c 0
 236 218 260 115 260 7 c 0
 260 -6 260 -17 248 -29 c 0
 240 -37 230 -41 220 -41 c 0
 198 -41 180 -23 180 -1 c 0
 180 0 180 3 180 7 c 0
576 863 m 0
 576 841 558 823 536 823 c 0
 526 823 517 827 509 834 c 0
 432 905 354 961 266 1024 c 1
 247 1001 185 930 103 872 c 0
 96 867 88 865 80 865 c 0
 58 865 40 883 40 905 c 0
 40 910 42 927 57 938 c 0
 70 948 159 1012 226 1103 c 0
 233 1113 245 1119 258 1119 c 0
 271 1119 274 1116 294 1102 c 0
 389 1034 476 972 563 892 c 0
 572 884 576 874 576 863 c 0
EndSplineSet
Validated: 1
EndChar

StartChar: Acircumflex
Encoding: 229 194 138
Width: 818
Flags: HW
LayerCount: 2
Fore
SplineSet
753 65 m 0
 753 43 735 25 713 25 c 0
 692 25 675 41 673 62 c 0
 672 81 662 105 662 136 c 0
 662 139 663 143 663 146 c 0
 651 229 616 311 576 393 c 0
 575 393 575 393 574 393 c 0
 561 393 548 393 538 393 c 0
 460 393 381 388 302 377 c 1
 119 -6 l 2
 117 -9 107 -29 83 -29 c 0
 61 -29 43 -11 43 11 c 0
 43 17 44 23 47 28 c 2
 205 360 l 1
 189 356 173 352 157 348 c 0
 154 347 150 347 147 347 c 0
 125 347 107 365 107 387 c 0
 107 405 120 421 137 426 c 0
 174 436 211 444 248 450 c 1
 289 537 l 1
 320 642 402 730 425 803 c 0
 430 819 445 831 463 831 c 0
 483 831 500 816 503 797 c 0
 520 684 574 577 627 470 c 1
 658 466 718 457 724 455 c 0
 742 449 744 448 751 441 c 0
 759 433 763 423 763 413 c 0
 763 391 745 373 723 373 c 0
 716 373 714 374 701 378 c 2
 669 383 l 1
 703 309 732 234 743 153 c 0
 743 151 743 149 743 147 c 0
 743 143 742 142 742 137 c 0
 742 117 753 85 753 65 c 0
733 893 m 0
 733 871 715 853 693 853 c 0
 687 853 672 854 661 869 c 0
 655 877 654 877 654 878 c 0
 612 937 564 993 511 1049 c 1
 495 1035 479 1020 462 1004 c 0
 401 948 333 884 238 858 c 0
 235 857 231 857 227 857 c 0
 205 857 187 875 187 897 c 0
 187 898 187 928 216 936 c 0
 288 956 347 1007 408 1063 c 0
 435 1087 462 1113 491 1135 c 0
 498 1140 507 1143 515 1143 c 0
 521 1143 534 1142 544 1131 c 0
 607 1065 667 998 719 924 c 0
 728 912 733 906 733 893 c 0
536 473 m 1
 504 539 472 606 450 675 c 1
 446 668 441 660 436 653 c 0
 407 606 378 559 365 512 c 0
 364 510 364 508 363 506 c 2
 343 463 l 1
 412 470 477 473 536 473 c 1
EndSplineSet
Validated: 1
EndChar

StartChar: Atilde
Encoding: 204 195 139
Width: 803
Flags: HW
LayerCount: 2
Fore
SplineSet
517 452 m 1
 491 530 465 608 438 684 c 1
 344 482 l 1
 413 469 468 460 517 452 c 1
749 9 m 0
 753 -8 754 -9 754 -15 c 0
 754 -37 736 -55 714 -55 c 0
 702 -55 696 -51 686 -44 c 0
 682 -41 668 -31 668 -11 c 0
 668 -7 669 -3 670 1 c 0
 670 4 670 6 670 9 c 0
 628 126 587 247 546 367 c 1
 481 376 410 389 310 407 c 1
 118 -6 l 2
 116 -9 107 -29 82 -29 c 0
 60 -29 42 -11 42 11 c 0
 42 17 44 23 46 28 c 2
 229 423 l 1
 218 425 205 429 190 432 c 0
 172 436 158 452 158 471 c 0
 158 493 176 511 198 511 c 0
 202 511 203 498 264 498 c 1
 376 740 l 2
 380 749 379 742 391 765 c 0
 400 781 418 815 448 815 c 0
 465 815 480 804 486 788 c 0
 527 674 566 558 606 440 c 1
 636 436 665 433 696 431 c 0
 697 431 697 431 698 431 c 0
 699 431 701 431 702 431 c 0
 726 431 744 413 744 391 c 0
 744 366 724 351 705 351 c 0
 704 351 704 351 704 351 c 2
 703 351 l 0
 700 351 691 351 691 351 c 0
 671 352 652 354 634 356 c 1
 671 246 710 136 748 29 c 0
 750 25 750 20 750 15 c 0
 750 13 749 11 749 9 c 0
312 965 m 0
 249 965 202 892 196 835 c 1
 196 829 l 2
 196 807 178 789 156 789 c 0
 134 789 116 807 116 829 c 2
 116 837 l 2
 116 846 122 925 186 989 c 0
 218 1021 262 1045 312 1045 c 0
 319 1045 326 1044 333 1043 c 0
 339 1043 345 1044 350 1044 c 0
 436 1044 499 992 567 992 c 0
 577 992 581 993 586 993 c 0
 590 993 l 0
 590 993 599 993 601 995 c 0
 611 1005 607 1062 614 1099 c 0
 616 1112 621 1126 629 1140 c 0
 637 1155 637 1156 642 1161 c 0
 650 1169 660 1173 670 1173 c 0
 692 1173 710 1155 710 1133 c 0
 710 1124 709 1121 700 1103 c 0
 699 1102 699 1101 698 1100 c 0
 681 1073 704 984 658 938 c 0
 641 921 616 913 590 913 c 0
 589 913 589 913 588 913 c 0
 581 912 573 912 566 912 c 0
 480 912 416 964 349 964 c 0
 340 964 336 963 332 963 c 0
 326 963 322 965 312 965 c 0
EndSplineSet
Validated: 1
EndChar

StartChar: pi
Encoding: 185 960 140
Width: 899
Flags: HW
LayerCount: 2
Fore
SplineSet
258 415 m 0
 258 419 258 425 258 425 c 2
 258 441 l 2
 258 463 276 481 298 481 c 0
 320 481 338 463 338 441 c 2
 338 426 l 2
 338 422 338 418 338 414 c 0
 338 302 276 198 228 117 c 0
 226 114 211 94 208 91 c 0
 200 83 190 79 180 79 c 0
 158 79 140 97 140 119 c 0
 140 128 142 137 148 144 c 2
 161 160 l 1
 207 237 258 327 258 415 c 0
209 487 m 0
 205 487 118 486 117 486 c 0
 83 486 72 487 60 499 c 0
 52 507 48 517 48 527 c 0
 48 549 66 567 88 567 c 0
 88 567 94 566 119 566 c 0
 127 566 207 567 208 567 c 0
 213 567 218 567 222 567 c 0
 247 568 273 568 299 568 c 0
 457 568 627 555 778 514 c 0
 781 513 782 513 827 491 c 0
 830 489 850 479 850 455 c 0
 850 433 832 415 810 415 c 0
 804 415 798 416 793 419 c 2
 754 437 l 1
 721 446 687 454 652 460 c 1
 655 426 664 391 664 352 c 0
 664 342 664 333 664 323 c 0
 664 322 664 246 664 245 c 0
 664 217 664 189 666 162 c 0
 668 139 675 112 683 84 c 0
 694 46 694 44 694 39 c 0
 694 17 676 -1 654 -1 c 0
 635 -1 619 11 615 29 c 0
 612 39 609 50 606 62 c 0
 590 118 587 141 586 157 c 0
 584 187 584 215 584 244 c 0
 584 245 584 322 584 323 c 0
 584 361 584 366 578 406 c 0
 575 426 572 448 572 472 c 1
 481 483 387 488 297 488 c 0
 255 488 224 487 222 487 c 0
 221 487 218 487 209 487 c 0
EndSplineSet
Validated: 1
EndChar

StartChar: Delta
Encoding: 198 8710 141
Width: 734
Flags: HW
LayerCount: 2
Fore
SplineSet
85 -21 m 0
 63 -21 45 -3 45 19 c 2
 45 25 l 2
 45 27 45 29 45 31 c 0
 45 33 45 35 45 37 c 0
 45 45 47 52 52 59 c 0
 100 260 195 453 285 634 c 0
 319 702 331 726 333 732 c 0
 338 745 347 768 375 778 c 0
 380 780 384 781 389 781 c 0
 402 781 413 775 421 765 c 0
 531 619 575 440 618 271 c 0
 639 188 659 107 686 33 c 0
 688 29 690 22 690 15 c 0
 690 -8 670 -26 647 -26 c 0
 644 -26 640 -26 636 -25 c 0
 635 -25 634 -25 633 -25 c 0
 629 -25 626 -24 622 -23 c 0
 568 -7 512 2 458 5 c 2
 122 3 l 2
 121 0 110 -21 85 -21 c 0
459 85 m 2
 460 85 519 83 591 67 c 1
 572 127 557 190 541 252 c 0
 503 401 465 546 391 667 c 1
 380 644 368 622 357 599 c 0
 274 431 189 258 141 83 c 1
 459 85 l 2
EndSplineSet
Validated: 1
EndChar

StartChar: Idieresis
Encoding: 236 207 142
Width: 376
Flags: HW
LayerCount: 2
Fore
SplineSet
152 521 m 1
 150 587 133 654 133 727 c 0
 133 739 133 750 134 762 c 0
 136 783 153 799 174 799 c 0
 196 799 214 781 214 759 c 0
 214 755 213 746 213 728 c 0
 213 662 232 572 232 519 c 0
 232 518 228 474 221 400 c 0
 209 267 196 131 154 -1 c 1
 154 -7 l 2
 154 -29 136 -47 114 -47 c 0
 92 -47 74 -29 74 -7 c 2
 74 5 l 2
 74 9 75 13 76 17 c 0
 116 139 129 273 141 408 c 0
 144 446 148 483 152 521 c 1
124 915 m 0
 124 893 106 875 84 875 c 0
 67 875 53 885 47 900 c 0
 41 915 40 917 40 925 c 0
 40 965 40 965 40 965 c 2
 40 987 58 1005 80 1005 c 0
 102 1005 120 987 120 965 c 0
 120 933 120 933 120 933 c 2
 122 928 124 923 124 915 c 0
294 859 m 0
 272 859 254 877 254 899 c 2
 254 981 l 2
 254 1003 272 1021 294 1021 c 0
 316 1021 334 1003 334 981 c 2
 334 899 l 2
 334 877 316 859 294 859 c 0
EndSplineSet
Validated: 1
EndChar

StartChar: oacute
Encoding: 151 243 143
Width: 855
Flags: HW
LayerCount: 2
Fore
SplineSet
553 97 m 1
 688 113 715 293 715 384 c 0
 715 436 678 626 563 710 c 1
 468 749 l 2
 467 749 466 749 465 749 c 0
 302 749 133 593 133 426 c 0
 133 364 154 294 218 230 c 0
 255 193 303 162 355 140 c 0
 419 112 489 98 553 97 c 1
555 17 m 0
 341 17 53 159 53 427 c 0
 53 637 257 829 465 829 c 0
 469 829 473 829 477 829 c 0
 482 829 487 828 492 826 c 2
 598 782 l 2
 601 781 604 780 606 778 c 0
 722 697 784 530 795 396 c 0
 795 393 795 387 795 384 c 0
 795 327 786 174 694 82 c 0
 660 48 614 23 559 17 c 0
 558 17 556 17 555 17 c 0
615 1169 m 0
 637 1169 655 1151 655 1129 c 0
 655 1121 653 1114 648 1107 c 0
 600 1036 600 1036 597 1033 c 2
 411 849 l 2
 403 841 393 837 383 837 c 0
 361 837 343 855 343 877 c 0
 343 887 347 897 355 905 c 2
 538 1087 l 1
 584 1155 584 1154 587 1157 c 0
 595 1165 605 1169 615 1169 c 0
EndSplineSet
Validated: 1
EndChar

StartChar: ograve
Encoding: 152 242 144
Width: 892
Flags: HW
LayerCount: 2
Fore
SplineSet
753 573 m 0
 753 578 754 583 754 594 c 0
 754 667 688 727 600 729 c 2
 456 733 l 2
 452 733 446 734 434 740 c 0
 427 740 421 741 414 741 c 0
 223 741 138 529 138 364 c 0
 138 342 139 329 139 325 c 0
 139 318 136 309 136 288 c 0
 136 211 185 135 262 135 c 0
 285 135 296 141 307 141 c 0
 317 141 350 131 402 131 c 0
 628 131 753 333 753 550 c 0
 753 561 753 573 753 573 c 0
57 365 m 0
 57 581 179 820 415 820 c 0
 425 820 436 819 447 819 c 0
 463 819 463 819 463 819 c 2
 471 819 478 817 485 812 c 1
 602 809 l 2
 724 807 834 716 834 593 c 0
 834 586 834 578 833 571 c 0
 833 564 833 557 833 550 c 0
 833 281 667 51 400 51 c 0
 370 51 340 54 308 60 c 1
 293 57 277 55 262 55 c 0
 140 55 56 165 56 287 c 0
 56 300 57 314 59 327 c 0
 58 339 57 352 57 365 c 0
213 1213 m 0
 213 1235 231 1253 253 1253 c 0
 259 1253 273 1252 284 1239 c 2
 578 891 l 2
 584 884 587 874 587 865 c 0
 587 843 569 825 547 825 c 0
 541 825 527 826 516 839 c 2
 222 1187 l 2
 216 1194 213 1204 213 1213 c 0
EndSplineSet
Validated: 1
EndChar

StartChar: ocircumflex
Encoding: 153 244 145
Width: 853
Flags: HW
LayerCount: 2
Fore
SplineSet
133 422 m 0
 133 419 133 416 133 413 c 0
 133 261 250 95 417 95 c 0
 437 95 449 97 453 97 c 0
 486 99 597 108 670 294 c 0
 696 359 711 432 717 495 c 1
 716 555 675 602 624 659 c 0
 612 672 601 686 589 700 c 0
 565 720 546 750 531 763 c 1
 527 759 517 751 503 751 c 0
 315 749 139 610 133 422 c 0
417 15 m 0
 196 15 53 231 53 423 c 0
 53 424 53 425 53 426 c 0
 68 647 257 817 479 830 c 1
 489 840 498 843 516 845 c 0
 525 846 525 847 531 847 c 0
 568 847 598 810 616 788 c 0
 626 776 634 767 641 761 c 0
 643 760 646 757 648 754 c 0
 681 714 720 676 751 630 c 0
 776 592 797 547 797 493 c 0
 797 489 780 238 644 102 c 0
 597 55 535 22 459 17 c 0
 445 16 431 15 417 15 c 0
655 947 m 0
 655 925 637 907 615 907 c 0
 599 907 585 917 579 931 c 2
 561 969 l 1
 308 815 l 2
 302 811 294 809 287 809 c 0
 265 809 247 827 247 849 c 0
 247 854 248 872 266 883 c 2
 558 1061 l 2
 564 1065 572 1067 579 1067 c 0
 595 1067 609 1057 615 1043 c 2
 651 963 l 2
 653 958 655 953 655 947 c 0
EndSplineSet
Validated: 1
EndChar

StartChar: otilde
Encoding: 155 245 146
Width: 896
Flags: HW
LayerCount: 2
Fore
SplineSet
428 747 m 1
 296 723 133 625 133 473 c 0
 133 452 136 438 136 433 c 0
 145 285 279 142 432 142 c 0
 436 142 441 143 445 143 c 0
 599 171 758 302 758 474 c 0
 758 515 728 698 585 735 c 1
 441 748 l 2
 438 747 435 747 432 747 c 2
 428 747 l 1
53 472 m 0
 53 662 235 794 417 826 c 0
 418 827 l 0
 422 829 427 829 432 829 c 0
 434 829 596 815 601 814 c 0
 747 779 829 629 838 479 c 0
 838 478 838 477 838 474 c 0
 838 263 653 98 457 64 c 0
 450 63 432 62 432 62 c 0
 238 62 69 237 56 427 c 0
 55 443 53 457 53 472 c 0
515 889 m 0
 434 889 385 957 332 971 c 1
 310 968 288 916 276 889 c 1
 276 867 258 849 236 849 c 0
 232 849 211 850 200 871 c 0
 197 878 194 884 194 893 c 0
 194 901 194 902 203 922 c 0
 224 970 260 1051 335 1051 c 0
 337 1051 340 1051 344 1050 c 0
 420 1035 465 969 516 969 c 1
 527 973 554 986 573 1034 c 0
 582 1058 588 1085 590 1111 c 0
 591 1117 592 1122 595 1127 c 0
 596 1130 600 1141 600 1147 c 0
 601 1168 619 1185 640 1185 c 0
 662 1185 680 1167 680 1145 c 0
 680 1144 679 1119 669 1096 c 1
 662 1035 636 924 537 891 c 0
 531 889 524 889 515 889 c 0
EndSplineSet
Validated: 1
EndChar

StartChar: iacute
Encoding: 146 237 147
Width: 416
Flags: HW
LayerCount: 2
Fore
SplineSet
183 31 m 0
 183 9 165 -9 143 -9 c 0
 122 -9 104 8 103 29 c 0
 103 33 103 36 103 40 c 0
 103 79 113 109 117 141 c 0
 131 359 163 565 173 782 c 1
 173 793 l 2
 173 815 191 833 213 833 c 0
 235 833 253 815 253 793 c 2
 253 781 l 2
 253 780 253 780 253 779 c 0
 243 554 211 355 197 134 c 0
 196 112 183 70 183 40 c 0
 183 37 183 31 183 31 c 0
335 1065 m 0
 357 1065 375 1047 375 1025 c 0
 375 1019 374 1006 362 995 c 0
 342 978 342 978 340 977 c 2
 104 807 l 2
 97 802 89 799 81 799 c 0
 59 799 41 817 41 839 c 0
 41 844 43 860 58 871 c 2
 292 1040 l 1
 308 1055 l 2
 316 1062 326 1065 335 1065 c 0
EndSplineSet
Validated: 1
EndChar

StartChar: igrave
Encoding: 147 236 148
Width: 317
Flags: HW
LayerCount: 2
Fore
SplineSet
180 114 m 0
 180 114 181 107 181 100 c 0
 181 86 178 72 178 63 c 0
 178 61 178 61 178 59 c 0
 178 56 175 32 173 21 c 0
 174 18 174 16 174 13 c 0
 174 -12 152 -28 131 -28 c 0
 111 -28 90 -12 90 13 c 0
 90 14 90 15 90 15 c 0
 90 29 93 19 97 55 c 0
 97 57 98 59 98 61 c 0
 98 62 98 63 98 64 c 0
 98 78 100 90 100 101 c 0
 100 105 100 107 100 115 c 0
 100 137 107 153 108 166 c 2
 110 795 l 2
 110 817 128 835 150 835 c 0
 172 835 190 817 190 795 c 0
 188 164 188 164 188 163 c 0
 187 141 180 124 180 114 c 0
276 833 m 0
 276 811 258 793 236 793 c 0
 230 793 217 795 206 807 c 2
 50 985 l 2
 43 993 40 1002 40 1011 c 0
 40 1033 58 1051 80 1051 c 0
 86 1051 99 1049 110 1037 c 2
 266 859 l 2
 273 851 276 842 276 833 c 0
EndSplineSet
Validated: 1
EndChar

StartChar: Igrave
Encoding: 237 204 149
Width: 317
Flags: HW
LayerCount: 2
Fore
SplineSet
180 114 m 0
 180 114 181 107 181 100 c 0
 181 86 178 72 178 63 c 0
 178 61 178 61 178 59 c 0
 178 56 175 32 173 21 c 0
 174 18 174 16 174 13 c 0
 174 -12 152 -28 131 -28 c 0
 111 -28 90 -12 90 13 c 0
 90 14 90 15 90 15 c 0
 90 29 93 19 97 55 c 0
 97 57 98 59 98 61 c 0
 98 62 98 63 98 64 c 0
 98 78 100 90 100 101 c 0
 100 105 100 107 100 115 c 0
 100 137 107 153 108 166 c 2
 110 795 l 2
 110 817 128 835 150 835 c 0
 172 835 190 817 190 795 c 0
 188 164 188 164 188 163 c 0
 187 141 180 124 180 114 c 0
276 833 m 0
 276 811 258 793 236 793 c 0
 230 793 217 795 206 807 c 2
 50 985 l 2
 43 993 40 1002 40 1011 c 0
 40 1033 58 1051 80 1051 c 0
 86 1051 99 1049 110 1037 c 2
 266 859 l 2
 273 851 276 842 276 833 c 0
EndSplineSet
Validated: 1
EndChar

StartChar: Oacute
Encoding: 238 211 150
Width: 855
Flags: HW
LayerCount: 2
Fore
SplineSet
553 97 m 1
 688 113 715 293 715 384 c 0
 715 436 678 626 563 710 c 1
 468 749 l 2
 467 749 466 749 465 749 c 0
 302 749 133 593 133 426 c 0
 133 364 154 294 218 230 c 0
 255 193 303 162 355 140 c 0
 419 112 489 98 553 97 c 1
555 17 m 0
 341 17 53 159 53 427 c 0
 53 637 257 829 465 829 c 0
 469 829 473 829 477 829 c 0
 482 829 487 828 492 826 c 2
 598 782 l 2
 601 781 604 780 606 778 c 0
 722 697 784 530 795 396 c 0
 795 393 795 387 795 384 c 0
 795 327 786 174 694 82 c 0
 660 48 614 23 559 17 c 0
 558 17 556 17 555 17 c 0
615 1169 m 0
 637 1169 655 1151 655 1129 c 0
 655 1121 653 1114 648 1107 c 0
 600 1036 600 1036 597 1033 c 2
 411 849 l 2
 403 841 393 837 383 837 c 0
 361 837 343 855 343 877 c 0
 343 887 347 897 355 905 c 2
 538 1087 l 1
 584 1155 584 1154 587 1157 c 0
 595 1165 605 1169 615 1169 c 0
EndSplineSet
Validated: 1
EndChar

StartChar: Ocircumflex
Encoding: 239 212 151
Width: 853
Flags: HW
LayerCount: 2
Fore
SplineSet
133 422 m 0
 133 419 133 416 133 413 c 0
 133 261 250 95 417 95 c 0
 437 95 449 97 453 97 c 0
 486 99 597 108 670 294 c 0
 696 359 711 432 717 495 c 1
 716 555 675 602 624 659 c 0
 612 672 601 686 589 700 c 0
 565 720 546 750 531 763 c 1
 527 759 517 751 503 751 c 0
 315 749 139 610 133 422 c 0
417 15 m 0
 196 15 53 231 53 423 c 0
 53 424 53 425 53 426 c 0
 68 647 257 817 479 830 c 1
 489 840 498 843 516 845 c 0
 525 846 525 847 531 847 c 0
 568 847 598 810 616 788 c 0
 626 776 634 767 641 761 c 0
 643 760 646 757 648 754 c 0
 681 714 720 676 751 630 c 0
 776 592 797 547 797 493 c 0
 797 489 780 238 644 102 c 0
 597 55 535 22 459 17 c 0
 445 16 431 15 417 15 c 0
655 947 m 0
 655 925 637 907 615 907 c 0
 599 907 585 917 579 931 c 2
 561 969 l 1
 308 815 l 2
 302 811 294 809 287 809 c 0
 265 809 247 827 247 849 c 0
 247 854 248 872 266 883 c 2
 558 1061 l 2
 564 1065 572 1067 579 1067 c 0
 595 1067 609 1057 615 1043 c 2
 651 963 l 2
 653 958 655 953 655 947 c 0
EndSplineSet
Validated: 1
EndChar

StartChar: Ograve
Encoding: 241 210 152
Width: 892
Flags: HW
LayerCount: 2
Fore
SplineSet
753 573 m 0
 753 578 754 583 754 594 c 0
 754 667 688 727 600 729 c 2
 456 733 l 2
 452 733 446 734 434 740 c 0
 427 740 421 741 414 741 c 0
 223 741 138 529 138 364 c 0
 138 342 139 329 139 325 c 0
 139 318 136 309 136 288 c 0
 136 211 185 135 262 135 c 0
 285 135 296 141 307 141 c 0
 317 141 350 131 402 131 c 0
 628 131 753 333 753 550 c 0
 753 561 753 573 753 573 c 0
57 365 m 0
 57 581 179 820 415 820 c 0
 425 820 436 819 447 819 c 0
 463 819 463 819 463 819 c 2
 471 819 478 817 485 812 c 1
 602 809 l 2
 724 807 834 716 834 593 c 0
 834 586 834 578 833 571 c 0
 833 564 833 557 833 550 c 0
 833 281 667 51 400 51 c 0
 370 51 340 54 308 60 c 1
 293 57 277 55 262 55 c 0
 140 55 56 165 56 287 c 0
 56 300 57 314 59 327 c 0
 58 339 57 352 57 365 c 0
213 1213 m 0
 213 1235 231 1253 253 1253 c 0
 259 1253 273 1252 284 1239 c 2
 578 891 l 2
 584 884 587 874 587 865 c 0
 587 843 569 825 547 825 c 0
 541 825 527 826 516 839 c 2
 222 1187 l 2
 216 1194 213 1204 213 1213 c 0
EndSplineSet
Validated: 1
EndChar

StartChar: uacute
Encoding: 156 250 153
Width: 741
Flags: HW
LayerCount: 2
Fore
SplineSet
63 676 m 0
 63 689 63 696 63 697 c 2
 63 745 l 2
 63 767 81 785 103 785 c 0
 125 785 143 767 143 745 c 2
 143 697 l 2
 143 690 143 683 143 676 c 0
 143 645 142 614 141 584 c 0
 140 554 138 525 138 496 c 0
 138 486 139 476 139 466 c 0
 147 392 189 99 363 71 c 0
 369 71 375 70 381 70 c 0
 464 70 538 104 572 253 c 0
 588 325 592 411 595 489 c 0
 597 535 598 555 599 566 c 0
 599 573 600 579 600 586 c 0
 600 613 596 639 585 657 c 0
 581 663 581 663 574 704 c 0
 574 706 573 709 573 711 c 0
 573 733 591 751 613 751 c 0
 633 751 649 737 652 718 c 2
 657 691 l 1
 675 658 680 621 680 588 c 0
 680 579 680 569 679 560 c 0
 677 537 676 512 675 485 c 0
 669 336 662 159 563 60 c 0
 519 16 457 -10 379 -10 c 0
 379 -10 360 -10 353 -9 c 0
 159 20 81 262 59 458 c 0
 59 458 58 470 58 496 c 0
 58 556 63 616 63 676 c 0
617 1199 m 0
 639 1199 657 1181 657 1159 c 0
 657 1150 654 1140 648 1133 c 0
 357 790 356 790 355 789 c 0
 347 781 337 777 327 777 c 0
 305 777 287 795 287 817 c 0
 287 826 290 836 296 843 c 0
 587 1186 588 1186 589 1187 c 0
 597 1195 607 1199 617 1199 c 0
EndSplineSet
Validated: 1
EndChar

StartChar: ugrave
Encoding: 157 249 154
Width: 786
Flags: HW
LayerCount: 2
Fore
SplineSet
661 797 m 0
 682 797 699 781 701 760 c 0
 705 717 705 714 712 669 c 0
 717 634 723 598 723 559 c 0
 723 547 722 534 721 522 c 1
 722 506 723 490 723 473 c 0
 723 413 714 206 595 87 c 0
 551 43 493 13 421 11 c 1
 401 8 382 6 364 6 c 0
 149 6 58 222 58 449 c 0
 58 499 63 548 71 591 c 1
 71 815 l 2
 71 837 89 855 111 855 c 0
 133 855 151 837 151 815 c 2
 151 587 l 2
 151 578 139 531 139 449 c 0
 139 404 142 358 151 314 c 0
 171 215 224 86 363 86 c 0
 391 86 409 91 416 91 c 0
 468 92 507 112 539 144 c 0
 575 180 602 233 619 294 c 0
 636 353 643 417 643 474 c 0
 643 503 641 519 641 523 c 0
 641 528 643 537 643 558 c 0
 643 613 628 670 623 730 c 0
 621 756 621 755 621 757 c 0
 621 779 639 797 661 797 c 0
503 797 m 0
 503 775 485 757 463 757 c 0
 451 757 447 760 429 772 c 0
 426 774 423 775 420 779 c 2
 234 1003 l 2
 228 1010 225 1020 225 1029 c 0
 225 1051 243 1069 265 1069 c 0
 277 1069 288 1064 296 1055 c 2
 478 835 l 1
 488 828 488 828 491 825 c 0
 499 817 503 807 503 797 c 0
EndSplineSet
Validated: 1
EndChar

StartChar: ucircumflex
Encoding: 158 251 155
Width: 798
Flags: HW
LayerCount: 2
Fore
SplineSet
64 786 m 0
 64 791 64 799 64 799 c 0
 64 821 82 839 104 839 c 0
 125 839 143 822 144 801 c 0
 144 796 144 791 144 786 c 0
 144 761 142 742 138 709 c 0
 138 698 138 686 138 675 c 0
 138 506 140 253 255 138 c 0
 289 104 331 81 392 75 c 1
 444 85 486 110 522 146 c 0
 562 186 593 239 615 298 c 0
 643 372 657 454 658 524 c 0
 658 527 659 535 659 550 c 0
 659 576 655 666 607 788 c 0
 605 793 604 798 604 803 c 0
 604 825 622 843 644 843 c 0
 647 843 671 843 681 818 c 0
 697 779 739 661 739 550 c 0
 739 540 739 531 738 521 c 0
 736 442 721 353 690 270 c 0
 672 223 597 30 401 -4 c 0
 399 -4 396 -5 394 -5 c 0
 393 -5 392 -5 391 -5 c 0
 310 2 246 33 198 81 c 0
 60 219 58 483 58 675 c 0
 58 706 58 711 58 711 c 0
 58 719 64 754 64 786 c 0
556 901 m 0
 556 879 538 861 516 861 c 0
 511 861 493 862 482 880 c 2
 473 894 l 1
 444 930 430 970 416 1007 c 0
 409 1025 403 1043 396 1059 c 1
 380 1040 363 1019 346 999 c 0
 311 957 275 913 239 874 c 1
 233 859 219 849 202 849 c 0
 180 849 162 867 162 889 c 2
 162 893 l 2
 162 903 166 912 173 920 c 0
 238 989 309 1083 372 1154 c 0
 376 1158 386 1167 402 1167 c 0
 408 1167 423 1165 434 1151 c 0
 487 1081 495 993 537 942 c 0
 539 940 539 940 550 922 c 0
 554 916 556 908 556 901 c 0
EndSplineSet
Validated: 1
EndChar

StartChar: Uacute
Encoding: 242 218 156
Width: 741
Flags: HW
LayerCount: 2
Fore
SplineSet
63 676 m 0
 63 689 63 696 63 697 c 2
 63 745 l 2
 63 767 81 785 103 785 c 0
 125 785 143 767 143 745 c 2
 143 697 l 2
 143 690 143 683 143 676 c 0
 143 645 142 614 141 584 c 0
 140 554 138 525 138 496 c 0
 138 486 139 476 139 466 c 0
 147 392 189 99 363 71 c 0
 369 71 375 70 381 70 c 0
 464 70 538 104 572 253 c 0
 588 325 592 411 595 489 c 0
 597 535 598 555 599 566 c 0
 599 573 600 579 600 586 c 0
 600 613 596 639 585 657 c 0
 581 663 581 663 574 704 c 0
 574 706 573 709 573 711 c 0
 573 733 591 751 613 751 c 0
 633 751 649 737 652 718 c 2
 657 691 l 1
 675 658 680 621 680 588 c 0
 680 579 680 569 679 560 c 0
 677 537 676 512 675 485 c 0
 669 336 662 159 563 60 c 0
 519 16 457 -10 379 -10 c 0
 379 -10 360 -10 353 -9 c 0
 159 20 81 262 59 458 c 0
 59 458 58 470 58 496 c 0
 58 556 63 616 63 676 c 0
617 1199 m 0
 639 1199 657 1181 657 1159 c 0
 657 1150 654 1140 648 1133 c 0
 357 790 356 790 355 789 c 0
 347 781 337 777 327 777 c 0
 305 777 287 795 287 817 c 0
 287 826 290 836 296 843 c 0
 587 1186 588 1186 589 1187 c 0
 597 1195 607 1199 617 1199 c 0
EndSplineSet
Validated: 1
EndChar

StartChar: Ucircumflex
Encoding: 243 219 157
Width: 798
Flags: HW
LayerCount: 2
Fore
SplineSet
64 786 m 0
 64 791 64 799 64 799 c 0
 64 821 82 839 104 839 c 0
 125 839 143 822 144 801 c 0
 144 796 144 791 144 786 c 0
 144 761 142 742 138 709 c 0
 138 698 138 686 138 675 c 0
 138 506 140 253 255 138 c 0
 289 104 331 81 392 75 c 1
 444 85 486 110 522 146 c 0
 562 186 593 239 615 298 c 0
 643 372 657 454 658 524 c 0
 658 527 659 535 659 550 c 0
 659 576 655 666 607 788 c 0
 605 793 604 798 604 803 c 0
 604 825 622 843 644 843 c 0
 647 843 671 843 681 818 c 0
 697 779 739 661 739 550 c 0
 739 540 739 531 738 521 c 0
 736 442 721 353 690 270 c 0
 672 223 597 30 401 -4 c 0
 399 -4 396 -5 394 -5 c 0
 393 -5 392 -5 391 -5 c 0
 310 2 246 33 198 81 c 0
 60 219 58 483 58 675 c 0
 58 706 58 711 58 711 c 0
 58 719 64 754 64 786 c 0
556 901 m 0
 556 879 538 861 516 861 c 0
 511 861 493 862 482 880 c 2
 473 894 l 1
 444 930 430 970 416 1007 c 0
 409 1025 403 1043 396 1059 c 1
 380 1040 363 1019 346 999 c 0
 311 957 275 913 239 874 c 1
 233 859 219 849 202 849 c 0
 180 849 162 867 162 889 c 2
 162 893 l 2
 162 903 166 912 173 920 c 0
 238 989 309 1083 372 1154 c 0
 376 1158 386 1167 402 1167 c 0
 408 1167 423 1165 434 1151 c 0
 487 1081 495 993 537 942 c 0
 539 940 539 940 550 922 c 0
 554 916 556 908 556 901 c 0
EndSplineSet
Validated: 1
EndChar

StartChar: Ugrave
Encoding: 244 217 158
Width: 786
Flags: HW
LayerCount: 2
Fore
SplineSet
661 797 m 0
 682 797 699 781 701 760 c 0
 705 717 705 714 712 669 c 0
 717 634 723 598 723 559 c 0
 723 547 722 534 721 522 c 1
 722 506 723 490 723 473 c 0
 723 413 714 206 595 87 c 0
 551 43 493 13 421 11 c 1
 401 8 382 6 364 6 c 0
 149 6 58 222 58 449 c 0
 58 499 63 548 71 591 c 1
 71 815 l 2
 71 837 89 855 111 855 c 0
 133 855 151 837 151 815 c 2
 151 587 l 2
 151 578 139 531 139 449 c 0
 139 404 142 358 151 314 c 0
 171 215 224 86 363 86 c 0
 391 86 409 91 416 91 c 0
 468 92 507 112 539 144 c 0
 575 180 602 233 619 294 c 0
 636 353 643 417 643 474 c 0
 643 503 641 519 641 523 c 0
 641 528 643 537 643 558 c 0
 643 613 628 670 623 730 c 0
 621 756 621 755 621 757 c 0
 621 779 639 797 661 797 c 0
503 797 m 0
 503 775 485 757 463 757 c 0
 451 757 447 760 429 772 c 0
 426 774 423 775 420 779 c 2
 234 1003 l 2
 228 1010 225 1020 225 1029 c 0
 225 1051 243 1069 265 1069 c 0
 277 1069 288 1064 296 1055 c 2
 478 835 l 1
 488 828 488 828 491 825 c 0
 499 817 503 807 503 797 c 0
EndSplineSet
Validated: 1
EndChar

StartChar: approxequal
Encoding: 197 8776 159
Width: 985
Flags: HW
LayerCount: 2
Fore
SplineSet
349 483 m 0
 345 483 335 484 317 484 c 0
 250 484 182 463 142 423 c 0
 125 406 122 396 115 389 c 0
 107 381 97 377 87 377 c 0
 65 377 47 395 47 417 c 0
 47 424 49 431 53 437 c 0
 106 525 216 565 316 565 c 0
 327 565 339 564 350 563 c 0
 352 563 354 563 356 563 c 0
 526 563 606 376 732 376 c 0
 734 376 736 377 738 377 c 0
 763 385 785 399 803 417 c 0
 828 442 848 477 859 512 c 0
 864 528 879 539 897 539 c 0
 919 539 937 521 937 499 c 0
 937 495 936 490 935 486 c 0
 922 446 875 334 756 299 c 0
 751 297 742 296 731 296 c 0
 566 296 489 483 356 483 c 0
 354 483 349 483 349 483 c 0
296 230 m 0
 245 230 199 190 159 139 c 0
 159 138 159 138 159 137 c 0
 159 115 144 102 133 98 c 0
 127 94 120 93 113 93 c 0
 84 93 67 112 67 134 c 0
 67 144 71 152 75 158 c 0
 78 165 106 203 136 233 c 0
 176 273 229 310 296 310 c 0
 303 310 315 310 324 306 c 0
 480 242 590 73 752 73 c 0
 778 73 785 89 796 146 c 0
 802 176 807 206 824 230 c 0
 827 234 838 247 857 247 c 0
 879 247 897 229 897 207 c 0
 897 199 895 191 890 184 c 0
 871 157 879 72 831 24 c 0
 815 8 792 -4 766 -7 c 0
 763 -7 759 -7 752 -7 c 0
 558 -7 438 170 300 230 c 0
 299 230 297 230 296 230 c 0
EndSplineSet
Validated: 1
EndChar

StartChar: Otilde
Encoding: 205 213 160
Width: 896
Flags: HW
LayerCount: 2
Fore
SplineSet
428 747 m 1
 296 723 133 625 133 473 c 0
 133 452 136 438 136 433 c 0
 145 285 279 142 432 142 c 0
 436 142 441 143 445 143 c 0
 599 171 758 302 758 474 c 0
 758 515 728 698 585 735 c 1
 441 748 l 2
 438 747 435 747 432 747 c 2
 428 747 l 1
53 472 m 0
 53 662 235 794 417 826 c 0
 418 827 l 0
 422 829 427 829 432 829 c 0
 434 829 596 815 601 814 c 0
 747 779 829 629 838 479 c 0
 838 478 838 477 838 474 c 0
 838 263 653 98 457 64 c 0
 450 63 432 62 432 62 c 0
 238 62 69 237 56 427 c 0
 55 443 53 457 53 472 c 0
515 889 m 0
 434 889 385 957 332 971 c 1
 310 968 288 916 276 889 c 1
 276 867 258 849 236 849 c 0
 232 849 211 850 200 871 c 0
 197 878 194 884 194 893 c 0
 194 901 194 902 203 922 c 0
 224 970 260 1051 335 1051 c 0
 337 1051 340 1051 344 1050 c 0
 420 1035 465 969 516 969 c 1
 527 973 554 986 573 1034 c 0
 582 1058 588 1085 590 1111 c 0
 591 1117 592 1122 595 1127 c 0
 596 1130 600 1141 600 1147 c 0
 601 1168 619 1185 640 1185 c 0
 662 1185 680 1167 680 1145 c 0
 680 1144 679 1119 669 1096 c 1
 662 1035 636 924 537 891 c 0
 531 889 524 889 515 889 c 0
EndSplineSet
Validated: 1
EndChar

StartChar: sterling
Encoding: 163 163 161
Width: 996
Flags: HW
LayerCount: 2
Fore
SplineSet
207 421 m 1
 204 448 202 475 202 509 c 0
 202 657 237 728 276 767 c 0
 304 795 343 813 390 815 c 0
 391 815 l 0
 470 815 510 795 536 764 c 0
 542 757 545 748 545 739 c 0
 545 717 527 699 505 699 c 0
 499 699 485 701 474 714 c 0
 459 732 428 734 391 735 c 0
 354 733 282 717 282 507 c 0
 282 463 284 442 287 422 c 1
 309 422 333 423 355 423 c 0
 357 423 506 422 508 422 c 0
 564 422 594 423 595 423 c 0
 617 423 635 405 635 383 c 0
 635 361 618 343 596 343 c 0
 567 343 537 342 508 342 c 0
 458 342 407 343 356 343 c 0
 338 343 321 343 303 343 c 1
 319 270 329 227 329 172 c 0
 329 161 328 149 327 138 c 0
 327 136 327 133 327 131 c 0
 327 119 326 108 323 97 c 1
 445 124 570 141 694 141 c 0
 741 141 740 141 872 131 c 0
 876 131 876 130 922 117 c 0
 939 112 951 97 951 79 c 0
 951 57 933 39 911 39 c 0
 905 39 906 39 862 51 c 1
 738 61 738 61 695 61 c 0
 550 61 400 35 255 -2 c 1
 238 -15 188 -47 124 -47 c 0
 120 -47 116 -47 112 -47 c 0
 110 -47 107 -48 102 -48 c 0
 70 -48 57 -22 57 -5 c 0
 57 13 69 28 85 33 c 0
 128 46 173 59 218 71 c 1
 231 83 247 104 247 131 c 0
 247 135 247 136 247 139 c 0
 247 139 249 157 249 171 c 0
 249 217 238 264 227 315 c 0
 225 324 223 332 221 341 c 1
 151 339 102 335 101 335 c 2
 85 335 l 2
 63 335 45 353 45 375 c 0
 45 397 63 415 85 415 c 2
 99 415 l 1
 134 418 171 420 207 421 c 1
EndSplineSet
Validated: 1
EndChar

StartChar: questiondown
Encoding: 192 191 162
Width: 571
Flags: HW
LayerCount: 2
Fore
SplineSet
487 73 m 4
 509 73 527 55 527 33 c 4
 527 28 526 22 524 17 c 4
 500 -37 430 -183 313 -193 c 4
 305 -194 296 -194 288 -194 c 4
 164 -194 74 -79 52 39 c 4
 49 55 47 70 47 84 c 4
 47 140 72 195 153 222 c 4
 221 245 322 245 341 272 c 5
 333 442 333 442 333 443 c 4
 333 465 351 483 373 483 c 4
 394 483 424 466 425 445 c 4
 433 266 433 266 433 265 c 4
 433 250 411 229 395 213 c 4
 344 162 245 168 178 146 c 4
 136 132 127 112 127 84 c 4
 127 18 186 -114 288 -114 c 4
 290 -114 289 -114 306 -113 c 4
 327 -111 349 -100 371 -78 c 4
 406 -43 434 13 450 49 c 4
 456 63 471 73 487 73 c 4
321 753 m 4
 321 775 339 793 361 793 c 4
 381 793 397 778 400 759 c 4
 426 592 427 592 427 589 c 4
 427 567 409 549 387 549 c 4
 367 549 351 564 348 583 c 4
 322 750 321 750 321 753 c 4
EndSplineSet
Validated: 1
EndChar

StartChar: exclamdown
Encoding: 193 161 163
Width: 290
Flags: HW
LayerCount: 2
Fore
SplineSet
139 590 m 4
 161 590 179 572 179 550 c 6
 179 491 l 5
 177 360 177 229 177 98 c 4
 177 57 177 15 177 -26 c 5
 178 -33 179 -39 179 -46 c 4
 179 -100 143 -136 116 -165 c 4
 112 -169 107 -174 107 -174 c 4
 99 -182 89 -186 79 -186 c 4
 57 -186 39 -168 39 -146 c 4
 39 -136 43 -127 50 -119 c 4
 83 -84 82 -84 89 -74 c 4
 96 -64 99 -55 99 -47 c 4
 99 -40 97 -38 97 -30 c 4
 97 12 97 55 97 98 c 4
 97 229 97 360 99 492 c 5
 99 550 l 6
 99 572 117 590 139 590 c 4
127 688 m 4
 105 688 87 706 87 728 c 4
 87 744 97 759 111 765 c 6
 185 797 l 6
 190 799 196 800 201 800 c 4
 205 800 226 799 237 778 c 4
 240 771 243 765 243 756 c 4
 243 739 234 731 227 724 c 4
 219 716 209 712 199 712 c 4
 197 712 194 713 192 713 c 5
 143 691 l 6
 138 689 132 688 127 688 c 4
EndSplineSet
Validated: 1
EndChar

StartChar: uni03A9
Encoding: 189 937 164
Width: 1031
Flags: HW
LayerCount: 2
Fore
SplineSet
512 107 m 0
 512 85 494 67 472 67 c 2
 98 67 l 2
 76 67 58 85 58 107 c 0
 58 129 76 147 98 147 c 2
 348 147 l 1
 278 201 190 284 190 403 c 0
 190 403 190 430 193 444 c 0
 232 624 427 703 690 703 c 0
 695 703 700 704 705 704 c 0
 837 704 952 577 952 445 c 0
 952 444 952 443 952 442 c 0
 952 436 953 429 953 423 c 0
 953 306 871 217 790 147 c 1
 796 147 801 147 806 147 c 0
 814 147 822 147 830 147 c 0
 830 147 866 146 878 144 c 2
 940 132 l 2
 959 128 972 112 972 93 c 0
 972 71 954 53 932 53 c 0
 928 53 928 53 864 65 c 0
 852 66 841 67 830 67 c 0
 830 67 807 67 806 67 c 0
 792 67 780 67 780 67 c 0
 758 67 733 66 710 66 c 0
 698 66 686 67 674 67 c 0
 653 68 636 85 636 107 c 0
 636 113 637 127 651 138 c 0
 658 143 664 149 671 154 c 0
 757 221 873 312 873 424 c 0
 873 430 872 441 872 441 c 0
 872 442 872 443 872 445 c 0
 872 531 794 624 705 624 c 0
 697 624 696 623 691 623 c 0
 626 623 421 619 322 520 c 0
 297 495 280 466 271 428 c 0
 270 420 270 411 270 403 c 0
 270 299 372 225 473 155 c 0
 498 138 497 138 500 135 c 0
 508 127 512 117 512 107 c 0
EndSplineSet
Validated: 1
EndChar

StartChar: infinity
Encoding: 176 8734 165
Width: 847
Flags: HW
LayerCount: 2
Fore
SplineSet
53 435 m 0
 53 510 130 558 209 558 c 0
 214 558 219 557 224 557 c 0
 225 557 226 557 227 557 c 0
 270 557 328 541 392 480 c 0
 398 476 404 472 410 467 c 1
 442 497 453 515 461 523 c 0
 482 544 482 545 493 553 c 0
 500 558 503 560 506 564 c 0
 526 593 575 633 644 633 c 0
 694 633 737 627 766 598 c 0
 782 582 791 559 791 534 c 0
 791 532 791 530 791 528 c 0
 791 527 791 527 791 526 c 0
 791 403 692 287 569 287 c 0
 566 287 563 287 560 287 c 0
 559 287 559 287 558 287 c 0
 489 287 443 328 407 362 c 1
 341 317 263 287 183 279 c 0
 182 279 180 279 179 279 c 0
 178 279 138 280 101 317 c 0
 70 348 53 392 53 435 c 0
711 529 m 2
 711 532 711 533 711 536 c 0
 711 541 710 540 709 541 c 0
 707 543 702 546 690 549 c 0
 677 552 659 553 642 553 c 0
 613 553 584 535 572 518 c 0
 562 504 550 495 540 488 c 0
 534 484 534 484 519 469 c 0
 510 457 494 436 470 413 c 1
 502 384 526 367 558 367 c 0
 559 367 561 367 561 367 c 0
 563 367 565 367 569 367 c 0
 649 367 711 450 711 526 c 0
 711 527 711 529 711 529 c 2
209 478 m 0
 168 478 133 457 133 436 c 0
 133 407 151 367 181 359 c 1
 238 366 294 387 344 417 c 1
 338 421 312 448 277 465 c 0
 260 473 244 477 227 477 c 0
 226 477 223 477 223 477 c 0
 219 477 216 478 209 478 c 0
EndSplineSet
Validated: 1
EndChar

StartChar: perthousand
Encoding: 228 8240 166
Width: 957
Flags: HW
LayerCount: 2
Fore
SplineSet
85 33 m 0
 63 33 45 51 45 73 c 0
 45 79 46 85 49 91 c 2
 393 761 l 2
 395 765 406 783 429 783 c 0
 451 783 469 765 469 743 c 0
 469 737 468 731 465 725 c 2
 121 55 l 2
 119 51 108 33 85 33 c 0
160 597 m 1
 184 602 215 629 215 656 c 0
 215 657 215 657 215 658 c 0
 214 659 l 0
 188 646 166 622 160 597 c 1
225 737 m 0
 257 737 295 707 295 656 c 0
 295 587 231 525 168 517 c 0
 166 517 165 517 163 517 c 0
 120 517 104 530 96 538 c 0
 85 549 79 565 79 580 c 0
 79 581 l 0
 79 583 79 584 79 586 c 0
 79 654 132 713 193 736 c 0
 198 738 202 739 207 739 c 0
 212 739 216 739 220 737 c 0
 222 737 223 737 225 737 c 0
447 397 m 0
 447 419 465 437 487 437 c 0
 499 437 509 432 517 423 c 0
 536 401 594 377 614 328 c 0
 616 324 617 319 617 298 c 0
 617 206 574 125 488 119 c 0
 480 117 471 116 463 116 c 0
 416 116 371 149 371 199 c 0
 371 204 372 211 373 216 c 0
 373 222 372 227 372 233 c 0
 372 330 433 380 448 387 c 0
 447 390 447 394 447 397 c 0
451 200 m 0
 451 200 455 196 463 196 c 0
 469 196 471 199 480 199 c 0
 489 199 516 200 530 248 c 0
 535 264 537 282 537 299 c 0
 537 300 537 301 537 302 c 0
 532 309 525 316 510 327 c 1
 507 323 497 310 478 309 c 1
 461 290 452 261 452 232 c 0
 452 226 453 213 453 213 c 0
 453 206 451 200 451 200 c 0
667 177 m 0
 667 208 677 239 690 268 c 1
 690 270 689 273 689 275 c 0
 689 279 690 300 711 311 c 0
 743 327 744 327 753 327 c 0
 759 327 833 322 882 273 c 0
 897 258 913 233 913 215 c 0
 913 186 907 114 853 91 c 0
 843 87 833 85 822 85 c 0
 821 85 771 86 743 93 c 0
 715 100 679 117 668 159 c 0
 667 164 667 169 667 177 c 0
767 244 m 1
 757 221 747 198 747 177 c 1
 755 168 789 167 804 166 c 0
 818 165 822 165 822 165 c 0
 824 168 831 178 833 207 c 1
 829 213 813 234 767 244 c 1
EndSplineSet
Validated: 1
EndChar

StartChar: ring
Encoding: 251 730 167
Width: 456
Flags: HW
LayerCount: 2
Fore
SplineSet
213 849 m 0
 219 849 225 848 231 845 c 0
 232 845 232 845 233 845 c 0
 242 845 248 842 254 839 c 0
 270 838 275 836 295 827 c 0
 304 823 304 820 312 816 c 0
 323 811 340 807 356 799 c 0
 366 794 399 776 399 733 c 0
 399 727 398 721 397 715 c 0
 397 714 397 712 397 711 c 0
 397 699 396 624 350 578 c 0
 332 560 308 547 280 545 c 0
 271 543 262 543 253 543 c 0
 150 543 63 645 55 748 c 0
 55 749 55 750 55 751 c 0
 55 761 60 784 78 802 c 0
 104 828 142 835 177 842 c 0
 187 844 196 845 202 847 c 0
 206 848 209 849 213 849 c 0
136 746 m 0
 145 689 194 623 253 623 c 0
 263 623 267 625 273 625 c 0
 311 627 317 689 317 712 c 0
 317 714 317 719 317 719 c 0
 317 722 317 725 318 728 c 0
 304 734 293 737 277 745 c 0
 258 754 258 759 251 759 c 0
 247 759 l 0
 236 759 224 765 216 769 c 1
 197 764 170 760 151 753 c 0
 143 750 138 748 136 746 c 0
EndSplineSet
Validated: 1
EndChar

StartChar: ordmasculine
Encoding: 188 186 168
Width: 443
Flags: HW
LayerCount: 2
Fore
SplineSet
203 849 m 0
 209 849 215 848 221 845 c 0
 222 845 222 845 223 845 c 0
 232 845 238 842 244 839 c 0
 260 838 265 836 285 827 c 0
 294 823 294 820 302 816 c 0
 313 811 330 807 346 799 c 0
 356 794 389 776 389 733 c 0
 389 727 388 721 387 715 c 0
 387 714 387 712 387 711 c 0
 387 699 386 624 340 578 c 0
 322 560 298 547 270 545 c 0
 261 543 252 543 243 543 c 0
 140 543 53 645 45 748 c 0
 45 749 45 750 45 751 c 0
 45 761 50 784 68 802 c 0
 94 828 132 835 167 842 c 0
 177 844 186 845 192 847 c 0
 196 848 199 849 203 849 c 0
126 746 m 0
 135 689 184 623 243 623 c 0
 253 623 257 625 263 625 c 0
 301 627 307 689 307 712 c 0
 307 714 307 719 307 719 c 0
 307 722 307 725 308 728 c 0
 294 734 283 737 267 745 c 0
 248 754 248 759 241 759 c 0
 237 759 l 0
 226 759 214 765 206 769 c 1
 187 764 160 760 141 753 c 0
 133 750 128 748 126 746 c 0
EndSplineSet
Validated: 1
EndChar

StartChar: summation
Encoding: 183 8721 169
Width: 793
Flags: HW
LayerCount: 2
Fore
SplineSet
242 761 m 0
 243 761 250 761 261 761 c 0
 386 761 515 788 642 815 c 0
 690 825 690 825 694 825 c 2
 704 825 l 2
 726 825 744 807 744 785 c 0
 744 763 726 745 704 745 c 2
 698 745 l 1
 685 742 672 740 659 737 c 0
 544 713 422 686 299 681 c 1
 350 635 431 580 476 535 c 0
 498 513 510 496 510 479 c 0
 510 473 509 459 496 448 c 0
 483 437 469 427 456 416 c 0
 354 332 244 239 169 138 c 1
 264 153 365 150 454 168 c 0
 456 168 693 177 706 177 c 0
 728 177 746 159 746 137 c 0
 746 115 729 98 707 97 c 2
 467 89 l 1
 343 65 207 76 97 39 c 0
 93 38 88 37 84 37 c 0
 62 37 44 55 44 77 c 0
 44 83 45 89 48 95 c 0
 121 242 272 367 414 484 c 1
 354 541 233 616 201 671 c 0
 196 680 191 691 191 706 c 0
 191 740 221 761 242 761 c 0
EndSplineSet
Validated: 1
EndChar

StartChar: yen
Encoding: 180 165 170
Width: 790
Flags: HW
LayerCount: 2
Fore
SplineSet
173 339 m 0
 173 361 191 379 213 379 c 2
 225 379 l 1
 353 380 l 1
 351 410 349 441 346 470 c 1
 236 585 237 584 202 619 c 0
 112 709 58 752 57 753 c 0
 49 761 45 771 45 781 c 0
 45 803 63 821 85 821 c 0
 94 821 103 818 110 812 c 0
 197 741 281 654 385 545 c 1
 443 596 508 642 570 686 c 0
 581 694 592 702 603 710 c 1
 675 780 l 2
 683 788 693 791 703 791 c 0
 725 791 743 773 743 751 c 0
 743 741 739 731 731 723 c 0
 654 649 654 649 652 647 c 0
 640 638 628 629 616 620 c 0
 550 573 483 525 426 474 c 1
 429 443 432 412 434 381 c 1
 627 383 l 2
 649 383 667 365 667 343 c 0
 667 321 649 303 627 303 c 2
 439 301 l 1
 440 285 442 270 444 255 c 1
 611 255 l 2
 633 255 651 237 651 215 c 0
 651 193 633 175 611 175 c 2
 456 175 l 1
 475 81 495 65 495 41 c 0
 495 15 478 -15 449 -15 c 0
 427 -15 409 3 409 25 c 0
 409 30 410 36 412 41 c 1
 394 85 382 129 374 175 c 1
 207 175 l 2
 185 175 167 193 167 215 c 0
 167 237 185 255 207 255 c 2
 363 255 l 1
 361 270 360 285 359 300 c 1
 225 299 l 1
 213 299 l 2
 191 299 173 317 173 339 c 0
EndSplineSet
Validated: 1
EndChar

StartChar: fraction
Encoding: 218 8260 171
Width: 658
Flags: HW
HStem: 765 20G<564 582>
LayerCount: 2
Fore
SplineSet
571 785 m 0
 593 785 611 767 611 745 c 0
 611 738 609 730 605 724 c 2
 442 460 l 1
 289 146 l 2
 285 139 232 84 231 83 c 2
 153 5 l 2
 149 1 144 -2 139 -4 c 2
 97 -20 l 2
 92 -22 88 -23 83 -23 c 0
 61 -23 43 -5 43 17 c 0
 43 34 53 48 69 54 c 2
 103 67 l 1
 176 140 192 156 220 186 c 1
 372 498 372 498 373 500 c 2
 537 766 l 2
 544 778 557 785 571 785 c 0
EndSplineSet
Validated: 1
EndChar

